<svg width="1177" height="684" viewBox="0 0 1177 684" fill="none" xmlns="http://www.w3.org/2000/svg">
<path d="M1032.58 596.854C1030.13 598.187 1028.88 599.909 1027.2 600.793C1010.51 609.56 993.634 617.97 977.051 626.927C965.265 633.293 953.582 639.837 942.561 647.593C936.049 652.176 928.321 654.997 921.3 658.899C914.773 662.526 908.524 666.65 902.034 670.347C894.77 674.485 887.492 678.633 879.99 682.308C875.172 684.668 870.482 681.597 866.604 679.577C855.587 673.841 845.055 667.173 834.345 660.851C823.899 654.684 813.444 648.53 803.039 642.294C796.086 638.127 789.306 633.663 782.287 629.614C762.124 617.98 741.963 606.336 721.622 595.018C713.549 590.526 705.059 586.765 696.664 582.878C679.466 574.917 664.657 563.269 649.199 552.592C642.808 548.178 635.897 544.518 629.228 540.505C617.489 533.44 605.84 526.22 593.968 519.384C590.287 517.265 587.21 516.261 582.114 519.696C566.952 529.917 550.581 538.332 534.81 547.668C517.928 557.663 501.285 568.062 484.361 577.984C472.063 585.194 459.452 591.868 447.028 598.867C433.51 606.482 419.971 614.066 406.581 621.903C391.538 630.707 376.817 640.072 361.654 648.659C342.794 659.338 323.614 669.45 304.596 679.85C297.809 683.561 292.622 680.503 292.595 672.534C292.533 654.87 292.707 637.204 292.513 619.542C292.43 612.091 292.603 604.648 292.581 597.201C292.556 589.203 292.575 581.204 292.575 573.205C292.575 565.206 292.575 557.207 292.575 549.208C292.575 541.209 292.575 533.21 292.575 525.211C292.575 517.212 292.575 509.213 292.575 501.215C292.575 493.216 292.575 485.217 292.575 477.218C292.575 469.219 292.575 461.22 292.575 453.221C292.575 445.222 291.686 437.104 292.738 429.246C296.179 403.551 293.902 377.783 294.527 352.062C294.81 340.449 294.482 340.601 284.706 334.823C258.99 319.623 233.425 304.167 207.68 289.017C190.289 278.783 172.597 269.061 155.214 258.813C132.153 245.219 109.316 231.246 86.2687 217.628C78.5494 213.066 70.4716 209.113 62.5749 204.85C47.3201 196.615 32.1198 188.277 16.7936 180.178C13.831 178.612 10.3036 178.15 7.21026 176.785C4.85625 175.747 0.958546 174.064 0.974659 172.707C1.00347 170.291 3.00542 167.355 5.02813 165.627C8.54509 162.621 13.3674 162.033 17.4427 159.382C38.8763 145.44 61.4271 133.163 82.4545 118.661C120.204 92.6273 161.969 74.1758 202.152 52.7095C221.61 42.3148 240.26 30.4058 259.262 19.1592C269.17 13.2952 278.902 7.10876 289.045 1.6889C291.467 0.395073 295.928 0.410088 298.24 1.81524C317.865 13.7402 338.4 23.9706 358.468 35.0578C381.621 47.8489 403.89 62.2349 426.591 75.8479C443.935 86.2479 461.385 96.4681 478.728 106.869C496.358 117.442 513.676 128.562 531.582 138.641C544.739 146.048 558.742 151.935 572.127 158.959C577.933 162.007 583.097 166.266 588.62 169.87C593.327 172.942 598.013 176.077 602.914 178.815C619.684 188.181 636.362 197.737 653.415 206.564C676.945 218.743 699.789 232.108 721.507 247.178C732.365 254.713 743.989 260.505 755.3 267.054C770.094 275.619 785.665 282.717 799.828 292.583C812.217 301.214 826.714 306.78 839.359 315.098C848.781 321.295 858.086 327.593 868.072 332.83C872.488 335.146 873.065 335.186 877.378 332.812C882.555 329.964 887.534 326.76 892.649 323.798C900.17 319.443 907.781 315.242 915.272 310.837C930.288 302.007 945.141 292.893 960.267 284.257C972.088 277.508 984.331 271.497 996.185 264.803C1010.26 256.856 1024.15 248.587 1038.05 240.349C1053.05 231.465 1067.88 222.295 1082.95 213.537C1107.91 199.029 1132.92 184.588 1158.17 170.578C1161.38 168.792 1166.46 168.681 1170.07 169.784C1173.11 170.711 1174.89 174.21 1174.78 178.631C1174.56 188.02 1175.39 197.468 1175.95 206.831C1176.49 216.108 1177.34 225.654 1176.72 235.142C1176.08 244.766 1176.58 254.464 1176.58 264.129C1176.58 274.794 1176.4 285.464 1176.67 296.122C1177.02 310.135 1177.04 322.276 1176.62 336.464C1175.85 362.514 1175.34 388.573 1174.51 414.621C1174.29 421.358 1172.82 428.061 1172.69 434.794C1172.56 441.867 1173.58 449.023 1173.97 455.994C1174.42 463.961 1175.2 472.16 1174.69 480.307C1174.16 488.94 1174.78 497.637 1174.52 506.295C1174.25 515.103 1171.81 517.86 1164.07 520.933C1159.49 522.747 1155.13 525.171 1150.85 527.636C1142.5 532.455 1134.5 537.943 1125.94 542.356C1104.34 553.492 1083.71 566.211 1063.19 579.163C1053.47 585.299 1043.46 590.971 1032.58 596.854ZM1142.58 517.854C1145.89 516.187 1149.3 514.702 1152.48 512.807C1156.34 510.505 1160.52 508.259 1160.57 502.824C1160.86 469.434 1159.91 436.041 1162.19 402.649C1162.66 395.717 1161.31 388.653 1162.11 381.287C1163.8 365.868 1161.88 350.471 1162.49 335.002C1162.79 327.349 1162.46 319.673 1162.63 312.012C1162.7 309.046 1163.85 306.086 1163.78 303.139C1163.55 292.981 1160.9 282.357 1163.05 272.783C1166.65 256.756 1164.22 240.885 1163.9 225.187C1163.63 212.305 1162.1 199.462 1163.87 186.55C1164.18 184.32 1162.42 182.97 1160.36 184.164C1156.83 186.202 1153.62 188.782 1150.1 190.819C1140.7 196.253 1130.67 200.77 1121.91 207.066C1113.24 213.294 1102.68 216.097 1095.04 224.533C1089.89 230.216 1081.44 232.967 1074.35 236.825C1065.39 241.704 1056.28 246.302 1047.3 251.16C1039.67 255.292 1032.11 259.559 1024.58 263.874C1012.45 270.821 1000.43 277.96 988.259 284.826C975.036 292.283 961.585 299.337 948.436 306.919C939.783 311.908 931.611 317.729 923.003 322.803C911.245 329.732 899.067 335.968 887.511 343.206C883.294 345.848 879.825 349.599 880.367 356.216C881.789 373.546 881.012 390.95 882.097 408.388C884.584 448.337 881.058 488.461 884.245 528.529C885.482 544.083 884.157 559.923 883.086 575.698C881.241 602.9 882.575 630.318 882.575 657.645C882.575 658.978 882.038 660.778 882.699 661.537C883.74 662.733 883.935 665.787 887.504 663.232C895.856 657.253 904.723 651.934 913.679 646.874C922.546 641.865 931.92 637.753 940.812 632.783C949.78 627.771 958.312 621.982 967.24 616.895C988.524 604.768 1010.18 593.261 1031.12 580.576C1036.57 577.277 1043.41 576.395 1047.61 572.322C1055.39 564.762 1065.77 562.579 1074.41 556.974C1084.56 550.391 1095.32 544.747 1105.78 538.637C1117.55 531.758 1128.63 523.616 1142.58 517.854ZM308.575 435.854C307.962 444.579 309.638 453.328 306.83 462.098C305.379 466.63 305.062 472.666 306.885 476.873C310.905 486.154 306.118 495.369 308.095 504.608C308.616 507.04 309.261 510.72 308.589 513.846C307.862 517.221 306.891 520.596 306.661 524.014C306.35 528.64 306.413 533.324 306.745 537.952C307.067 542.439 306.021 546.886 306.615 551.33C306.987 554.114 308.155 556.837 308.226 559.607C308.324 563.4 307.76 567.215 307.398 571.013C307.217 572.905 306.206 574.969 306.689 576.63C308.655 583.39 308.807 590.269 308.524 597.163C308.235 604.212 306.635 610.864 307.56 618.376C309.102 630.902 307.082 643.865 306.581 656.645C306.426 660.591 306.7 662.04 311.353 659.351C322.842 652.712 334.92 647.104 346.613 640.805C354.81 636.39 362.821 631.619 370.799 626.813C374.833 624.382 378.397 621.119 382.544 618.934C392.364 613.757 402.51 609.197 412.333 604.024C426.325 596.655 437.866 584.99 453.642 580.645C456.835 579.766 460.224 578.038 462.513 575.709C471.357 566.715 483.186 562.852 493.691 556.729C506.575 549.218 519.433 541.662 532.303 534.126C546.781 525.648 561.176 517.022 575.784 508.774C580.757 505.965 582.847 502.86 582.775 496.702C582.364 461.393 582.575 426.077 582.575 390.764C582.575 388.765 583.321 386.334 582.454 384.837C576.875 375.211 583.353 365.237 581.292 355.378C580.133 349.839 582.662 343.638 582.467 337.77C581.689 314.395 584.341 290.983 580.831 267.596C579.549 259.059 581.372 250.156 580.844 241.291C579.893 225.357 580.575 209.325 580.575 193.334C580.575 191.335 580.981 189.226 580.476 187.364C579.793 184.85 579.631 182.008 575.147 184.989C561.66 193.956 547.755 202.317 533.796 210.545C520.175 218.572 506.107 225.847 492.568 234.003C480.592 241.218 469.05 249.075 456.281 255.002C448.703 258.519 441.773 263.45 434.612 267.844C428.755 271.438 423.159 275.489 417.147 278.791C403.327 286.382 389.197 293.41 375.426 301.087C355.103 312.417 335.088 324.301 314.698 335.507C310.088 338.041 308.355 340.514 308.417 345.905C308.751 375.218 308.575 404.537 308.575 435.854ZM341.575 90.8538C338.183 90.1871 334.798 88.9879 331.397 88.9445C315.403 88.7405 299.393 88.5099 283.413 89.0204C276.886 89.2289 270.412 91.253 263.925 92.5123C251.092 95.0038 239.126 99.9656 226.951 104.603C211.936 110.322 198.766 118.47 187.249 129.35C181.589 134.697 176.989 141.148 171.573 146.777C160.831 157.942 157.745 174.816 163.604 188.98C168.577 201.002 177.616 209.018 187.442 217.045C208.079 233.903 232.067 241.105 257.824 242.597C274.476 243.562 291.37 244.235 307.966 240.828C318.075 238.753 328.544 237.53 338.12 233.961C353.242 228.325 367.994 221.501 380.55 210.879C383.35 208.51 383.489 208.626 380.448 206.861C376.69 204.68 372.847 202.642 369.136 200.387C358.744 194.074 348.51 187.494 338.01 181.367C325.962 174.334 313.803 167.468 301.416 161.062C299.403 160.021 296.922 157.751 292.979 160.569C285.232 166.106 276.268 169.925 267.89 174.604C265.422 175.982 263.234 177.861 260.918 179.511C263.201 180.689 265.516 181.81 267.76 183.057C272.37 185.62 276.977 188.192 281.522 190.867C289.835 195.759 298.112 200.711 306.371 205.694C307.202 206.195 307.802 207.08 308.509 207.787C307.701 208.143 306.924 208.671 306.079 208.828C294.333 211.002 283.117 213.687 270.475 211.416C255.778 208.777 242.108 204.72 228.803 198.238C217.935 192.943 215.914 181.841 210.633 172.848C210.196 172.105 210.288 170.773 210.621 169.9C213.312 162.851 215.812 155.811 221.811 150.502C235.39 138.487 249.357 128.003 267.937 124.019C279.559 121.527 291.21 119.062 302.908 116.984C310.59 115.62 317.817 119.512 325.26 120.601C339.678 122.711 351.849 128.217 361.73 138.96C369.369 147.266 372.943 156.316 368.956 167.626C367.666 171.286 367.422 174.952 373.711 175.214C378.556 175.417 383.277 177.77 388.13 178.808C396.12 180.518 404.544 180.952 412.082 183.79C418.09 186.052 419.654 183.771 421.138 179.278C424.367 169.509 428.253 160.284 426.962 149.148C425.498 136.527 419.014 127.693 410.447 119.955C401.135 111.543 389.989 105.66 378.397 100.925C367.178 96.3426 355.834 91.9508 341.575 90.8538ZM752.575 495.854C747.642 507.59 743.179 509.585 732.732 503.856C727.781 501.14 723.143 497.677 718.832 494.002C704.986 482.202 695.932 467.001 688.518 450.617C684.372 441.457 683.963 441.565 674.021 444.367C670.417 445.383 666.73 446.607 663.047 446.726C656.798 446.929 658.177 449.204 659.92 453.403C664.416 464.233 668.741 475.147 674.641 485.282C682.293 498.425 689.713 511.814 701.076 522.314C706.815 527.618 712.975 532.479 718.563 537.931C731.159 550.22 747.356 553.735 763.721 556.541C767.527 557.194 772.71 556.584 775.627 554.387C784.174 547.953 790.825 539.484 792.469 528.565C795.843 506.162 787.966 485.83 778.251 466.566C772.624 455.408 764.366 445.364 756.192 435.754C745.749 423.476 734.143 412.192 723.145 400.381C717.366 394.175 711.276 388.149 706.312 381.325C701.479 374.682 699.258 366.887 702.594 358.594C704.09 354.875 709.26 352.183 712.393 353.747C723.284 359.181 733.69 365.5 741.525 374.981C746.522 381.028 751.312 387.482 754.823 394.445C757.737 400.225 761.495 401.652 767.175 400.869C772.553 400.129 777.987 399.729 783.326 398.786C787.428 398.062 788.411 395.216 786.587 391.16C780.55 377.738 771.851 365.902 764.416 353.318C759.334 344.717 753.249 337.128 745.64 331.291C734.735 322.925 722.82 315.848 711.13 308.55C707.251 306.128 702.897 303.739 698.486 303.021C677.714 299.641 662.859 313.334 660.804 334.049C660.052 341.63 661.944 349.466 662.566 357.191C663.303 366.331 665.572 374.981 669.838 383.177C678.812 400.418 690.625 415.698 703.236 430.256C715.318 444.202 728.97 456.786 741.079 470.711C746.688 477.162 753.963 483.583 752.575 495.854Z" fill="white"/>
<path d="M1075.08 291.354C1079.41 288.853 1083.46 287.171 1087.03 284.766C1090.78 282.237 1093.07 284.061 1092.33 287.232C1091.01 292.884 1093.35 298.124 1092.72 303.644C1092.08 309.236 1092.16 314.997 1092.7 320.611C1093.18 325.723 1090.66 328.439 1086.89 330.869C1075.57 338.159 1064.29 345.513 1053.01 352.858C1049.59 355.083 1045.95 357.066 1042.93 359.747C1041.51 361.01 1040.68 363.662 1040.67 365.689C1040.54 404.343 1039.73 443.027 1041.06 481.637C1041.49 494.314 1041.84 507.1 1042.67 519.807C1043.12 526.844 1039.88 531.955 1034.73 535.454C1027.31 540.497 1019.29 544.692 1011.37 548.972C1007.06 551.305 1004.95 550.192 1004.63 545.677C1004.35 541.698 1004.58 537.684 1004.58 533.685C1004.58 510.692 1004.66 487.698 1004.49 464.706C1004.46 460.979 1003.44 457.21 1002.53 453.55C1001.23 448.389 1002.16 444.324 1002.58 438.2C1003.13 429.935 1004.03 423.415 1004.44 416.028C1004.99 406.061 1004.54 396.041 1004.59 386.044C1004.61 382.668 1003.67 381.806 1000.57 383.804C991.643 389.556 982.367 394.801 973.735 400.953C969.634 403.875 961.852 410.576 961.852 410.576C961.852 410.576 959.054 410.271 958.716 409.591C958.185 408.522 958.657 406.989 958.561 405.663C957.864 396.054 958.35 387.509 958.429 378.326C958.456 375.276 956.089 371.891 956.837 369.233C958.058 364.893 960.471 361.318 965.227 358.609C983.098 348.43 1000.43 337.307 1017.93 326.48C1034.92 315.974 1051.85 305.386 1068.83 294.872C1070.66 293.736 1072.66 292.854 1075.08 291.354Z" fill="white"/>
<path d="M426.576 492.854C426.576 495.852 426.811 497.888 426.498 499.836C426.266 501.274 425.319 502.596 424.691 503.969C426.291 503.597 428.041 503.519 429.462 502.796C433.052 500.97 436.536 498.923 439.989 496.842C456.519 486.88 473.045 476.912 489.518 466.858C492.214 465.212 494.585 463.044 497.2 461.255C503.465 456.971 509.597 458.947 510.336 466.417C511.07 473.821 509.884 481.419 509.464 488.928C509.414 489.814 508.478 490.756 508.637 491.533C510.858 502.434 502.87 506.433 495.603 510.791C475.869 522.627 456.15 534.491 436.272 546.079C423.966 553.253 411.393 559.969 398.904 566.824C397.299 567.705 395.528 568.501 393.744 568.797C387.299 569.866 386.589 569.229 386.587 562.455C386.567 496.839 386.667 431.222 386.458 365.606C386.432 357.559 391.653 354.317 397.098 350.883C411.608 341.731 426.141 332.612 440.795 323.694C451.407 317.236 462.296 311.236 472.931 304.816C480.953 299.973 488.692 294.66 496.726 289.837C498.905 288.529 502.255 286.978 504.075 287.783C506.763 288.972 508.956 291.541 508.723 295.675C508.236 304.308 508.208 313.009 508.726 321.638C508.996 326.142 506.594 328.699 503.71 330.545C491.907 338.099 479.946 345.419 467.853 352.5C455.821 359.545 443.459 366.031 431.473 373.152C428.554 374.886 426.236 377.552 426.428 382.029C426.886 392.668 426.517 403.34 426.599 413.998C426.643 419.838 426.997 420.092 432.445 416.814C443.93 409.906 455.309 402.819 466.681 395.724C474.105 391.093 481.408 386.267 488.832 381.636C492.12 379.585 494.5 380.701 494.535 384.36C494.645 395.684 494.525 407.01 494.608 418.334C494.631 421.575 493.679 423.356 490.429 425.018C481.595 429.536 473.129 434.785 464.59 439.865C452.822 446.864 441.109 453.955 429.4 461.054C426.864 462.591 426.422 464.968 426.501 467.868C426.718 475.858 426.576 483.858 426.576 492.854Z" fill="white"/>
</svg>
