<svg width="1177" height="683" viewBox="0 0 1177 683" fill="none" xmlns="http://www.w3.org/2000/svg">
<path d="M1032.32 596.114C1029.87 597.448 1028.63 599.17 1026.95 600.054C1010.26 608.82 993.378 617.23 976.795 626.188C965.009 632.554 953.326 639.098 942.305 646.854C935.793 651.437 928.065 654.258 921.044 658.16C914.518 661.787 908.268 665.911 901.778 669.608C894.514 673.746 887.236 677.894 879.734 681.569C874.917 683.929 870.227 680.857 866.348 678.838C855.331 673.102 844.8 666.434 834.089 660.111C823.643 653.945 813.188 647.791 802.783 641.555C795.83 637.388 789.051 632.924 782.031 628.874C761.868 617.241 741.707 605.597 721.366 594.279C713.293 589.787 704.803 586.026 696.408 582.139C679.21 574.178 664.401 562.529 648.944 551.853C642.553 547.439 635.641 543.779 628.972 539.766C617.233 532.7 605.584 525.48 593.712 518.645C590.031 516.525 586.955 515.522 581.858 518.957C566.696 529.178 550.325 537.592 534.554 546.929C517.672 556.924 501.029 567.323 484.105 577.245C471.807 584.455 459.196 591.129 446.772 598.128C433.254 605.743 419.715 613.327 406.325 621.164C391.282 629.968 376.561 639.333 361.398 647.919C342.539 658.599 323.358 668.711 304.34 679.111C297.553 682.822 292.367 679.764 292.339 671.795C292.277 654.131 292.451 636.465 292.257 618.803C292.175 611.352 292.348 603.909 292.325 596.462C292.3 588.463 292.319 580.464 292.319 572.465C292.319 564.466 292.319 556.468 292.319 548.469C292.319 540.47 292.319 532.471 292.319 524.472C292.319 516.473 292.319 508.474 292.319 500.475C292.319 492.476 292.319 484.477 292.319 476.478C292.319 468.48 292.319 460.481 292.319 452.482C292.319 444.483 291.43 436.365 292.483 428.507C295.924 402.811 293.647 377.044 294.271 351.323C294.554 339.71 294.226 339.862 284.45 334.084C258.734 318.883 233.17 303.427 207.425 288.278C190.033 278.044 172.341 268.321 154.958 258.074C131.897 244.48 109.06 230.506 86.0129 216.888C78.2935 212.327 70.2157 208.374 62.319 204.111C47.0643 195.876 31.8639 187.538 16.5378 179.438C13.5751 177.873 10.0478 177.41 6.9544 176.046C4.60039 175.008 0.702687 173.325 0.7188 171.968C0.747608 169.552 2.74956 166.616 4.77227 164.887C8.28923 161.882 13.1115 161.294 17.1868 158.643C38.6204 144.701 61.1712 132.424 82.1987 117.922C119.948 91.888 161.713 73.4366 201.896 51.9702C221.355 41.5755 240.004 29.6665 259.006 18.4199C268.914 12.556 278.646 6.3695 288.789 0.949638C291.211 -0.344185 295.672 -0.32917 297.984 1.07598C317.609 13.001 338.144 23.2314 358.212 34.3185C381.365 47.1097 403.634 61.4956 426.336 75.1086C443.679 85.5087 461.129 95.7289 478.472 106.13C496.102 116.703 513.421 127.822 531.326 137.902C544.483 145.308 558.486 151.196 571.871 158.22C577.678 161.267 582.841 165.526 588.364 169.131C593.071 172.203 597.757 175.338 602.658 178.076C619.428 187.442 636.107 196.997 653.159 205.824C676.689 218.004 699.533 231.369 721.251 246.439C732.109 253.973 743.733 259.766 755.044 266.315C769.838 274.88 785.409 281.978 799.572 291.844C811.961 300.475 826.458 306.04 839.104 314.358C848.525 320.556 857.83 326.854 867.816 332.09C872.232 334.406 872.809 334.446 877.122 332.073C882.299 329.225 887.278 326.021 892.393 323.059C899.914 318.703 907.525 314.503 915.016 310.098C930.032 301.268 944.885 292.154 960.011 283.518C971.832 276.768 984.075 270.758 995.93 264.064C1010 256.117 1023.89 247.848 1037.8 239.61C1052.79 230.726 1067.62 221.555 1082.69 212.798C1107.66 198.289 1132.67 183.849 1157.91 169.839C1161.13 168.052 1166.21 167.941 1169.82 169.044C1172.85 169.972 1174.63 173.471 1174.53 177.892C1174.3 187.28 1175.14 196.729 1175.69 206.092C1176.24 215.369 1177.09 224.914 1176.46 234.403C1175.82 244.026 1176.32 253.725 1176.32 263.39C1176.32 274.055 1176.14 284.725 1176.41 295.383C1176.77 309.396 1176.78 321.537 1176.36 335.724C1175.59 361.775 1175.08 387.833 1174.25 413.882C1174.04 420.619 1172.56 427.322 1172.44 434.055C1172.3 441.127 1173.33 448.284 1173.72 455.255C1174.16 463.222 1174.94 471.421 1174.44 479.568C1173.91 488.201 1174.52 496.898 1174.26 505.555C1173.99 514.364 1171.56 517.121 1163.81 520.194C1159.24 522.008 1154.87 524.431 1150.6 526.897C1142.24 531.716 1134.24 537.204 1125.68 541.617C1104.09 552.753 1083.46 565.471 1062.94 578.423C1053.22 584.56 1043.2 590.232 1032.32 596.114ZM1142.32 517.114C1145.63 515.448 1149.05 513.963 1152.22 512.068C1156.08 509.766 1160.27 507.52 1160.31 502.085C1160.6 468.694 1159.65 435.302 1161.94 401.91C1162.41 394.978 1161.05 387.914 1161.86 380.548C1163.54 365.129 1161.62 349.731 1162.23 334.263C1162.53 326.609 1162.2 318.933 1162.38 311.273C1162.45 308.307 1163.59 305.346 1163.53 302.4C1163.3 292.242 1160.64 281.618 1162.79 272.044C1166.39 256.017 1163.97 240.146 1163.64 224.448C1163.38 211.565 1161.84 198.722 1163.62 185.81C1163.92 183.581 1162.17 182.231 1160.1 183.425C1156.58 185.462 1153.37 188.042 1149.85 190.08C1140.45 195.514 1130.42 200.03 1121.65 206.327C1112.99 212.555 1102.43 215.358 1094.78 223.794C1089.63 229.477 1081.18 232.228 1074.1 236.086C1065.14 240.965 1056.02 245.563 1047.05 250.42C1039.41 254.552 1031.85 258.82 1024.32 263.135C1012.19 270.082 1000.18 277.221 988.003 284.086C974.781 291.544 961.329 298.598 948.18 306.179C939.527 311.169 931.356 316.99 922.747 322.064C910.99 328.993 898.811 335.228 887.255 342.467C883.038 345.108 879.569 348.86 880.111 355.477C881.533 372.807 880.756 390.21 881.842 407.649C884.328 447.598 880.802 487.721 883.989 527.79C885.226 543.344 883.901 559.184 882.831 574.959C880.985 602.161 882.319 629.578 882.319 656.906C882.319 658.239 881.783 660.039 882.443 660.797C883.484 661.994 883.679 665.048 887.248 662.493C895.6 656.514 904.467 651.195 913.423 646.135C922.291 641.125 931.664 637.014 940.556 632.044C949.524 627.031 958.056 621.243 966.984 616.155C988.269 604.028 1009.92 592.521 1030.86 579.837C1036.31 576.538 1043.16 575.656 1047.35 571.583C1055.14 564.023 1065.51 561.839 1074.16 556.235C1084.31 549.652 1095.06 544.008 1105.52 537.898C1117.3 531.019 1128.37 522.877 1142.32 517.114ZM308.319 435.114C307.706 443.839 309.383 452.588 306.575 461.358C305.123 465.891 304.806 471.926 306.629 476.134C310.649 485.415 305.862 494.63 307.84 503.869C308.36 506.3 309.005 509.98 308.333 513.106C307.607 516.482 306.635 519.857 306.405 523.274C306.094 527.901 306.157 532.585 306.489 537.213C306.811 541.699 305.765 546.147 306.359 550.59C306.731 553.375 307.899 556.098 307.97 558.868C308.068 562.661 307.504 566.476 307.142 570.273C306.961 572.166 305.95 574.23 306.433 575.891C308.399 582.651 308.551 589.529 308.268 596.424C307.979 603.472 306.379 610.125 307.304 617.637C308.847 630.163 306.826 643.126 306.325 655.906C306.17 659.851 306.444 661.301 311.097 658.612C322.586 651.972 334.664 646.364 346.357 640.066C354.554 635.651 362.565 630.879 370.543 626.073C374.577 623.642 378.141 620.38 382.288 618.195C392.108 613.018 402.254 608.458 412.077 603.284C426.069 595.915 437.61 584.25 453.386 579.906C456.58 579.026 459.968 577.298 462.258 574.97C471.101 565.976 482.931 562.113 493.435 555.99C506.319 548.479 519.177 540.923 532.047 533.387C546.525 524.909 560.92 516.283 575.528 508.034C580.501 505.226 582.591 502.121 582.519 495.963C582.108 460.654 582.319 425.338 582.319 390.024C582.319 388.026 583.065 385.594 582.198 384.098C576.619 374.471 583.098 364.498 581.036 354.638C579.878 349.1 582.406 342.898 582.211 337.031C581.434 313.656 584.085 290.243 580.575 266.857C579.293 258.319 581.117 249.417 580.588 240.552C579.637 224.617 580.319 208.586 580.319 192.595C580.319 190.596 580.725 188.487 580.22 186.625C579.537 184.111 579.375 181.269 574.891 184.25C561.404 193.217 547.5 201.578 533.54 209.805C519.919 217.833 505.851 225.108 492.312 233.264C480.336 240.479 468.794 248.336 456.025 254.262C448.447 257.78 441.517 262.711 434.356 267.105C428.499 270.699 422.903 274.75 416.891 278.052C403.071 285.643 388.941 292.671 375.171 300.348C354.848 311.678 334.832 323.562 314.443 334.768C309.832 337.302 308.099 339.775 308.161 345.165C308.495 374.479 308.319 403.797 308.319 435.114ZM341.319 90.1145C337.927 89.4478 334.542 88.2486 331.142 88.2053C315.147 88.0013 299.138 87.7706 283.157 88.2812C276.63 88.4897 270.156 90.5138 263.669 91.7731C250.837 94.2646 238.87 99.2264 226.695 103.864C211.68 109.583 198.51 117.73 186.993 128.611C181.333 133.958 176.733 140.409 171.317 146.038C160.575 157.202 157.489 174.077 163.348 188.241C168.322 200.262 177.36 208.279 187.187 216.306C207.823 233.163 231.811 240.366 257.568 241.858C274.22 242.823 291.114 243.495 307.71 240.089C317.819 238.014 328.288 236.791 337.864 233.222C352.986 227.586 367.738 220.762 380.294 210.139C383.094 207.771 383.233 207.886 380.192 206.122C376.434 203.941 372.591 201.903 368.88 199.648C358.488 193.334 348.254 186.755 337.755 180.627C325.706 173.595 313.547 166.729 301.16 160.323C299.147 159.281 296.666 157.012 292.723 159.83C284.976 165.367 276.012 169.186 267.634 173.865C265.166 175.243 262.978 177.122 260.662 178.772C262.945 179.95 265.26 181.07 267.504 182.318C272.114 184.881 276.721 187.452 281.266 190.127C289.579 195.02 297.857 199.971 306.115 204.955C306.946 205.456 307.546 206.341 308.253 207.048C307.445 207.403 306.668 207.932 305.823 208.088C294.077 210.263 282.861 212.948 270.22 210.677C255.522 208.037 241.852 203.981 228.547 197.499C217.679 192.204 215.658 181.101 210.377 172.109C209.94 171.366 210.032 170.033 210.365 169.161C213.056 162.111 215.556 155.072 221.555 149.763C235.134 137.748 249.101 127.264 267.681 123.279C279.303 120.787 290.955 118.323 302.652 116.245C310.334 114.881 317.561 118.772 325.004 119.862C339.423 121.972 351.594 127.477 361.474 138.221C369.113 146.527 372.687 155.577 368.7 166.886C367.41 170.547 367.167 174.212 373.455 174.475C378.3 174.677 383.021 177.031 387.874 178.069C395.865 179.778 404.288 180.213 411.826 183.051C417.834 185.313 419.398 183.032 420.883 178.539C424.111 168.77 427.997 159.545 426.706 148.408C425.242 135.788 418.758 126.954 410.192 119.216C400.879 110.804 389.733 104.92 378.141 100.186C366.922 95.6033 355.578 91.2115 341.319 90.1145ZM752.319 495.114C747.386 506.851 742.923 508.846 732.477 503.116C727.525 500.401 722.888 496.937 718.576 493.263C704.73 481.462 695.676 466.262 688.262 449.878C684.117 440.717 683.707 440.826 673.765 443.628C670.161 444.643 666.474 445.867 662.791 445.987C656.542 446.189 657.921 448.465 659.664 452.664C664.16 463.494 668.485 474.408 674.385 484.542C682.037 497.686 689.457 511.075 700.82 521.575C706.56 526.878 712.719 531.74 718.307 537.192C730.903 549.481 747.1 552.996 763.465 555.802C767.272 556.455 772.454 555.845 775.371 553.648C783.918 547.214 790.569 538.744 792.213 527.826C795.587 505.423 787.71 485.09 777.995 465.827C772.368 454.668 764.11 444.625 755.936 435.015C745.493 422.737 733.888 411.453 722.889 399.642C717.11 393.436 711.02 387.41 706.056 380.586C701.223 373.942 699.002 366.148 702.338 357.855C703.834 354.136 709.005 351.444 712.137 353.007C723.029 358.442 733.434 364.76 741.269 374.242C746.266 380.288 751.057 386.743 754.567 393.706C757.481 399.486 761.239 400.913 766.919 400.13C772.297 399.389 777.731 398.99 783.071 398.047C787.172 397.322 788.155 394.476 786.331 390.421C780.294 376.999 771.595 365.163 764.16 352.579C759.078 343.978 752.993 336.388 745.384 330.552C734.479 322.186 722.564 315.108 710.874 307.811C706.995 305.389 702.641 303 698.23 302.282C677.458 298.902 662.603 312.594 660.548 333.31C659.796 340.891 661.688 348.727 662.31 356.452C663.047 365.592 665.316 374.242 669.582 382.438C678.556 399.679 690.369 414.959 702.98 429.517C715.062 443.463 728.714 456.047 740.823 469.972C746.432 476.422 753.707 482.844 752.319 495.114Z" fill="#1E1818"/>
<path d="M1074.82 290.614C1079.16 288.114 1083.21 286.432 1086.77 284.027C1090.52 281.498 1092.81 283.322 1092.07 286.493C1090.75 292.145 1093.09 297.385 1092.46 302.905C1091.82 308.497 1091.91 314.258 1092.44 319.872C1092.93 324.983 1090.41 327.7 1086.64 330.13C1075.32 337.42 1064.04 344.773 1052.75 352.119C1049.34 354.344 1045.69 356.326 1042.67 359.008C1041.25 360.271 1040.42 362.923 1040.41 364.949C1040.29 403.604 1039.47 442.288 1040.8 480.898C1041.24 493.575 1041.58 506.36 1042.41 519.068C1042.87 526.105 1039.63 531.216 1034.48 534.715C1027.05 539.758 1019.03 543.953 1011.11 548.233C1006.8 550.565 1004.69 549.453 1004.38 544.938C1004.1 540.959 1004.32 536.944 1004.32 532.946C1004.32 509.953 1004.41 486.959 1004.23 463.967C1004.2 460.24 1003.19 456.471 1002.27 452.811C1000.98 447.65 1001.91 443.585 1002.32 437.461C1002.87 429.196 1003.78 422.676 1004.18 415.288C1004.73 405.321 1004.29 395.302 1004.34 385.305C1004.35 381.928 1003.41 381.066 1000.31 383.065C991.387 388.817 982.112 394.061 973.479 400.214C969.378 403.136 961.596 409.837 961.596 409.837C961.596 409.837 958.799 409.532 958.46 408.851C957.929 407.783 958.401 406.25 958.305 404.924C957.608 395.315 958.094 386.77 958.174 377.587C958.2 374.537 955.833 371.151 956.581 368.493C957.802 364.154 960.215 360.579 964.971 357.87C982.842 347.691 1000.18 336.568 1017.68 325.741C1034.66 315.235 1051.59 304.647 1068.57 294.133C1070.41 292.996 1072.4 292.114 1074.82 290.614Z" fill="#1E1818"/>
<path d="M426.32 492.114C426.32 495.113 426.555 497.149 426.242 499.097C426.01 500.534 425.063 501.856 424.435 503.23C426.035 502.858 427.785 502.78 429.206 502.057C432.796 500.231 436.28 498.183 439.733 496.102C456.263 486.141 472.789 476.173 489.262 466.118C491.958 464.473 494.329 462.305 496.944 460.516C503.209 456.232 509.341 458.208 510.081 465.678C510.814 473.082 509.628 480.68 509.208 488.189C509.158 489.075 508.223 490.017 508.381 490.793C510.602 501.694 502.614 505.693 495.347 510.052C475.613 521.888 455.895 533.752 436.016 545.34C423.711 552.514 411.137 559.23 398.648 566.085C397.043 566.966 395.272 567.762 393.488 568.058C387.044 569.127 386.333 568.489 386.332 561.716C386.311 496.1 386.411 430.483 386.202 364.867C386.176 356.819 391.397 353.578 396.842 350.143C411.353 340.992 425.885 331.872 440.539 322.954C451.151 316.497 462.04 310.497 472.675 304.077C480.697 299.234 488.436 293.92 496.47 289.098C498.649 287.79 501.999 286.239 503.819 287.043C506.507 288.232 508.7 290.801 508.467 294.936C507.98 303.569 507.953 312.27 508.47 320.899C508.741 325.403 506.339 327.96 503.454 329.806C491.651 337.359 479.69 344.679 467.598 351.76C455.565 358.806 443.203 365.292 431.217 372.413C428.298 374.146 425.98 376.813 426.172 381.29C426.63 391.928 426.262 402.601 426.343 413.259C426.387 419.099 426.741 419.353 432.19 416.075C443.675 409.166 455.053 402.079 466.425 394.985C473.849 390.354 481.152 385.528 488.577 380.897C491.864 378.846 494.244 379.962 494.28 383.621C494.389 394.945 494.269 406.27 494.352 417.595C494.375 420.835 493.423 422.617 490.173 424.279C481.339 428.797 472.874 434.046 464.334 439.125C452.566 446.125 440.853 453.216 429.145 460.315C426.608 461.852 426.166 464.229 426.245 467.129C426.462 475.119 426.32 483.118 426.32 492.114Z" fill="#1E1818"/>
</svg>
