<svg width="1177" height="683" viewBox="0 0 1177 683" fill="none" xmlns="http://www.w3.org/2000/svg">
<path d="M1032.33 596.114C1029.89 597.448 1028.64 599.17 1026.96 600.054C1010.27 608.82 993.393 617.23 976.81 626.188C965.024 632.554 953.341 639.098 942.32 646.854C935.808 651.437 928.08 654.258 921.06 658.16C914.533 661.787 908.284 665.911 901.794 669.608C894.529 673.746 887.251 677.894 879.75 681.569C874.932 683.929 870.242 680.857 866.363 678.838C855.346 673.102 844.815 666.434 834.105 660.111C823.658 653.945 813.203 647.791 802.798 641.555C795.845 637.388 789.066 632.924 782.046 628.874C761.883 617.241 741.722 605.597 721.381 594.279C713.308 589.787 704.819 586.026 696.423 582.139C679.225 574.178 664.416 562.529 648.959 551.853C642.568 547.439 635.656 543.779 628.988 539.766C617.248 532.7 605.599 525.48 593.728 518.645C590.046 516.525 586.97 515.522 581.873 518.957C566.711 529.178 550.34 537.592 534.569 546.929C517.687 556.924 501.044 567.323 484.12 577.245C471.822 584.455 459.211 591.129 446.788 598.128C433.269 605.743 419.73 613.327 406.34 621.164C391.297 629.968 376.577 639.333 361.413 647.919C342.554 658.599 323.374 668.711 304.355 679.111C297.568 682.822 292.382 679.764 292.354 671.795C292.292 654.131 292.467 636.465 292.272 618.803C292.19 611.352 292.363 603.909 292.34 596.462C292.316 588.463 292.335 580.464 292.335 572.465C292.335 564.466 292.335 556.468 292.335 548.469C292.335 540.47 292.335 532.471 292.335 524.472C292.335 516.473 292.335 508.474 292.335 500.475C292.335 492.476 292.335 484.477 292.335 476.478C292.335 468.48 292.335 460.481 292.335 452.482C292.335 444.483 291.445 436.365 292.498 428.507C295.939 402.811 293.662 377.044 294.287 351.323C294.569 339.71 294.241 339.862 284.465 334.084C258.749 318.883 233.185 303.427 207.44 288.278C190.048 278.044 172.356 268.321 154.973 258.074C131.912 244.48 109.075 230.506 86.028 216.888C78.3086 212.327 70.2309 208.374 62.3342 204.111C47.0794 195.876 31.8791 187.538 16.5529 179.438C13.5903 177.873 10.0629 177.41 6.96953 176.046C4.61553 175.008 0.717824 173.325 0.733937 171.968C0.762745 169.552 2.7647 166.616 4.7874 164.887C8.30437 161.882 13.1266 161.294 17.202 158.643C38.6355 144.701 61.1863 132.424 82.2138 117.922C119.963 91.888 161.728 73.4366 201.912 51.9702C221.37 41.5755 240.019 29.6665 259.021 18.4199C268.929 12.556 278.661 6.3695 288.805 0.949638C291.226 -0.344185 295.687 -0.32917 297.999 1.07598C317.624 13.001 338.159 23.2314 358.227 34.3185C381.38 47.1097 403.649 61.4956 426.351 75.1086C443.694 85.5087 461.145 95.7289 478.487 106.13C496.117 116.703 513.436 127.822 531.341 137.902C544.498 145.308 558.501 151.196 571.886 158.22C577.693 161.267 582.856 165.526 588.38 169.131C593.087 172.203 597.772 175.338 602.674 178.076C619.443 187.442 636.122 196.997 653.174 205.824C676.704 218.004 699.548 231.369 721.266 246.439C732.124 253.973 743.748 259.766 755.059 266.315C769.853 274.88 785.424 281.978 799.587 291.844C811.977 300.475 826.473 306.04 839.119 314.358C848.541 320.556 857.845 326.854 867.831 332.09C872.247 334.406 872.824 334.446 877.137 332.073C882.314 329.225 887.293 326.021 892.408 323.059C899.929 318.703 907.54 314.503 915.031 310.098C930.047 301.268 944.9 292.154 960.026 283.518C971.847 276.768 984.09 270.758 995.945 264.064C1010.02 256.117 1023.91 247.848 1037.81 239.61C1052.81 230.726 1067.64 221.555 1082.71 212.798C1107.67 198.289 1132.68 183.849 1157.92 169.839C1161.14 168.052 1166.22 167.941 1169.83 169.044C1172.87 169.972 1174.65 173.471 1174.54 177.892C1174.32 187.28 1175.15 196.729 1175.71 206.092C1176.25 215.369 1177.1 224.914 1176.47 234.403C1175.84 244.026 1176.33 253.725 1176.33 263.39C1176.33 274.055 1176.15 284.725 1176.43 295.383C1176.78 309.396 1176.8 321.537 1176.38 335.724C1175.6 361.775 1175.1 387.833 1174.27 413.882C1174.05 420.619 1172.58 427.322 1172.45 434.055C1172.32 441.127 1173.34 448.284 1173.73 455.255C1174.18 463.222 1174.96 471.421 1174.45 479.568C1173.92 488.201 1174.54 496.898 1174.28 505.555C1174.01 514.364 1171.57 517.121 1163.83 520.194C1159.25 522.008 1154.89 524.431 1150.61 526.897C1142.25 531.716 1134.26 537.204 1125.7 541.617C1104.1 552.753 1083.47 565.471 1062.95 578.423C1053.23 584.56 1043.22 590.232 1032.33 596.114ZM1142.33 517.114C1145.65 515.448 1149.06 513.963 1152.24 512.068C1156.1 509.766 1160.28 507.52 1160.33 502.085C1160.62 468.694 1159.67 435.302 1161.95 401.91C1162.42 394.978 1161.07 387.914 1161.87 380.548C1163.56 365.129 1161.64 349.731 1162.24 334.263C1162.54 326.609 1162.22 318.933 1162.39 311.273C1162.46 308.307 1163.61 305.346 1163.54 302.4C1163.31 292.242 1160.66 281.618 1162.81 272.044C1166.41 256.017 1163.98 240.146 1163.66 224.448C1163.39 211.565 1161.86 198.722 1163.63 185.81C1163.94 183.581 1162.18 182.231 1160.12 183.425C1156.59 185.462 1153.38 188.042 1149.86 190.08C1140.46 195.514 1130.43 200.03 1121.67 206.327C1113 212.555 1102.44 215.358 1094.8 223.794C1089.65 229.477 1081.2 232.228 1074.11 236.086C1065.15 240.965 1056.04 245.563 1047.06 250.42C1039.43 254.552 1031.87 258.82 1024.34 263.135C1012.21 270.082 1000.19 277.221 988.018 284.086C974.796 291.544 961.344 298.598 948.195 306.179C939.542 311.169 931.371 316.99 922.762 322.064C911.005 328.993 898.826 335.228 887.27 342.467C883.053 345.108 879.584 348.86 880.127 355.477C881.548 372.807 880.772 390.21 881.857 407.649C884.343 447.598 880.817 487.721 884.004 527.79C885.241 543.344 883.916 559.184 882.846 574.959C881 602.161 882.335 629.578 882.335 656.906C882.335 658.239 881.798 660.039 882.458 660.797C883.499 661.994 883.694 665.048 887.263 662.493C895.615 656.514 904.482 651.195 913.438 646.135C922.306 641.125 931.679 637.014 940.571 632.044C949.539 627.031 958.071 621.243 966.999 616.155C988.284 604.028 1009.94 592.521 1030.88 579.837C1036.33 576.538 1043.17 575.656 1047.37 571.583C1055.15 564.023 1065.53 561.839 1074.17 556.235C1084.32 549.652 1095.08 544.008 1105.54 537.898C1117.31 531.019 1128.39 522.877 1142.33 517.114ZM308.335 435.114C307.721 443.839 309.398 452.588 306.59 461.358C305.138 465.891 304.821 471.926 306.644 476.134C310.664 485.415 305.877 494.63 307.855 503.869C308.375 506.3 309.02 509.98 308.348 513.106C307.622 516.482 306.65 519.857 306.42 523.274C306.109 527.901 306.172 532.585 306.504 537.213C306.826 541.699 305.78 546.147 306.374 550.59C306.746 553.375 307.914 556.098 307.985 558.868C308.083 562.661 307.519 566.476 307.157 570.273C306.977 572.166 305.965 574.23 306.448 575.891C308.414 582.651 308.566 589.529 308.284 596.424C307.994 603.472 306.394 610.125 307.319 617.637C308.862 630.163 306.841 643.126 306.34 655.906C306.185 659.851 306.459 661.301 311.113 658.612C322.601 651.972 334.68 646.364 346.372 640.066C354.569 635.651 362.581 630.879 370.558 626.073C374.592 623.642 378.157 620.38 382.303 618.195C392.124 613.018 402.269 608.458 412.092 603.284C426.084 595.915 437.625 584.25 453.401 579.906C456.595 579.026 459.983 577.298 462.273 574.97C471.116 565.976 482.946 562.113 493.45 555.99C506.334 548.479 519.192 540.923 532.062 533.387C546.54 524.909 560.935 516.283 575.543 508.034C580.517 505.226 582.606 502.121 582.534 495.963C582.123 460.654 582.335 425.338 582.335 390.024C582.335 388.026 583.081 385.594 582.213 384.098C576.634 374.471 583.113 364.498 581.051 354.638C579.893 349.1 582.421 342.898 582.226 337.031C581.449 313.656 584.101 290.243 580.59 266.857C579.308 258.319 581.132 249.417 580.603 240.552C579.653 224.617 580.335 208.586 580.335 192.595C580.335 190.596 580.741 188.487 580.235 186.625C579.552 184.111 579.39 181.269 574.906 184.25C561.419 193.217 547.515 201.578 533.555 209.805C519.935 217.833 505.867 225.108 492.327 233.264C480.351 240.479 468.809 248.336 456.04 254.262C448.462 257.78 441.532 262.711 434.371 267.105C428.514 270.699 422.918 274.75 416.906 278.052C403.086 285.643 388.956 292.671 375.186 300.348C354.863 311.678 334.847 323.562 314.458 334.768C309.848 337.302 308.115 339.775 308.176 345.165C308.51 374.479 308.335 403.797 308.335 435.114ZM341.335 90.1145C337.942 89.4478 334.557 88.2486 331.157 88.2053C315.162 88.0013 299.153 87.7706 283.172 88.2812C276.645 88.4897 270.171 90.5138 263.685 91.7731C250.852 94.2646 238.885 99.2264 226.71 103.864C211.695 109.583 198.525 117.73 187.008 128.611C181.348 133.958 176.748 140.409 171.332 146.038C160.59 157.202 157.504 174.077 163.363 188.241C168.337 200.262 177.375 208.279 187.202 216.306C207.838 233.163 231.826 240.366 257.583 241.858C274.235 242.823 291.129 243.495 307.725 240.089C317.834 238.014 328.303 236.791 337.879 233.222C353.001 227.586 367.753 220.762 380.309 210.139C383.109 207.771 383.248 207.886 380.207 206.122C376.449 203.941 372.607 201.903 368.895 199.648C358.504 193.334 348.269 186.755 337.77 180.627C325.721 173.595 313.562 166.729 301.175 160.323C299.162 159.281 296.681 157.012 292.738 159.83C284.991 165.367 276.027 169.186 267.649 173.865C265.182 175.243 262.994 177.122 260.677 178.772C262.96 179.95 265.275 181.07 267.519 182.318C272.129 184.881 276.736 187.452 281.281 190.127C289.594 195.02 297.872 199.971 306.131 204.955C306.962 205.456 307.561 206.341 308.268 207.048C307.46 207.403 306.684 207.932 305.838 208.088C294.093 210.263 282.877 212.948 270.235 210.677C255.537 208.037 241.867 203.981 228.563 197.499C217.695 192.204 215.673 181.101 210.392 172.109C209.956 171.366 210.047 170.033 210.38 169.161C213.072 162.111 215.571 155.072 221.57 149.763C235.149 137.748 249.116 127.264 267.696 123.279C279.319 120.787 290.97 118.323 302.667 116.245C310.349 114.881 317.576 118.772 325.019 119.862C339.438 121.972 351.609 127.477 361.49 138.221C369.128 146.527 372.702 155.577 368.716 166.886C367.425 170.547 367.182 174.212 373.47 174.475C378.315 174.677 383.036 177.031 387.889 178.069C395.88 179.778 404.303 180.213 411.841 183.051C417.849 185.313 419.413 183.032 420.898 178.539C424.126 168.77 428.013 159.545 426.721 148.408C425.258 135.788 418.773 126.954 410.207 119.216C400.894 110.804 389.749 104.92 378.156 100.186C366.937 95.6033 355.593 91.2115 341.335 90.1145ZM752.335 495.114C747.401 506.851 742.938 508.846 732.492 503.116C727.54 500.401 722.903 496.937 718.591 493.263C704.745 481.462 695.691 466.262 688.277 449.878C684.132 440.717 683.722 440.826 673.781 443.628C670.177 444.643 666.489 445.867 662.806 445.987C656.557 446.189 657.936 448.465 659.679 452.664C664.175 463.494 668.5 474.408 674.4 484.542C682.052 497.686 689.472 511.075 700.835 521.575C706.575 526.878 712.734 531.74 718.322 537.192C730.918 549.481 747.115 552.996 763.481 555.802C767.287 556.455 772.469 555.845 775.386 553.648C783.933 547.214 790.584 538.744 792.228 527.826C795.602 505.423 787.725 485.09 778.011 465.827C772.383 454.668 764.125 444.625 755.951 435.015C745.508 422.737 733.903 411.453 722.904 399.642C717.125 393.436 711.035 387.41 706.071 380.586C701.238 373.942 699.017 366.148 702.353 357.855C703.849 354.136 709.02 351.444 712.152 353.007C723.044 358.442 733.449 364.76 741.284 374.242C746.281 380.288 751.072 386.743 754.582 393.706C757.496 399.486 761.254 400.913 766.934 400.13C772.312 399.389 777.746 398.99 783.086 398.047C787.187 397.322 788.17 394.476 786.346 390.421C780.31 376.999 771.61 365.163 764.175 352.579C759.093 343.978 753.008 336.388 745.399 330.552C734.494 322.186 722.579 315.108 710.889 307.811C707.01 305.389 702.656 303 698.245 302.282C677.473 298.902 662.618 312.594 660.563 333.31C659.811 340.891 661.703 348.727 662.325 356.452C663.062 365.592 665.331 374.242 669.597 382.438C678.571 399.679 690.385 414.959 702.995 429.517C715.077 443.463 728.73 456.047 740.838 469.972C746.447 476.422 753.722 482.844 752.335 495.114Z" fill="black"/>
<path d="M1074.83 290.614C1079.17 288.114 1083.22 286.432 1086.79 284.027C1090.53 281.498 1092.83 283.322 1092.09 286.493C1090.77 292.145 1093.11 297.385 1092.48 302.905C1091.84 308.497 1091.92 314.258 1092.46 319.872C1092.94 324.983 1090.42 327.7 1086.65 330.13C1075.33 337.42 1064.05 344.773 1052.77 352.119C1049.35 354.344 1045.71 356.326 1042.69 359.008C1041.27 360.271 1040.44 362.923 1040.43 364.949C1040.3 403.604 1039.49 442.288 1040.82 480.898C1041.25 493.575 1041.6 506.36 1042.43 519.068C1042.88 526.105 1039.64 531.216 1034.49 534.715C1027.07 539.758 1019.05 543.953 1011.13 548.233C1006.82 550.565 1004.71 549.453 1004.39 544.938C1004.11 540.959 1004.33 536.944 1004.33 532.946C1004.33 509.953 1004.42 486.959 1004.24 463.967C1004.22 460.24 1003.2 456.471 1002.29 452.811C1000.99 447.65 1001.92 443.585 1002.33 437.461C1002.89 429.196 1003.79 422.676 1004.2 415.288C1004.75 405.321 1004.3 395.302 1004.35 385.305C1004.37 381.928 1003.43 381.066 1000.33 383.065C991.403 388.817 982.127 394.061 973.494 400.214C969.393 403.136 961.612 409.837 961.612 409.837C961.612 409.837 958.814 409.532 958.476 408.851C957.944 407.783 958.417 406.25 958.32 404.924C957.623 395.315 958.109 386.77 958.189 377.587C958.215 374.537 955.848 371.151 956.596 368.493C957.817 364.154 960.23 360.579 964.986 357.87C982.857 347.691 1000.19 336.568 1017.69 325.741C1034.68 315.235 1051.61 304.647 1068.59 294.133C1070.42 292.996 1072.42 292.114 1074.83 290.614Z" fill="black"/>
<path d="M426.335 492.114C426.335 495.113 426.57 497.149 426.257 499.097C426.026 500.534 425.078 501.856 424.45 503.23C426.05 502.858 427.8 502.78 429.221 502.057C432.811 500.231 436.296 498.183 439.749 496.102C456.278 486.141 472.804 476.173 489.277 466.118C491.973 464.473 494.344 462.305 496.959 460.516C503.224 456.232 509.356 458.208 510.096 465.678C510.829 473.082 509.644 480.68 509.223 488.189C509.174 489.075 508.238 490.017 508.396 490.793C510.617 501.694 502.629 505.693 495.362 510.052C475.629 521.888 455.91 533.752 436.031 545.34C423.726 552.514 411.153 559.23 398.663 566.085C397.059 566.966 395.287 567.762 393.503 568.058C387.059 569.127 386.349 568.489 386.347 561.716C386.327 496.1 386.426 430.483 386.217 364.867C386.191 356.819 391.412 353.578 396.858 350.143C411.368 340.992 425.9 331.872 440.554 322.954C451.166 316.497 462.056 310.497 472.69 304.077C480.712 299.234 488.452 293.92 496.485 289.098C498.664 287.79 502.014 286.239 503.834 287.043C506.522 288.232 508.715 290.801 508.482 294.936C507.996 303.569 507.968 312.27 508.485 320.899C508.756 325.403 506.354 327.96 503.469 329.806C491.666 337.359 479.706 344.679 467.613 351.76C455.58 358.806 443.218 365.292 431.232 372.413C428.313 374.146 425.995 376.813 426.187 381.29C426.645 391.928 426.277 402.601 426.358 413.259C426.402 419.099 426.756 419.353 432.205 416.075C443.69 409.166 455.068 402.079 466.44 394.985C473.864 390.354 481.167 385.528 488.592 380.897C491.879 378.846 494.259 379.962 494.295 383.621C494.404 394.945 494.284 406.27 494.367 417.595C494.39 420.835 493.438 422.617 490.188 424.279C481.354 428.797 472.889 434.046 464.349 439.125C452.581 446.125 440.868 453.216 429.16 460.315C426.624 461.852 426.181 464.229 426.26 467.129C426.477 475.119 426.335 483.118 426.335 492.114Z" fill="black"/>
</svg>
