<svg width="1177" height="683" viewBox="0 0 1177 683" fill="none" xmlns="http://www.w3.org/2000/svg">
<path d="M1032.58 596.171C1030.13 597.504 1028.88 599.226 1027.2 600.111C1010.51 608.877 993.634 617.287 977.051 626.245C965.265 632.611 953.582 639.155 942.561 646.911C936.049 651.494 928.321 654.315 921.3 658.217C914.773 661.844 908.524 665.967 902.034 669.664C894.77 673.802 887.492 677.95 879.99 681.625C875.172 683.986 870.482 680.914 866.604 678.894C855.587 673.159 845.055 666.49 834.345 660.168C823.899 654.001 813.444 647.848 803.039 641.612C796.086 637.444 789.306 632.981 782.287 628.931C762.124 617.297 741.963 605.653 721.622 594.335C713.549 589.844 705.059 586.083 696.664 582.196C679.466 574.234 664.657 562.586 649.199 551.909C642.808 547.495 635.897 543.835 629.228 539.822C617.489 532.757 605.84 525.537 593.968 518.702C590.287 516.582 587.21 515.578 582.114 519.014C566.952 529.235 550.581 537.649 534.81 546.986C517.928 556.98 501.285 567.379 484.361 577.301C472.063 584.511 459.452 591.185 447.028 598.184C433.51 605.799 419.971 613.384 406.581 621.22C391.538 630.024 376.817 639.389 361.654 647.976C342.794 658.655 323.614 668.768 304.596 679.167C297.809 682.878 292.622 679.82 292.595 671.851C292.533 654.187 292.707 636.522 292.513 618.859C292.43 611.409 292.603 603.966 292.581 596.519C292.556 588.52 292.575 580.521 292.575 572.522C292.575 564.523 292.575 556.524 292.575 548.525C292.575 540.526 292.575 532.528 292.575 524.529C292.575 516.53 292.575 508.531 292.575 500.532C292.575 492.533 292.575 484.534 292.575 476.535C292.575 468.536 292.575 460.537 292.575 452.538C292.575 444.539 291.686 436.422 292.738 428.564C296.179 402.868 293.902 377.101 294.527 351.379C294.81 339.766 294.482 339.919 284.706 334.14C258.99 318.94 233.425 303.484 207.68 288.334C190.289 278.1 172.597 268.378 155.214 258.131C132.153 244.536 109.316 230.563 86.2687 216.945C78.5494 212.384 70.4716 208.43 62.5749 204.167C47.3201 195.932 32.1198 187.595 16.7936 179.495C13.831 177.929 10.3036 177.467 7.21026 176.103C4.85625 175.064 0.958546 173.382 0.974659 172.024C1.00347 169.608 3.00542 166.672 5.02813 164.944C8.54509 161.939 13.3674 161.35 17.4427 158.699C38.8763 144.758 61.4271 132.48 82.4545 117.979C120.204 91.9446 161.969 73.4932 202.152 52.0268C221.61 41.6321 240.26 29.7231 259.262 18.4766C269.17 12.6126 278.902 6.42614 289.045 1.00628C291.467 -0.287544 295.928 -0.272529 298.24 1.13262C317.865 13.0576 338.4 23.288 358.468 34.3752C381.621 47.1663 403.89 61.5522 426.591 75.1653C443.935 85.5653 461.385 95.7855 478.728 106.186C496.358 116.76 513.676 127.879 531.582 137.959C544.739 145.365 558.742 151.253 572.127 158.277C577.933 161.324 583.097 165.583 588.62 169.188C593.327 172.259 598.013 175.395 602.914 178.132C619.684 187.498 636.362 197.054 653.415 205.881C676.945 218.061 699.789 231.426 721.507 246.496C732.365 254.03 743.989 259.822 755.3 266.372C770.094 274.937 785.665 282.035 799.828 291.9C812.217 300.531 826.714 306.097 839.359 314.415C848.781 320.613 858.086 326.91 868.072 332.147C872.488 334.463 873.065 334.503 877.378 332.13C882.555 329.282 887.534 326.078 892.649 323.115C900.17 318.76 907.781 314.56 915.272 310.155C930.288 301.324 945.141 292.211 960.267 283.575C972.088 276.825 984.331 270.815 996.185 264.12C1010.26 256.174 1024.15 247.904 1038.05 239.667C1053.05 230.783 1067.88 221.612 1082.95 212.854C1107.91 198.346 1132.92 183.905 1158.17 169.896C1161.38 168.109 1166.46 167.998 1170.07 169.101C1173.11 170.029 1174.89 173.528 1174.78 177.949C1174.56 187.337 1175.39 196.785 1175.95 206.148C1176.49 215.425 1177.34 224.971 1176.72 234.46C1176.08 244.083 1176.58 253.781 1176.58 263.446C1176.58 274.112 1176.4 284.782 1176.67 295.44C1177.02 309.452 1177.04 321.593 1176.62 335.781C1175.85 361.831 1175.34 387.89 1174.51 413.938C1174.29 420.676 1172.82 427.378 1172.69 434.111C1172.56 441.184 1173.58 448.341 1173.97 455.312C1174.42 463.279 1175.2 471.477 1174.69 479.625C1174.16 488.258 1174.78 496.955 1174.52 505.612C1174.25 514.42 1171.81 517.178 1164.07 520.251C1159.49 522.065 1155.13 524.488 1150.85 526.954C1142.5 531.773 1134.5 537.261 1125.94 541.674C1104.34 552.81 1083.71 565.528 1063.19 578.48C1053.47 584.617 1043.46 590.289 1032.58 596.171ZM1142.58 517.171C1145.89 515.504 1149.3 514.02 1152.48 512.124C1156.34 509.822 1160.52 507.577 1160.57 502.142C1160.86 468.751 1159.91 435.359 1162.19 401.967C1162.66 395.035 1161.31 387.971 1162.11 380.604C1163.8 365.185 1161.88 349.788 1162.49 334.319C1162.79 326.666 1162.46 318.99 1162.63 311.329C1162.7 308.363 1163.85 305.403 1163.78 302.457C1163.55 292.299 1160.9 281.675 1163.05 272.1C1166.65 256.073 1164.22 240.202 1163.9 224.505C1163.63 211.622 1162.1 198.779 1163.87 185.867C1164.18 183.638 1162.42 182.287 1160.36 183.481C1156.83 185.519 1153.62 188.099 1150.1 190.137C1140.7 195.571 1130.67 200.087 1121.91 206.383C1113.24 212.611 1102.68 215.414 1095.04 223.85C1089.89 229.533 1081.44 232.284 1074.35 236.142C1065.39 241.022 1056.28 245.62 1047.3 250.477C1039.67 254.609 1032.11 258.877 1024.58 263.191C1012.45 270.138 1000.43 277.278 988.259 284.143C975.036 291.6 961.585 298.654 948.436 306.236C939.783 311.226 931.611 317.047 923.003 322.12C911.245 329.049 899.067 335.285 887.511 342.524C883.294 345.165 879.825 348.916 880.367 355.533C881.789 372.864 881.012 390.267 882.097 407.706C884.584 447.654 881.058 487.778 884.245 527.846C885.482 543.4 884.157 559.241 883.086 575.015C881.241 602.217 882.575 629.635 882.575 656.962C882.575 658.295 882.038 660.095 882.699 660.854C883.74 662.051 883.935 665.105 887.504 662.55C895.856 656.571 904.723 651.252 913.679 646.192C922.546 641.182 931.92 637.07 940.812 632.1C949.78 627.088 958.312 621.299 967.24 616.212C988.524 604.085 1010.18 592.578 1031.12 579.894C1036.57 576.594 1043.41 575.713 1047.61 571.639C1055.39 564.08 1065.77 561.896 1074.41 556.291C1084.56 549.709 1095.32 544.064 1105.78 537.955C1117.55 531.076 1128.63 522.934 1142.58 517.171ZM308.575 435.171C307.962 443.896 309.638 452.645 306.83 461.415C305.379 465.947 305.062 471.983 306.885 476.191C310.905 485.472 306.118 494.687 308.095 503.926C308.616 506.357 309.261 510.037 308.589 513.163C307.862 516.539 306.891 519.913 306.661 523.331C306.35 527.958 306.413 532.641 306.745 537.27C307.067 541.756 306.021 546.204 306.615 550.647C306.987 553.432 308.155 556.155 308.226 558.925C308.324 562.717 307.76 566.532 307.398 570.33C307.217 572.222 306.206 574.286 306.689 575.947C308.655 582.707 308.807 589.586 308.524 596.48C308.235 603.529 306.635 610.181 307.56 617.694C309.102 630.22 307.082 643.183 306.581 655.963C306.426 659.908 306.7 661.357 311.353 658.668C322.842 652.029 334.92 646.421 346.613 640.123C354.81 635.707 362.821 630.936 370.799 626.13C374.833 623.699 378.397 620.437 382.544 618.251C392.364 613.074 402.51 608.514 412.333 603.341C426.325 595.972 437.866 584.307 453.642 579.963C456.835 579.083 460.224 577.355 462.513 575.026C471.357 566.033 483.186 562.17 493.691 556.046C506.575 548.535 519.433 540.98 532.303 533.444C546.781 524.965 561.176 516.339 575.784 508.091C580.757 505.283 582.847 502.177 582.775 496.02C582.364 460.711 582.575 425.395 582.575 390.081C582.575 388.082 583.321 385.651 582.454 384.155C576.875 374.528 583.353 364.555 581.292 354.695C580.133 349.156 582.662 342.955 582.467 337.088C581.689 313.712 584.341 290.3 580.831 266.914C579.549 258.376 581.372 249.474 580.844 240.609C579.893 224.674 580.575 208.642 580.575 192.651C580.575 190.652 580.981 188.543 580.476 186.682C579.793 184.168 579.631 181.325 575.147 184.307C561.66 193.273 547.755 201.635 533.796 209.862C520.175 217.889 506.107 225.165 492.568 233.321C480.592 240.535 469.05 248.393 456.281 254.319C448.703 257.836 441.773 262.767 434.612 267.161C428.755 270.755 423.159 274.806 417.147 278.108C403.327 285.699 389.197 292.727 375.426 300.404C355.103 311.734 335.088 323.619 314.698 334.825C310.088 337.358 308.355 339.832 308.417 345.222C308.751 374.535 308.575 403.854 308.575 435.171ZM341.575 90.1711C338.183 89.5044 334.798 88.3053 331.397 88.2619C315.403 88.0579 299.393 87.8273 283.413 88.3378C276.886 88.5463 270.412 90.5704 263.925 91.8297C251.092 94.3212 239.126 99.283 226.951 103.92C211.936 109.64 198.766 117.787 187.249 128.667C181.589 134.015 176.989 140.466 171.573 146.094C160.831 157.259 157.745 174.133 163.604 188.297C168.577 200.319 177.616 208.335 187.442 216.362C208.079 233.22 232.067 240.423 257.824 241.915C274.476 242.879 291.37 243.552 307.966 240.145C318.075 238.071 328.544 236.847 338.12 233.278C353.242 227.643 367.994 220.819 380.55 210.196C383.35 207.827 383.489 207.943 380.448 206.178C376.69 203.998 372.847 201.96 369.136 199.705C358.744 193.391 348.51 186.812 338.01 180.684C325.962 173.652 313.803 166.785 301.416 160.379C299.403 159.338 296.922 157.068 292.979 159.886C285.232 165.424 276.268 169.243 267.89 173.922C265.422 175.3 263.234 177.179 260.918 178.828C263.201 180.006 265.516 181.127 267.76 182.375C272.37 184.937 276.977 187.509 281.522 190.184C289.835 195.076 298.112 200.028 306.371 205.011C307.202 205.513 307.802 206.398 308.509 207.105C307.701 207.46 306.924 207.989 306.079 208.145C294.333 210.32 283.117 213.005 270.475 210.734C255.778 208.094 242.108 204.037 228.803 197.555C217.935 192.26 215.914 181.158 210.633 172.166C210.196 171.422 210.288 170.09 210.621 169.218C213.312 162.168 215.812 155.128 221.811 149.82C235.39 137.805 249.357 127.32 267.937 123.336C279.559 120.844 291.21 118.379 302.908 116.302C310.59 114.937 317.817 118.829 325.26 119.918C339.678 122.028 351.849 127.534 361.73 138.278C369.369 146.584 372.943 155.634 368.956 166.943C367.666 170.603 367.422 174.269 373.711 174.532C378.556 174.734 383.277 177.087 388.13 178.126C396.12 179.835 404.544 180.27 412.082 183.108C418.09 185.37 419.654 183.089 421.138 178.596C424.367 168.827 428.253 159.601 426.962 148.465C425.498 135.844 419.014 127.01 410.447 119.272C401.135 110.861 389.989 104.977 378.397 100.242C367.178 95.66 355.834 91.2682 341.575 90.1711ZM752.575 495.171C747.642 506.907 743.179 508.902 732.732 503.173C727.781 500.458 723.143 496.994 718.832 493.32C704.986 481.519 695.932 466.318 688.518 449.935C684.372 440.774 683.963 440.882 674.021 443.684C670.417 444.7 666.73 445.924 663.047 446.043C656.798 446.246 658.177 448.521 659.92 452.72C664.416 463.551 668.741 474.465 674.641 484.599C682.293 497.742 689.713 511.131 701.076 521.631C706.815 526.935 712.975 531.796 718.563 537.248C731.159 549.538 747.356 553.052 763.721 555.859C767.527 556.512 772.71 555.901 775.627 553.705C784.174 547.27 790.825 538.801 792.469 527.883C795.843 505.479 787.966 485.147 778.251 465.884C772.624 454.725 764.366 444.681 756.192 435.071C745.749 422.794 734.143 411.51 723.145 399.698C717.366 393.492 711.276 387.467 706.312 380.643C701.479 373.999 699.258 366.205 702.594 357.911C704.09 354.193 709.26 351.5 712.393 353.064C723.284 358.499 733.69 364.817 741.525 374.299C746.522 380.345 751.312 386.799 754.823 393.763C757.737 399.542 761.495 400.969 767.175 400.187C772.553 399.446 777.987 399.047 783.326 398.104C787.428 397.379 788.411 394.533 786.587 390.478C780.55 377.055 771.851 365.22 764.416 352.636C759.334 344.035 753.249 336.445 745.64 330.608C734.735 322.243 722.82 315.165 711.13 307.867C707.251 305.446 702.897 303.057 698.486 302.339C677.714 298.959 662.859 312.651 660.804 333.367C660.052 340.947 661.944 348.784 662.566 356.509C663.303 365.649 665.572 374.298 669.838 382.494C678.812 399.735 690.625 415.016 703.236 429.573C715.318 443.52 728.97 456.104 741.079 470.029C746.688 476.479 753.963 482.9 752.575 495.171Z" fill="#56A6F8"/>
<path d="M1075.08 290.671C1079.41 288.171 1083.46 286.488 1087.03 284.084C1090.78 281.555 1093.07 283.378 1092.33 286.55C1091.01 292.202 1093.35 297.442 1092.72 302.961C1092.08 308.553 1092.16 314.315 1092.7 319.929C1093.18 325.04 1090.66 327.757 1086.89 330.187C1075.57 337.476 1064.29 344.83 1053.01 352.175C1049.59 354.4 1045.95 356.383 1042.93 359.065C1041.51 360.328 1040.68 362.98 1040.67 365.006C1040.54 403.661 1039.73 442.345 1041.06 480.954C1041.49 493.631 1041.84 506.417 1042.67 519.125C1043.12 526.161 1039.88 531.272 1034.73 534.772C1027.31 539.815 1019.29 544.01 1011.37 548.29C1007.06 550.622 1004.95 549.509 1004.63 544.995C1004.35 541.015 1004.58 537.001 1004.58 533.002C1004.58 510.009 1004.66 487.015 1004.49 464.024C1004.46 460.296 1003.44 456.527 1002.53 452.867C1001.23 447.707 1002.16 443.641 1002.58 437.517C1003.13 429.252 1004.03 422.732 1004.44 415.345C1004.99 405.378 1004.54 395.358 1004.59 385.362C1004.61 381.985 1003.67 381.123 1000.57 383.122C991.643 388.874 982.367 394.118 973.735 400.27C969.634 403.193 961.852 409.894 961.852 409.894C961.852 409.894 959.054 409.588 958.716 408.908C958.185 407.839 958.657 406.306 958.561 404.981C957.864 395.372 958.35 386.826 958.429 377.644C958.456 374.593 956.089 371.208 956.837 368.55C958.058 364.21 960.471 360.635 965.227 357.927C983.098 347.748 1000.43 336.624 1017.93 325.798C1034.92 315.292 1051.85 304.703 1068.83 294.189C1070.66 293.053 1072.66 292.171 1075.08 290.671Z" fill="#56A6F8"/>
<path d="M426.576 492.171C426.576 495.169 426.811 497.206 426.498 499.154C426.266 500.591 425.319 501.913 424.691 503.286C426.291 502.915 428.041 502.836 429.462 502.113C433.052 500.287 436.536 498.24 439.989 496.159C456.519 486.198 473.045 476.23 489.518 466.175C492.214 464.529 494.585 462.361 497.2 460.573C503.465 456.288 509.597 458.265 510.336 465.735C511.07 473.139 509.884 480.737 509.464 488.246C509.414 489.132 508.478 490.073 508.637 490.85C510.858 501.751 502.87 505.75 495.603 510.109C475.869 521.945 456.15 533.808 436.272 545.397C423.966 552.571 411.393 559.286 398.904 566.141C397.299 567.022 395.528 567.818 393.744 568.114C387.299 569.184 386.589 568.546 386.587 561.773C386.567 496.156 386.667 430.539 386.458 364.924C386.432 356.876 391.653 353.634 397.098 350.2C411.608 341.049 426.141 331.929 440.795 323.011C451.407 316.553 462.296 310.554 472.931 304.133C480.953 299.29 488.692 293.977 496.726 289.154C498.905 287.846 502.255 286.295 504.075 287.1C506.763 288.289 508.956 290.858 508.723 294.993C508.236 303.625 508.208 312.327 508.726 320.956C508.996 325.46 506.594 328.016 503.71 329.863C491.907 337.416 479.946 344.736 467.853 351.817C455.821 358.863 443.459 365.349 431.473 372.469C428.554 374.203 426.236 376.87 426.428 381.346C426.886 391.985 426.517 402.658 426.599 413.315C426.643 419.156 426.997 419.409 432.445 416.132C443.93 409.223 455.309 402.136 466.681 395.042C474.105 390.41 481.408 385.585 488.832 380.954C492.12 378.902 494.5 380.018 494.535 383.678C494.645 395.001 494.525 406.327 494.608 417.651C494.631 420.892 493.679 422.674 490.429 424.336C481.595 428.854 473.129 434.102 464.59 439.182C452.822 446.182 441.109 453.273 429.4 460.371C426.864 461.909 426.422 464.285 426.501 467.185C426.718 475.175 426.576 483.175 426.576 492.171Z" fill="#56A6F8"/>
</svg>
