<svg width="1177" height="684" viewBox="0 0 1177 684" fill="none" xmlns="http://www.w3.org/2000/svg">
<path d="M1032.56 596.854C1030.11 598.187 1028.87 599.909 1027.19 600.793C1010.5 609.56 993.621 617.97 977.038 626.927C965.252 633.293 953.569 639.837 942.548 647.593C936.036 652.176 928.308 654.997 921.288 658.899C914.761 662.526 908.512 666.65 902.022 670.347C894.757 674.485 887.479 678.633 879.978 682.308C875.16 684.668 870.47 681.597 866.591 679.577C855.575 673.841 845.043 667.173 834.333 660.851C823.886 654.684 813.431 648.53 803.026 642.294C796.073 638.127 789.294 633.663 782.274 629.614C762.111 617.98 741.95 606.336 721.609 595.018C713.536 590.526 705.047 586.765 696.651 582.878C679.453 574.917 664.644 563.269 649.187 552.592C642.796 548.178 635.884 544.518 629.216 540.505C617.477 533.44 605.827 526.22 593.956 519.384C590.274 517.265 587.198 516.261 582.101 519.696C566.939 529.917 550.568 538.332 534.797 547.668C517.915 557.663 501.272 568.062 484.348 577.984C472.05 585.194 459.439 591.868 447.016 598.867C433.497 606.482 419.958 614.066 406.568 621.903C391.525 630.707 376.805 640.072 361.641 648.659C342.782 659.338 323.602 669.45 304.583 679.85C297.796 683.561 292.61 680.503 292.582 672.534C292.52 654.87 292.695 637.204 292.5 619.542C292.418 612.091 292.591 604.648 292.568 597.201C292.544 589.203 292.563 581.204 292.563 573.205C292.563 565.206 292.563 557.207 292.563 549.208C292.563 541.209 292.563 533.21 292.563 525.211C292.563 517.212 292.563 509.213 292.563 501.215C292.563 493.216 292.563 485.217 292.563 477.218C292.563 469.219 292.563 461.22 292.563 453.221C292.563 445.222 291.674 437.104 292.726 429.246C296.167 403.551 293.89 377.783 294.515 352.062C294.797 340.449 294.469 340.601 284.693 334.823C258.977 319.623 233.413 304.167 207.668 289.017C190.276 278.783 172.584 269.061 155.201 258.813C132.14 245.219 109.303 231.246 86.256 217.628C78.5367 213.066 70.4589 209.113 62.5622 204.85C47.3074 196.615 32.1071 188.277 16.7809 180.178C13.8183 178.612 10.2909 178.15 7.19756 176.785C4.84356 175.747 0.945851 174.064 0.961964 172.707C0.990772 170.291 2.99273 167.355 5.01543 165.627C8.5324 162.621 13.3547 162.033 17.43 159.382C38.8636 145.44 61.4144 133.163 82.4418 118.661C120.191 92.6273 161.956 74.1758 202.14 52.7095C221.598 42.3148 240.247 30.4058 259.249 19.1592C269.157 13.2952 278.889 7.10876 289.033 1.6889C291.454 0.395073 295.915 0.410088 298.227 1.81524C317.852 13.7402 338.387 23.9706 358.455 35.0578C381.608 47.8489 403.878 62.2349 426.579 75.8479C443.922 86.2479 461.373 96.4681 478.715 106.869C496.345 117.442 513.664 128.562 531.569 138.641C544.726 146.048 558.729 151.935 572.114 158.959C577.921 162.007 583.084 166.266 588.608 169.87C593.315 172.942 598 176.077 602.902 178.815C619.671 188.181 636.35 197.737 653.403 206.564C676.932 218.743 699.776 232.108 721.494 247.178C732.352 254.713 743.976 260.505 755.287 267.054C770.081 275.619 785.652 282.717 799.815 292.583C812.205 301.214 826.701 306.78 839.347 315.098C848.769 321.295 858.073 327.593 868.059 332.83C872.475 335.146 873.052 335.186 877.365 332.812C882.542 329.964 887.521 326.76 892.636 323.798C900.157 319.443 907.768 315.242 915.259 310.837C930.275 302.007 945.128 292.893 960.254 284.257C972.076 277.508 984.318 271.497 996.173 264.803C1010.24 256.856 1024.14 248.587 1038.04 240.349C1053.04 231.465 1067.87 222.295 1082.94 213.537C1107.9 199.029 1132.91 184.588 1158.15 170.578C1161.37 168.792 1166.45 168.681 1170.06 169.784C1173.09 170.711 1174.88 174.21 1174.77 178.631C1174.54 188.02 1175.38 197.468 1175.93 206.831C1176.48 216.108 1177.33 225.654 1176.7 235.142C1176.07 244.766 1176.56 254.464 1176.56 264.129C1176.56 274.794 1176.38 285.464 1176.65 296.122C1177.01 310.135 1177.03 322.276 1176.61 336.464C1175.83 362.514 1175.33 388.573 1174.49 414.621C1174.28 421.358 1172.8 428.061 1172.68 434.794C1172.55 441.867 1173.57 449.023 1173.96 455.994C1174.4 463.961 1175.18 472.16 1174.68 480.307C1174.15 488.94 1174.77 497.637 1174.51 506.295C1174.24 515.103 1171.8 517.86 1164.05 520.933C1159.48 522.747 1155.12 525.171 1150.84 527.636C1142.48 532.455 1134.48 537.943 1125.93 542.356C1104.33 553.492 1083.7 566.211 1063.18 579.163C1053.46 585.299 1043.44 590.971 1032.56 596.854ZM1142.56 517.854C1145.87 516.187 1149.29 514.702 1152.47 512.807C1156.32 510.505 1160.51 508.259 1160.56 502.824C1160.84 469.434 1159.9 436.041 1162.18 402.649C1162.65 395.717 1161.29 388.653 1162.1 381.287C1163.79 365.868 1161.87 350.471 1162.47 335.002C1162.77 327.349 1162.45 319.673 1162.62 312.012C1162.69 309.046 1163.84 306.086 1163.77 303.139C1163.54 292.981 1160.89 282.357 1163.04 272.783C1166.64 256.756 1164.21 240.885 1163.89 225.187C1163.62 212.305 1162.09 199.462 1163.86 186.55C1164.17 184.32 1162.41 182.97 1160.34 184.164C1156.82 186.202 1153.61 188.782 1150.09 190.819C1140.69 196.253 1130.66 200.77 1121.9 207.066C1113.23 213.294 1102.67 216.097 1095.03 224.533C1089.87 230.216 1081.43 232.967 1074.34 236.825C1065.38 241.704 1056.26 246.302 1047.29 251.16C1039.66 255.292 1032.1 259.559 1024.56 263.874C1012.44 270.821 1000.42 277.96 988.246 284.826C975.024 292.283 961.572 299.337 948.423 306.919C939.77 311.908 931.599 317.729 922.99 322.803C911.233 329.732 899.054 335.968 887.498 343.206C883.281 345.848 879.812 349.599 880.355 356.216C881.776 373.546 881 390.95 882.085 408.388C884.571 448.337 881.045 488.461 884.232 528.529C885.469 544.083 884.144 559.923 883.074 575.698C881.228 602.9 882.563 630.318 882.563 657.645C882.563 658.978 882.026 660.778 882.686 661.537C883.727 662.733 883.922 665.787 887.491 663.232C895.843 657.253 904.71 651.934 913.666 646.874C922.534 641.865 931.907 637.753 940.799 632.783C949.767 627.771 958.299 621.982 967.227 616.895C988.512 604.768 1010.16 593.261 1031.11 580.576C1036.55 577.277 1043.4 576.395 1047.59 572.322C1055.38 564.762 1065.76 562.579 1074.4 556.974C1084.55 550.391 1095.31 544.747 1105.77 538.637C1117.54 531.758 1128.62 523.616 1142.56 517.854ZM308.563 435.854C307.949 444.579 309.626 453.328 306.818 462.098C305.366 466.63 305.049 472.666 306.872 476.873C310.892 486.154 306.105 495.369 308.083 504.608C308.603 507.04 309.248 510.72 308.576 513.846C307.85 517.221 306.878 520.596 306.648 524.014C306.337 528.64 306.4 533.324 306.732 537.952C307.054 542.439 306.008 546.886 306.602 551.33C306.974 554.114 308.142 556.837 308.213 559.607C308.311 563.4 307.747 567.215 307.385 571.013C307.205 572.905 306.193 574.969 306.676 576.63C308.643 583.39 308.794 590.269 308.512 597.163C308.222 604.212 306.622 610.864 307.547 618.376C309.09 630.902 307.069 643.865 306.568 656.645C306.413 660.591 306.687 662.04 311.341 659.351C322.829 652.712 334.908 647.104 346.6 640.805C354.797 636.39 362.809 631.619 370.786 626.813C374.82 624.382 378.385 621.119 382.531 618.934C392.352 613.757 402.497 609.197 412.32 604.024C426.312 596.655 437.853 584.99 453.629 580.645C456.823 579.766 460.211 578.038 462.501 575.709C471.344 566.715 483.174 562.852 493.678 556.729C506.562 549.218 519.42 541.662 532.29 534.126C546.768 525.648 561.163 517.022 575.771 508.774C580.745 505.965 582.834 502.86 582.763 496.702C582.351 461.393 582.563 426.077 582.563 390.764C582.563 388.765 583.309 386.334 582.441 384.837C576.862 375.211 583.341 365.237 581.279 355.378C580.121 349.839 582.649 343.638 582.454 337.77C581.677 314.395 584.329 290.983 580.818 267.596C579.536 259.059 581.36 250.156 580.831 241.291C579.881 225.357 580.563 209.325 580.563 193.334C580.563 191.335 580.969 189.226 580.463 187.364C579.78 184.85 579.618 182.008 575.134 184.989C561.647 193.956 547.743 202.317 533.783 210.545C520.163 218.572 506.095 225.847 492.555 234.003C480.579 241.218 469.037 249.075 456.268 255.002C448.69 258.519 441.76 263.45 434.599 267.844C428.742 271.438 423.146 275.489 417.134 278.791C403.314 286.382 389.184 293.41 375.414 301.087C355.091 312.417 335.075 324.301 314.686 335.507C310.076 338.041 308.343 340.514 308.404 345.905C308.738 375.218 308.563 404.537 308.563 435.854ZM341.563 90.8538C338.17 90.1871 334.785 88.9879 331.385 88.9445C315.39 88.7405 299.381 88.5099 283.4 89.0204C276.873 89.2289 270.399 91.253 263.913 92.5123C251.08 95.0038 239.113 99.9656 226.939 104.603C211.923 110.322 198.753 118.47 187.236 129.35C181.576 134.697 176.976 141.148 171.56 146.777C160.818 157.942 157.732 174.816 163.591 188.98C168.565 201.002 177.603 209.018 187.43 217.045C208.066 233.903 232.054 241.105 257.811 242.597C274.463 243.562 291.357 244.235 307.953 240.828C318.062 238.753 328.531 237.53 338.107 233.961C353.229 228.325 367.981 221.501 380.537 210.879C383.337 208.51 383.476 208.626 380.435 206.861C376.677 204.68 372.835 202.642 369.123 200.387C358.732 194.074 348.497 187.494 337.998 181.367C325.949 174.334 313.79 167.468 301.403 161.062C299.39 160.021 296.909 157.751 292.966 160.569C285.219 166.106 276.255 169.925 267.877 174.604C265.41 175.982 263.222 177.861 260.905 179.511C263.188 180.689 265.503 181.81 267.747 183.057C272.357 185.62 276.964 188.192 281.509 190.867C289.822 195.759 298.1 200.711 306.359 205.694C307.19 206.195 307.789 207.08 308.496 207.787C307.688 208.143 306.912 208.671 306.066 208.828C294.321 211.002 283.105 213.687 270.463 211.416C255.765 208.777 242.095 204.72 228.791 198.238C217.923 192.943 215.901 181.841 210.62 172.848C210.184 172.105 210.275 170.773 210.608 169.9C213.3 162.851 215.799 155.811 221.798 150.502C235.377 138.487 249.344 128.003 267.924 124.019C279.547 121.527 291.198 119.062 302.895 116.984C310.577 115.62 317.805 119.512 325.247 120.601C339.666 122.711 351.837 128.217 361.718 138.96C369.356 147.266 372.93 156.316 368.944 167.626C367.653 171.286 367.41 174.952 373.698 175.214C378.544 175.417 383.264 177.77 388.117 178.808C396.108 180.518 404.531 180.952 412.069 183.79C418.077 186.052 419.641 183.771 421.126 179.278C424.354 169.509 428.241 160.284 426.949 149.148C425.486 136.527 419.001 127.693 410.435 119.955C401.122 111.543 389.977 105.66 378.384 100.925C367.165 96.3426 355.821 91.9508 341.563 90.8538ZM752.563 495.854C747.629 507.59 743.166 509.585 732.72 503.856C727.768 501.14 723.131 497.677 718.819 494.002C704.973 482.202 695.919 467.001 688.505 450.617C684.36 441.457 683.95 441.565 674.009 444.367C670.405 445.383 666.717 446.607 663.034 446.726C656.785 446.929 658.164 449.204 659.907 453.403C664.403 464.233 668.728 475.147 674.628 485.282C682.28 498.425 689.7 511.814 701.063 522.314C706.803 527.618 712.962 532.479 718.55 537.931C731.146 550.22 747.343 553.735 763.709 556.541C767.515 557.194 772.697 556.584 775.614 554.387C784.161 547.953 790.812 539.484 792.456 528.565C795.83 506.162 787.953 485.83 778.239 466.566C772.611 455.408 764.353 445.364 756.18 435.754C745.737 423.476 734.131 412.192 723.132 400.381C717.353 394.175 711.263 388.149 706.299 381.325C701.466 374.682 699.245 366.887 702.581 358.594C704.077 354.875 709.248 352.183 712.38 353.747C723.272 359.181 733.677 365.5 741.512 374.981C746.509 381.028 751.3 387.482 754.81 394.445C757.724 400.225 761.482 401.652 767.162 400.869C772.54 400.129 777.974 399.729 783.314 398.786C787.415 398.062 788.398 395.216 786.574 391.16C780.538 377.738 771.838 365.902 764.403 353.318C759.321 344.717 753.236 337.128 745.627 331.291C734.722 322.925 722.807 315.848 711.117 308.55C707.238 306.128 702.884 303.739 698.473 303.021C677.701 299.641 662.846 313.334 660.791 334.049C660.039 341.63 661.931 349.466 662.553 357.191C663.29 366.331 665.559 374.981 669.825 383.177C678.799 400.418 690.613 415.698 703.223 430.256C715.305 444.202 728.958 456.786 741.066 470.711C746.675 477.162 753.95 483.583 752.563 495.854Z" fill="#F5EEDE"/>
<path d="M1075.06 291.354C1079.4 288.853 1083.45 287.171 1087.01 284.766C1090.76 282.237 1093.05 284.061 1092.31 287.232C1091 292.884 1093.34 298.124 1092.7 303.644C1092.06 309.236 1092.15 314.997 1092.68 320.611C1093.17 325.723 1090.65 328.439 1086.88 330.869C1075.56 338.159 1064.28 345.513 1053 352.858C1049.58 355.083 1045.93 357.066 1042.92 359.747C1041.49 361.01 1040.66 363.662 1040.66 365.689C1040.53 404.343 1039.72 443.027 1041.04 481.637C1041.48 494.314 1041.83 507.1 1042.65 519.807C1043.11 526.844 1039.87 531.955 1034.72 535.454C1027.29 540.497 1019.27 544.692 1011.36 548.972C1007.04 551.305 1004.94 550.192 1004.62 545.677C1004.34 541.698 1004.56 537.684 1004.56 533.685C1004.56 510.692 1004.65 487.698 1004.47 464.706C1004.44 460.979 1003.43 457.21 1002.51 453.55C1001.22 448.389 1002.15 444.324 1002.56 438.2C1003.12 429.935 1004.02 423.415 1004.43 416.028C1004.97 406.061 1004.53 396.041 1004.58 386.044C1004.6 382.668 1003.66 381.806 1000.56 383.804C991.631 389.556 982.355 394.801 973.722 400.953C969.621 403.875 961.84 410.576 961.84 410.576C961.84 410.576 959.042 410.271 958.704 409.591C958.172 408.522 958.645 406.989 958.548 405.663C957.851 396.054 958.338 387.509 958.417 378.326C958.443 375.276 956.076 371.891 956.824 369.233C958.045 364.893 960.458 361.318 965.214 358.609C983.085 348.43 1000.42 337.307 1017.92 326.48C1034.91 315.974 1051.84 305.386 1068.82 294.872C1070.65 293.736 1072.64 292.854 1075.06 291.354Z" fill="#F5EEDE"/>
<path d="M426.563 492.854C426.563 495.852 426.798 497.888 426.485 499.836C426.254 501.274 425.306 502.596 424.678 503.969C426.278 503.597 428.028 503.519 429.449 502.796C433.04 500.97 436.524 498.923 439.977 496.842C456.506 486.88 473.032 476.912 489.505 466.858C492.201 465.212 494.572 463.044 497.187 461.255C503.452 456.971 509.584 458.947 510.324 466.417C511.057 473.821 509.872 481.419 509.451 488.928C509.402 489.814 508.466 490.756 508.624 491.533C510.845 502.434 502.857 506.433 495.59 510.791C475.857 522.627 456.138 534.491 436.259 546.079C423.954 553.253 411.381 559.969 398.891 566.824C397.287 567.705 395.515 568.501 393.731 568.797C387.287 569.866 386.577 569.229 386.575 562.455C386.555 496.839 386.655 431.222 386.445 365.606C386.419 357.559 391.64 354.317 397.086 350.883C411.596 341.731 426.128 332.612 440.782 323.694C451.394 317.236 462.284 311.236 472.918 304.816C480.941 299.973 488.68 294.66 496.713 289.837C498.892 288.529 502.242 286.978 504.062 287.783C506.75 288.972 508.943 291.541 508.71 295.675C508.224 304.308 508.196 313.009 508.713 321.638C508.984 326.142 506.582 328.699 503.697 330.545C491.894 338.099 479.934 345.419 467.841 352.5C455.808 359.545 443.446 366.031 431.46 373.152C428.541 374.886 426.223 377.552 426.415 382.029C426.873 392.668 426.505 403.34 426.586 413.998C426.63 419.838 426.984 420.092 432.433 416.814C443.918 409.906 455.296 402.819 466.668 395.724C474.092 391.093 481.395 386.267 488.82 381.636C492.108 379.585 494.488 380.701 494.523 384.36C494.632 395.684 494.512 407.01 494.595 418.334C494.619 421.575 493.666 423.356 490.416 425.018C481.582 429.536 473.117 434.785 464.577 439.865C452.809 446.864 441.096 453.955 429.388 461.054C426.852 462.591 426.409 464.968 426.488 467.868C426.705 475.858 426.563 483.858 426.563 492.854Z" fill="#F5EEDE"/>
</svg>
