<svg width="1171" height="1178" viewBox="0 0 1171 1178" fill="none" xmlns="http://www.w3.org/2000/svg">
<path d="M445 764.62C429.588 755.191 414.759 746.115 399.737 737.371C384.497 728.5 369.084 719.927 353.715 711.279C335.929 701.273 317.92 691.642 300.41 681.177C294.704 677.767 290.621 673.002 290.672 664.524C291.125 588.082 289.854 511.614 291.477 435.204C292.113 405.236 291.868 375.239 293.103 345.289C293.404 337.991 290.656 334.197 284.637 330.852C271.356 323.47 258.48 315.362 245.334 307.732C235.172 301.834 224.737 296.403 214.63 290.416C202.057 282.97 189.795 274.998 177.213 267.567C166.835 261.437 156.134 255.856 145.672 249.864C134.375 243.394 123.202 236.708 111.953 230.153C99.6399 222.979 87.2938 215.861 74.9771 208.693C61.8522 201.055 49.0755 192.724 35.5192 185.952C25.6814 181.038 16.8019 173.637 5.10668 172.616C3.21702 172.451 0.603223 170.142 0.0593549 168.31C-0.374108 166.849 1.66613 164.477 2.94363 162.758C3.62383 161.844 4.97059 161.359 6.09302 160.847C28.2937 150.735 47.7074 136.02 68.2786 123.218C84.4034 113.184 100.343 102.843 116.629 93.0796C145.481 75.7834 176.631 62.8259 206.012 46.6486C224.183 36.6437 242.925 27.1805 259.508 14.172C266.91 8.36574 276.109 4.73547 284.776 0.732178C287.156 -0.36706 291.039 -0.191836 293.414 1.0116C305.254 7.0082 316.9 13.4038 328.463 19.9278C339.531 26.1728 350.438 32.7051 361.371 39.1871C381.389 51.0554 401.252 63.1886 421.409 74.8143C437.462 84.0733 454 92.4923 470.062 101.738C488.349 112.264 506.299 123.372 524.487 134.073C535.153 140.349 546.026 146.272 556.753 152.446C572.594 161.564 588.369 170.796 604.205 179.921C619.762 188.886 635.351 197.796 650.946 206.696C660.081 211.909 669.276 217.019 678.404 222.245C684.86 225.941 691.234 229.779 697.673 233.506C707.052 238.936 716.496 244.257 725.842 249.744C740.554 258.382 755.153 267.213 769.904 275.784C780.867 282.154 792.043 288.155 803.034 294.475C817.004 302.509 830.886 310.696 844.802 318.823C851.226 322.575 857.465 326.716 864.168 329.873C866.17 330.816 869.746 329.59 872.108 328.389C882.284 323.213 892.339 317.789 902.316 312.238C911.518 307.119 920.515 301.632 929.692 296.466C953.403 283.117 977.339 270.158 1000.85 256.472C1022.33 243.97 1043.3 230.592 1064.65 217.852C1074.73 211.837 1085.24 206.555 1095.4 200.66C1100.53 197.678 1104.92 193.077 1110.32 190.938C1125.43 184.96 1138.59 175.649 1152.61 167.812C1155.25 166.336 1158.36 165.186 1161.34 164.948C1167.54 164.454 1170.21 168.479 1169.3 175.074C1168.96 177.584 1170.2 180.274 1170.39 182.905C1170.54 185.045 1170.11 187.219 1170.1 189.38C1170.09 190.989 1170.4 192.599 1170.43 194.211C1172.28 288.184 1167.38 380.51 1168.54 473.599C1168.61 479.646 1170.81 485.774 1170.26 491.702C1167.83 517.999 1168.67 544.334 1168.36 570.659C1168.28 577.038 1166.1 583.488 1166.62 589.763C1170.5 637.105 1167.71 684.512 1168.36 731.879C1168.81 764.777 1168.34 797.687 1168.52 830.591C1168.57 839.981 1164.32 845.935 1156.64 851.011C1139.51 862.336 1120.75 870.761 1103.7 882.302C1089.41 891.974 1073.58 899.35 1058.56 907.965C1042.43 917.219 1026.49 926.817 1010.38 936.108C996.714 943.988 982.836 951.502 969.2 959.433C949.63 970.816 930.28 982.579 910.669 993.889C899.442 1000.36 887.748 1006.02 876.508 1012.48C861.44 1021.12 846.641 1030.24 831.665 1039.05C820.721 1045.49 809.679 1051.76 798.68 1058.1C787.681 1064.45 776.714 1070.85 765.674 1077.12C754.384 1083.54 742.981 1089.76 731.702 1096.2C718.251 1103.87 704.834 1111.61 691.486 1119.47C681.314 1125.45 671.337 1131.77 661.16 1137.75C645.402 1147.01 629.592 1156.18 613.715 1165.23C606.751 1169.2 599.659 1172.98 592.456 1176.49C586.055 1179.62 580.398 1176.03 580.126 1169.03C580.061 1167.37 580.116 1165.7 580.116 1164.04C580.116 1059.68 580.061 955.315 580.238 850.953C580.25 843.831 579.084 839.988 571.489 836.485C556.362 829.51 542.449 819.935 527.897 811.675C513.117 803.286 498.087 795.336 483.326 786.913C473.078 781.065 463.127 774.697 452.98 768.667C450.618 767.263 447.999 766.29 445 764.62ZM919.155 317.389C907.687 324.203 896.452 331.461 884.648 337.631C879.257 340.45 876.911 343.542 877.209 349.517C878.337 372.152 877.337 394.779 878.787 417.5C881.432 458.98 877.746 500.663 880.955 542.269C882.178 558.13 879.621 574.253 879.348 590.266C879.013 609.865 879.268 629.474 879.268 649.078C879.268 651.072 878.839 653.19 879.372 655.029C880.105 657.558 880.272 660.262 884.795 657.259C895.079 650.433 906.1 644.694 916.954 638.756C923.428 635.214 930.649 632.854 936.676 628.713C957.694 614.274 980.947 603.812 1002.74 590.782C1014.46 583.773 1026.02 576.478 1037.9 569.747C1047.27 564.436 1057.26 560.191 1066.56 554.758C1083.72 544.727 1100.48 534.02 1117.59 523.891C1128.22 517.597 1139.04 511.58 1150.05 505.973C1161.05 500.365 1155.72 402.797 1156.57 383.49C1156.96 374.718 1155.88 366.02 1156.29 357.218C1156.99 342.298 1156.48 327.322 1156.48 312.369C1156.48 297.749 1156.95 283.109 1156.35 268.514C1155.75 254.087 1158.07 239.77 1156.7 225.282C1155.61 213.755 1156.4 202.042 1156.56 190.414C1156.58 188.308 1157.51 186.193 1158.15 184.124C1158.66 182.484 1159.37 180.908 1159.99 179.303C1158.35 179.794 1156.65 180.162 1155.07 180.806C1152.79 181.731 1150.47 182.65 1148.4 183.932C1137.27 190.796 1126.78 199.017 1114.98 204.38C1101.49 210.511 1090.15 219.725 1077.58 227.091C1068.49 232.415 1059.77 238.23 1050.16 242.778C1039.01 248.056 1027.47 253.4 1017.98 261.049C1006.81 270.05 993.639 274.988 981.626 282.077C966.747 290.856 950.725 297.697 936.505 307.821C931.537 311.357 925.63 313.573 919.155 317.389ZM304.997 624.858C305.437 632.311 302.62 639.66 304.757 647.183C305.296 649.079 304.058 651.46 303.724 653.632C303.553 654.751 303.575 655.899 303.51 657.034C304.645 656.824 305.966 656.917 306.884 656.354C312.465 652.928 317.749 648.967 323.518 645.912C333.848 640.442 344.638 635.828 354.891 630.227C366.859 623.689 378.449 616.463 390.22 609.565C399.31 604.237 408.466 599.022 417.519 593.632C426.331 588.387 434.53 581.676 443.926 577.946C459.382 571.81 472.066 561.16 486.834 553.969C498.787 548.149 509.87 540.547 521.364 533.78C538.998 523.399 554.472 512.724 572.417 502.911C577.407 500.182 578.227 497.235 578.205 492.313C577.967 439.583 579.987 386.409 578.041 335.735C577.197 313.745 582.173 291.665 578.248 269.727C577.384 264.896 577.38 259.631 578.327 254.833C579.305 249.883 577.884 245.273 577.982 240.487C578.338 223.211 578.122 209.922 578.122 192.638C578.122 190.644 578.551 189.524 578.012 187.688C577.352 185.439 576.856 182.907 573.001 185.661C564.13 191.998 554.861 196.823 545.464 202.363C535.357 208.321 524.798 213.51 514.649 219.4C495.068 230.766 475.659 240.427 456.129 251.883C450.267 255.321 444.164 258.351 438.312 261.807C428.149 267.809 418.191 274.164 407.962 280.05C401.293 283.888 394.163 286.923 387.472 290.727C362.439 304.958 337.589 319.514 312.438 333.532C308.513 335.72 306.772 337.518 306.777 342.157C306.831 384.767 307.065 425.367 305.118 467.973C302.788 518.988 301.971 573.607 304.997 624.858ZM752.627 595.599C756.267 597.245 760.063 598.617 763.52 600.584C779.13 609.467 794.657 618.494 810.186 627.518C820.102 633.28 829.878 639.288 839.888 644.878C846.328 648.474 853.018 651.649 859.716 654.753C864.006 656.74 865.118 655.797 865.306 650.751C865.318 650.42 865.307 650.087 865.307 649.755C865.307 631.812 865.922 613.842 865.132 595.934C862.349 532.819 868.393 470.01 865.349 406.471C864.551 389.806 864.24 373.115 863.183 356.469C862.762 349.845 860.599 343.277 854.926 339.056C849.687 335.158 844.081 331.698 838.402 328.456C828.213 322.638 817.789 317.234 807.571 311.468C790.593 301.887 773.701 292.154 756.771 282.488C747.365 277.118 737.891 271.866 728.567 266.359C717.604 259.884 706.862 253.031 695.85 246.643C688.118 242.158 679.938 238.442 672.234 233.912C658.633 225.914 645.667 216.916 631.083 210.511C621.505 206.304 612.556 200.581 603.589 195.105C600.088 192.967 597.137 189.207 592.664 191.334C588.487 193.319 590.243 197.713 590.141 201.141C589.954 207.449 590.088 213.766 590.088 220.079C590.088 252.31 590.088 284.541 590.088 316.772C590.088 374.086 590.413 431.182 589.978 488.567C589.929 495.002 591.737 501.025 597.025 503.409C607.951 508.333 617.06 515.917 627.273 521.808C639.61 528.925 651.979 535.986 664.278 543.168C682.746 553.953 701.171 564.811 719.602 575.66C730.291 581.952 740.955 588.287 752.627 595.599ZM560.776 168.495C554.44 164.605 547.975 160.926 541.555 157.174C531.124 151.077 520.732 144.913 510.244 138.915C498.975 132.471 487.582 126.241 476.301 119.817C460.702 110.936 445.168 101.942 429.586 93.0309C417.235 85.9671 404.768 79.0999 392.509 71.8803C380.464 64.7871 368.712 57.1957 356.65 50.1348C348.133 45.1497 339.22 40.8442 330.647 35.9497C318.806 29.1892 306.984 22.3731 295.43 15.1406C290.82 12.2553 287.244 13.4488 283.32 15.8697C273.004 22.2339 262.82 28.8344 252.282 34.8084C244.808 39.0453 236.735 42.212 229.125 46.2258C220.106 50.982 211.369 56.2705 202.372 61.0702C195.865 64.5419 188.97 67.3029 182.549 70.9158C176.573 74.2778 171.017 78.3789 165.24 82.0982C154.306 89.1379 142.089 93.5469 130.47 99.1823C117.977 105.242 105.831 112.158 94.0649 119.547C71.5955 133.656 49.498 148.359 27.2617 162.839C24.9916 164.317 25.0118 167.724 27.2935 168.787C30.3529 170.211 33.6504 171.187 36.5682 172.844C59.9783 186.135 84.1745 198.274 106.462 213.248C131.802 230.273 159.341 242.992 185.684 258.003C195.359 263.516 205.176 268.792 214.693 274.564C226.941 281.993 238.689 290.275 251.135 297.34C265.624 305.566 281.254 311.69 295.064 321.271C298.096 323.375 302.178 323.457 305.825 320.604C308.971 318.144 312.606 316.241 316.197 314.433C327.736 308.626 339.451 303.163 350.917 297.217C362.696 291.108 374.464 284.928 385.877 278.172C406.458 265.987 426.934 253.608 447.153 240.834C469.697 226.591 492.557 212.925 516.286 200.761C523.9 196.857 573.958 179.589 560.776 168.495ZM817.443 913.697C817.443 911.039 816.748 908.14 817.57 905.767C820.312 897.851 821.542 889.79 821.438 881.462C821.299 870.409 822.29 859.269 819.41 848.408C816.487 837.383 814.851 825.858 807.479 816.475C802.451 810.076 796.793 803.502 789.158 801.371C779.487 798.671 769.251 797.617 758.979 800.899C744.7 805.461 730.558 810.362 719.313 820.55C702.743 835.562 687.772 852.009 676.174 871.379C662.632 893.996 652.094 917.861 650.232 944.258C648.796 964.605 648.093 985.388 654.091 1005.32C657.009 1015.02 662.227 1023.86 670.552 1030.39C680.973 1038.56 691.76 1041.63 705.564 1038.76C722.902 1035.16 738.761 1029.52 751.523 1017.31C764.939 1004.46 778.227 991.501 789.12 976.175C802.449 957.421 812.218 937.36 817.443 913.697ZM1059.76 637.481C1058.76 639.395 1056.98 641.271 1056.89 643.23C1056.13 658.569 1055.84 673.954 1055.32 689.277C1054.44 715.177 1052.42 741.31 1056.71 767.207C1056.9 768.357 1056.25 769.645 1056 770.869C1055.29 770.319 1054.38 769.908 1053.92 769.199C1042.57 751.686 1028.15 736.629 1015.12 720.467C1009.9 714.003 1004.75 707.492 999.608 700.969C994.876 694.965 990.288 688.845 985.466 682.914C982.839 679.683 980.276 677.761 975.689 681.177C971.069 684.617 965.463 686.823 960.116 689.175C953.858 691.927 951.042 695.93 950.877 703.243C950.18 734.207 951.766 765.137 949.544 796.175C947.366 826.595 949.047 857.293 949.091 887.868C949.099 893.128 950.966 894.156 955.244 891.574C961.888 887.563 968.298 883.043 975.292 879.775C979.94 877.603 981.128 874.922 981.072 870.184C980.847 851.243 980.979 832.298 980.979 813.355C980.979 794.743 980.941 776.132 981.032 757.521C981.042 755.398 981.779 753.279 982.18 751.158C983.529 752.576 984.857 754.015 986.234 755.406C989.039 758.241 991.869 761.051 994.689 763.871C998.449 767.631 1002.49 771.151 1005.91 775.197C1015.24 786.222 1024.3 797.469 1033.46 808.628C1039.57 816.068 1045.71 823.485 1051.78 830.956C1055.08 835.019 1059.51 836.287 1064.68 833.904C1070.27 831.328 1075.49 827.883 1081.19 825.623C1086.88 823.369 1088.9 819.853 1088.78 813.834C1088.42 796.81 1087.7 779.809 1087.04 762.803C1085.85 732.206 1086.21 701.522 1088.56 670.91C1089.27 661.659 1088.65 652.308 1088.69 643.002C1088.7 640.72 1088.02 637.765 1089.16 636.282C1092.79 631.58 1088.29 629.01 1086.44 626.734C1084.47 624.304 1081.03 624.995 1077.79 627.171C1072.45 630.771 1066.47 633.429 1059.76 637.481ZM575.13 717.254C569.759 716.59 564.395 715.424 559.015 715.35C539.145 715.075 524.984 704.312 512.613 690.393C510.959 688.532 510.601 685.164 510.387 682.435C509.19 667.191 514.549 655.346 526.853 645.487C542.532 632.924 560.583 626.402 579.651 623.888C602.08 620.931 623.833 625.551 643.548 637.491C649.979 641.385 656.265 646.27 657.555 653.705C658.678 660.182 657.165 667.208 656.242 673.912C655.656 678.166 656.172 680.582 660.972 681.486C664.53 682.156 667.814 684.173 671.31 685.311C677.757 687.409 684.243 689.399 690.765 691.251C695.856 692.697 700.402 691.198 701.733 687.644C703.457 683.039 705.42 678.43 706.349 673.642C707.731 666.52 711.378 659.972 708.033 651.826C703.207 640.073 697.732 629.851 687.299 621.566C662.697 602.032 634.906 593.066 603.982 591.493C587.405 590.649 571.439 593.893 555.719 597.879C545.086 600.576 534.226 602.981 524.21 608.335C512.989 614.333 500.815 619.229 491.579 627.793C478.146 640.25 463.464 651.985 461.93 673.312C461.211 683.31 463.111 691.882 467.895 699.257C474.83 709.949 484.136 718.448 495.266 725.786C517.702 740.58 542.566 744.733 568.201 747.093C582.762 748.434 596.935 744.063 611.367 743.12C615.2 742.87 616.441 740.318 614.487 736.749C610.919 730.233 607.24 723.751 603.118 717.581C602.154 716.138 599.203 715.292 597.226 715.389C590.511 715.717 583.823 716.589 575.13 717.254Z" fill="#1E1818"/>
<path d="M1088.67 308.414C1088.67 310.075 1088.67 310.739 1088.67 311.404C1088.67 322.433 1088.71 322.494 1079.61 328.341C1070.19 334.399 1060.61 340.223 1051.23 346.351C1046.74 349.284 1042.38 352.49 1038.33 355.993C1037.17 356.994 1036.88 359.467 1036.88 361.266C1036.8 403.104 1036.77 444.941 1036.91 486.778C1036.92 490.822 1039.58 495.293 1038.52 498.814C1036.16 506.678 1039.64 514.747 1036.74 522.291C1035.75 524.854 1034.27 527.748 1032.14 529.258C1025.03 534.296 1017.59 538.873 1010.12 543.388C1008.63 544.294 1005.43 545.017 1004.87 544.323C1003.4 542.516 1002.16 539.834 1002.28 537.577C1004.8 489.375 1000.92 437.433 1000.92 388.31C1000.92 386.318 1000.99 384.323 1000.91 382.334C1000.74 378.091 998.603 376.95 994.928 379.254C987.538 383.888 980.155 388.538 972.879 393.348C968.155 396.471 963.614 399.872 959.017 403.184C957.083 404.577 955.151 405.074 955.117 401.94C954.967 388.328 954.921 374.71 955.225 361.103C955.261 359.468 957.345 357.382 959.005 356.356C977.491 344.932 996.118 333.737 1014.63 322.357C1031.58 311.937 1048.44 301.368 1065.34 290.86C1070.89 287.412 1076.31 283.735 1082.05 280.656C1083.36 279.954 1086.62 279.109 1086.78 283.333C1087.09 291.374 1088.01 299.39 1088.67 308.414Z" fill="#1E1818"/>
<path d="M481.895 511.338C470.401 518.179 459.335 524.404 448.426 530.892C433.215 539.94 418.167 549.265 402.938 558.282C399.8 560.14 396.23 561.341 392.754 562.539C385.107 565.175 384.681 564.845 384.679 556.711C384.664 492.252 384.712 427.793 384.616 363.334C384.604 355.838 387.608 351.169 394.265 347.412C405.652 340.987 416.317 333.296 427.502 326.494C439.941 318.929 452.681 311.862 465.182 304.396C475.858 298.019 486.367 291.366 496.987 284.894C498.026 284.261 499.794 283.345 500.407 283.762C502.572 285.232 505.948 287.133 506.062 289.038C506.637 298.639 506.652 308.312 506.089 317.915C505.954 320.228 504.655 322.895 501.287 324.845C484.86 334.354 468.994 344.829 452.865 354.858C445.489 359.444 438.015 363.88 430.484 368.208C426.535 370.477 424.273 373.132 424.438 378.18C424.817 389.797 424.543 401.434 424.586 413.064C424.59 413.969 425.002 414.873 425.224 415.778C425.929 415.294 426.616 414.78 427.341 414.329C446.631 402.343 465.886 390.302 485.297 378.515C486.693 377.667 489.805 374.07 490.743 380.671C492.223 391.085 491.984 401.416 492.479 411.79C492.718 416.789 490.659 418.901 486.46 421.258C467.545 431.87 448.935 443.025 430.229 454.009C426.366 456.278 424.399 459.179 424.372 464.212C424.315 474.904 423.199 485.59 422.578 496.282C422.351 500.204 423.256 500.859 427.019 498.582C441.058 490.087 455.45 482.179 469.535 473.757C478.896 468.159 487.837 461.859 497.203 456.269C502.674 453.003 506.256 455.308 506.308 461.626C506.379 470.264 505.836 478.94 506.48 487.531C506.997 494.434 503.982 498.669 498.599 501.835C493.274 504.967 487.802 507.848 481.895 511.338Z" fill="#1E1818"/>
<path d="M718.224 393.672C731.171 407.283 744.241 419.868 755.913 433.638C771.514 452.045 783.774 473.122 788.583 496.644C792.141 514.043 792.983 533.179 775.875 546.587C773.445 548.491 771.262 549.364 768.203 549.893C753.088 552.506 739.408 547.96 726.537 541.235C719.595 537.607 713.704 531.824 707.669 526.629C692.685 513.732 681.947 497.509 671.743 480.777C665.419 470.407 662.083 458.84 656.924 448.03C655.349 444.731 654.283 442.245 660.016 441.833C665.181 441.462 670.166 439.055 675.337 438.152C679.237 437.47 681.998 438.184 684.275 443.049C689.244 453.664 694.94 464.201 702.001 473.508C710.629 484.88 719.332 496.826 734.9 500.233C741.512 501.68 744.6 501.014 747.656 495.453C752.418 486.787 748.689 479.945 743.661 472.813C731.117 455.02 714.612 440.949 700.011 425.093C686.547 410.471 674.977 394.25 666.032 376.436C663.031 370.46 661.191 363.671 660.066 357.042C658.668 348.806 658.163 340.359 657.984 331.988C657.672 317.454 666.104 304.827 679.79 299.659C685.817 297.383 692.291 297.236 698.518 300.14C712.963 306.877 726.207 315.403 739.315 324.53C754.393 335.029 762.277 350.413 771.498 365.056C776.097 372.359 779.52 380.412 784.238 387.626C786.71 391.405 785.207 391.619 782.197 392.6C774.237 395.194 766.145 396.827 757.786 396.016C756.301 395.872 754.68 394 753.679 392.543C748.722 385.329 744.431 377.606 739.003 370.78C731.151 360.905 720.241 354.735 709.262 348.925C706.56 347.495 701.162 350.939 699.778 354.424C696.633 362.342 698.866 369.827 703.112 376.256C707.184 382.423 712.792 387.575 718.224 393.672Z" fill="#1E1818"/>
<path d="M421.068 132.413C426.029 142.572 426.8 152.992 423.795 162.599C422.69 166.131 421.751 169.719 420.546 173.216C418.21 179.994 417.076 180.384 409.075 178.812C398.296 176.695 387.474 174.794 376.671 172.797C375.44 172.569 374.174 172.436 372.988 172.06C365.874 169.802 366.404 169.881 367.778 162.538C368.619 158.042 368.213 153.045 367.22 148.525C364.711 137.099 356.577 129.179 346.88 124.505C332.544 117.594 317.006 112.069 300.873 113.344C289.226 114.264 277.627 117.403 266.093 120.373C247.666 125.119 232.965 134.889 219.401 147.464C213.765 152.689 212.585 159.97 209.225 166.229C208.81 167.003 208.779 168.437 209.228 169.152C215.041 178.401 217.236 189.718 229.284 195.077C242.58 200.99 255.849 204.876 270.242 207.248C281.494 209.102 291.437 207.903 301.739 204.69C302.831 204.35 303.846 203.762 304.897 203.289C303.898 202.431 302.99 201.427 301.886 200.739C295.028 196.463 288.159 192.203 281.229 188.046C274.852 184.222 268.608 180.061 261.867 177.02C259.157 175.798 258.466 175.678 260.914 173.982C265.525 170.784 270.254 167.739 275.074 164.864C278.239 162.977 282.514 162.266 284.784 159.697C291.303 152.317 297.81 155.8 304.025 159.121C313.857 164.373 323.332 170.293 332.959 175.931C344.189 182.508 355.441 189.05 366.639 195.683C370.392 197.906 373.737 201.236 377.757 202.482C382.451 203.937 381.294 205.71 378.804 207.435C373.963 210.789 368.736 213.578 363.727 216.695C352.119 223.918 339.8 229.543 326.45 232.556C318.784 234.287 310.826 234.785 303.226 236.727C289.272 240.293 275.172 238.372 261.161 238.478C240.796 238.633 220.944 234.684 203.273 224.439C186.561 214.75 170.447 203.962 162.222 184.87C156.161 170.801 159.555 158.26 167.011 146.44C170.942 140.209 176.605 135.044 181.653 129.55C197.64 112.148 217.98 102.017 240.117 95.0587C251.309 91.5411 261.493 86.9439 273.914 85.2219C286.334 83.5 299.635 83.1473 310.335 83.5C324.585 83.9698 354.593 88.893 374.172 95.5435C388.684 100.473 400.887 109.333 411.986 119.594C415.576 122.913 417.748 127.764 421.068 132.413Z" fill="#1E1818"/>
<path d="M785.534 868.824C786.198 878.171 787.396 886.519 787.407 894.868C787.425 908.498 784.141 921.465 777.658 933.572C772.867 942.52 769.133 952.167 763.416 960.459C751.855 977.226 735.256 987.414 715.653 992.359C706.858 994.577 695.166 988.812 690.315 979.857C681.912 964.345 678.79 947.853 683.851 930.484C686.347 921.919 689.023 913.401 691.824 904.93C697.867 886.652 708.693 872.025 724.442 860.706C732.09 855.209 739.049 849.389 748.519 846.566C756.504 844.185 763.134 844.365 770.223 848.416C777.169 852.385 782.762 857.053 783.618 865.66C783.695 866.439 784.869 867.108 785.534 868.824Z" fill="#1E1818"/>
</svg>
