<svg width="1071" height="1077" viewBox="0 0 1071 1077" fill="none" xmlns="http://www.w3.org/2000/svg">
<path fill-rule="evenodd" clip-rule="evenodd" d="M407.022 698.443L406.639 698.208C392.713 689.692 379.301 681.489 365.718 673.585C354.588 667.109 343.357 660.807 332.126 654.504L332.114 654.498C329.316 652.928 326.518 651.357 323.721 649.784C318.686 646.953 313.632 644.154 308.578 641.356C297.339 635.132 286.1 628.909 275.078 622.324C269.871 619.213 266.145 614.867 266.191 607.133C266.346 581.101 266.281 555.065 266.216 529.03V529.02C266.107 485.319 265.998 441.62 266.926 397.942C267.143 387.74 267.247 377.535 267.352 367.329C267.528 350.189 267.704 333.044 268.41 315.92C268.685 309.263 266.177 305.802 260.684 302.75C253.382 298.693 246.215 294.396 239.047 290.098C234.317 287.263 229.587 284.427 224.818 281.66C220.587 279.205 216.303 276.838 212.02 274.471C206.917 271.652 201.814 268.833 196.8 265.864C191.147 262.517 185.563 259.054 179.979 255.591C174.231 252.026 168.478 248.458 162.655 245.02C157.235 241.82 151.718 238.784 146.202 235.748C142.079 233.479 137.955 231.209 133.873 228.872C127.474 225.208 121.119 221.468 114.763 217.729C110.882 215.445 106.994 213.158 103.103 210.891C97.1541 207.426 91.197 203.976 85.2398 200.525C79.9448 197.459 74.6498 194.392 69.3607 191.315C65.6748 189.17 62.0201 186.967 58.3644 184.763C50.1419 179.805 41.9165 174.846 33.3537 170.57C30.8835 169.336 28.4795 167.931 26.07 166.523C19.7227 162.812 13.3367 159.079 5.60099 158.404C3.87659 158.254 1.49138 156.148 0.995082 154.476C0.6506 153.316 2.01819 151.525 3.1471 150.046C3.31386 149.828 3.4771 149.614 3.62711 149.412C4.15641 148.7 5.12803 148.274 6.03784 147.875C6.19451 147.806 6.35064 147.737 6.50106 147.669C20.8111 141.153 33.8523 132.542 46.893 123.931C52.3144 120.352 57.7357 116.772 63.248 113.343C68.358 110.164 73.4477 106.952 78.5373 103.739C88.1034 97.701 97.6694 91.663 107.37 85.8496C122.434 76.8223 138.184 69.0906 153.926 61.3631C165.697 55.5844 177.464 49.8082 188.936 43.4943C191.471 42.0988 194.018 40.7153 196.569 39.3296C210.7 31.6529 224.934 23.9201 237.753 13.8684C243.358 9.47341 250.092 6.44515 256.741 3.45511C258.105 2.84179 259.465 2.2299 260.812 1.60834C262.983 0.60559 266.526 0.765433 268.694 1.86323C279.499 7.33345 290.126 13.1677 300.677 19.119C309.303 23.9843 317.822 29.0407 326.34 34.0965C327.795 34.9604 329.252 35.8248 330.707 36.6877C336.977 40.4038 343.231 44.1483 349.484 47.8928C361.449 55.0577 373.414 62.2225 385.495 69.1875C392.88 73.4459 400.379 77.5095 407.877 81.5731C415.25 85.5692 422.625 89.5661 429.892 93.7475C439.703 99.3925 449.407 105.221 459.112 111.05C465.915 115.136 472.718 119.222 479.557 123.245C485.244 126.589 490.995 129.824 496.745 133.059C500.838 135.36 504.932 137.663 509.002 140.005C516.47 144.302 523.922 148.627 531.374 152.952C538.346 156.998 545.318 161.045 552.304 165.068C566.501 173.246 580.726 181.374 594.957 189.493C598.893 191.738 602.841 193.963 606.79 196.187C611.202 198.673 615.618 201.161 620.014 203.677C623.319 205.568 626.6 207.5 629.882 209.433C632.45 210.945 635.018 212.457 637.597 213.95C640.981 215.908 644.374 217.85 647.766 219.793L647.776 219.798L647.792 219.808C652.973 222.774 658.154 225.74 663.303 228.762C669.024 232.12 674.726 235.51 680.429 238.899L680.44 238.906L680.449 238.912C688.121 243.472 695.794 248.034 703.511 252.516C708.874 255.631 714.292 258.649 719.71 261.667C724.398 264.278 729.092 266.893 733.744 269.567C742.927 274.846 752.069 280.198 761.211 285.55C764.759 287.627 768.308 289.704 771.859 291.777C773.523 292.749 775.174 293.75 776.825 294.75C780.989 297.273 785.151 299.795 789.531 301.858C791.358 302.718 794.622 301.6 796.777 300.503C806.062 295.782 815.238 290.834 824.343 285.771C828.822 283.28 833.248 280.693 837.673 278.107C841.545 275.844 845.417 273.581 849.324 271.382C856.865 267.139 864.431 262.938 871.996 258.738C886.139 250.886 900.283 243.033 914.262 234.9C925.587 228.311 936.755 221.456 947.924 214.6C956.088 209.589 964.253 204.578 972.479 199.67C977.495 196.678 982.628 193.884 987.763 191.091C992.042 188.762 996.327 186.431 1000.54 183.986C1002.43 182.889 1004.21 181.551 1005.98 180.217C1008.6 178.245 1011.21 176.282 1014.16 175.118C1023.72 171.335 1032.43 166.09 1041.13 160.845C1044.98 158.528 1048.83 156.212 1052.74 154.022C1055.15 152.676 1057.99 151.626 1060.71 151.41C1066.37 150.958 1068.81 154.63 1067.98 160.647C1067.79 162.014 1068.12 163.44 1068.45 164.878C1068.68 165.848 1068.9 166.823 1068.97 167.79C1069.05 168.931 1068.95 170.083 1068.85 171.236C1068.78 172.057 1068.71 172.878 1068.7 173.697C1068.7 174.483 1068.78 175.27 1068.86 176.057C1068.93 176.738 1069 177.422 1069.01 178.104C1069.9 223.299 1069.07 268.075 1068.25 312.757C1067.52 352.826 1066.78 392.819 1067.28 432.967C1067.31 435.379 1067.71 437.806 1068.11 440.225C1068.63 443.338 1069.14 446.439 1068.86 449.481C1067.22 467.213 1067.21 484.964 1067.2 502.716C1067.2 508.98 1067.19 515.244 1067.12 521.508C1067.09 524.065 1066.69 526.635 1066.29 529.199C1065.77 532.467 1065.26 535.727 1065.53 538.935C1067.87 567.431 1067.55 595.953 1067.24 624.473C1067.08 639.174 1066.92 653.879 1067.12 668.576C1067.36 686.125 1067.31 703.678 1067.26 721.231C1067.23 733.695 1067.19 746.159 1067.26 758.622C1067.31 767.189 1063.43 772.62 1056.43 777.25C1048.87 782.246 1040.96 786.622 1033.05 791.001C1024.6 795.677 1016.15 800.358 1008.11 805.795C999.624 811.538 990.54 816.394 981.453 821.252C976.582 823.855 971.703 826.463 966.922 829.205C959.151 833.661 951.431 838.204 943.71 842.748L943.688 842.76C936.79 846.82 929.891 850.88 922.956 854.877C917.134 858.233 911.27 861.517 905.405 864.8L905.393 864.807C898.701 868.553 892.006 872.301 885.378 876.155C877.231 880.892 869.132 885.697 861.027 890.506L861.015 890.514L860.996 890.525L860.984 890.532C851.334 896.258 841.685 901.983 831.965 907.586C826.773 910.579 821.471 913.382 816.17 916.184C811.011 918.911 805.849 921.639 800.792 924.541C792.479 929.311 784.256 934.236 776.033 939.162L776.02 939.169C770.645 942.389 765.271 945.608 759.871 948.783C752.965 952.845 746.016 956.833 739.066 960.821L739.049 960.832C735.955 962.607 732.861 964.383 729.77 966.165C728.507 966.894 727.244 967.623 725.981 968.353C724.184 969.392 722.388 970.432 720.591 971.471L720.582 971.477L720.572 971.482C713.609 975.512 706.646 979.542 699.652 983.516C694.752 986.299 689.829 989.042 684.906 991.786L684.897 991.791L684.888 991.796L684.874 991.803C679.456 994.823 674.038 997.842 668.65 1000.91C656.375 1007.92 644.132 1014.98 631.952 1022.14C627.363 1024.84 622.817 1027.61 618.271 1030.39L618.261 1030.39C613.615 1033.23 608.97 1036.06 604.278 1038.82C589.898 1047.26 575.471 1055.63 560.982 1063.89C554.627 1067.51 548.156 1070.96 541.582 1074.16C535.742 1077.01 530.579 1073.74 530.33 1067.35C530.29 1066.32 530.301 1065.28 530.312 1064.24C530.317 1063.76 530.322 1063.28 530.322 1062.8C530.322 1044.49 530.32 1026.17 530.318 1007.85C530.31 930.964 530.303 854.08 530.433 777.197C530.444 770.7 529.38 767.195 522.449 764C513.312 759.788 504.659 754.536 496.002 749.282C491.582 746.599 487.157 743.914 482.669 741.367C476.177 737.684 469.632 734.093 463.088 730.502C456.037 726.634 448.981 722.763 441.997 718.779C436.338 715.551 430.778 712.149 425.218 708.747L425.206 708.739C421.582 706.522 417.957 704.304 414.305 702.134C413.191 701.472 412.014 700.915 410.759 700.322C409.586 699.766 408.345 699.179 407.022 698.443Z" fill="#F5EEDE"/>
<path d="M196.092 39.5884C196.251 39.5021 196.41 39.4159 196.569 39.3296M196.569 39.3296C194.018 40.7153 191.471 42.0988 188.936 43.4943C177.464 49.8082 165.697 55.5845 153.926 61.3631C138.184 69.0906 122.434 76.8223 107.37 85.8496C97.6694 91.663 88.1034 97.701 78.5373 103.739C73.4477 106.952 68.358 110.164 63.248 113.343C57.7357 116.772 52.3144 120.352 46.893 123.931C33.8523 132.542 20.8111 141.153 6.50106 147.669C6.35064 147.737 6.19451 147.806 6.03784 147.875C5.12803 148.274 4.15641 148.7 3.62711 149.412C3.4771 149.614 3.31386 149.828 3.1471 150.046C2.01819 151.525 0.6506 153.316 0.995082 154.476C1.49138 156.148 3.87659 158.254 5.60099 158.404C13.3367 159.079 19.7227 162.812 26.07 166.523C28.4795 167.931 30.8835 169.336 33.3537 170.57C41.9165 174.846 50.1419 179.805 58.3644 184.763C62.0201 186.967 65.6748 189.17 69.3607 191.315C74.6498 194.392 79.9448 197.459 85.2398 200.525C91.1969 203.976 97.1541 207.426 103.103 210.891C106.994 213.158 110.882 215.445 114.763 217.729C121.119 221.468 127.474 225.208 133.873 228.872C137.955 231.209 142.079 233.479 146.202 235.748C151.718 238.784 157.235 241.82 162.655 245.02C168.478 248.458 174.231 252.026 179.979 255.591C185.563 259.054 191.147 262.517 196.8 265.864C201.814 268.833 206.917 271.652 212.02 274.471C216.303 276.838 220.587 279.205 224.818 281.66C229.587 284.427 234.317 287.263 239.047 290.098C246.215 294.396 253.382 298.693 260.684 302.75C266.177 305.802 268.685 309.263 268.41 315.92C267.704 333.044 267.528 350.189 267.352 367.329C267.247 377.535 267.143 387.74 266.926 397.942C265.998 441.62 266.107 485.319 266.216 529.02M196.569 39.3296C210.7 31.6529 224.934 23.9201 237.753 13.8684C243.358 9.47341 250.092 6.44515 256.741 3.45511C258.105 2.84179 259.465 2.2299 260.812 1.60834C262.983 0.60559 266.526 0.765433 268.694 1.86323C279.499 7.33345 290.126 13.1677 300.677 19.119C309.303 23.9843 317.822 29.0407 326.34 34.0965C327.795 34.9604 329.252 35.8248 330.707 36.6877C336.977 40.4038 343.231 44.1483 349.484 47.8928C361.449 55.0577 373.414 62.2225 385.495 69.1875C392.88 73.4459 400.379 77.5095 407.877 81.5731C415.25 85.5692 422.625 89.5661 429.892 93.7475C439.703 99.3925 449.407 105.221 459.112 111.05C465.915 115.136 472.718 119.222 479.557 123.245C485.244 126.589 490.995 129.824 496.745 133.059C500.838 135.36 504.932 137.663 509.002 140.005C516.47 144.302 523.922 148.627 531.374 152.952C538.346 156.998 545.318 161.045 552.304 165.068C566.501 173.246 580.726 181.374 594.957 189.493C598.893 191.738 602.841 193.963 606.79 196.187C611.202 198.673 615.618 201.161 620.014 203.677C623.319 205.568 626.6 207.5 629.882 209.433C632.45 210.945 635.018 212.457 637.597 213.95C640.981 215.908 644.374 217.85 647.766 219.793L647.776 219.798L647.792 219.808C652.973 222.774 658.154 225.74 663.303 228.762C669.024 232.12 674.726 235.51 680.429 238.899L680.44 238.906L680.449 238.912C688.121 243.472 695.794 248.034 703.511 252.516C708.874 255.631 714.292 258.649 719.71 261.667C724.398 264.278 729.092 266.893 733.744 269.567C742.927 274.846 752.069 280.198 761.211 285.55C764.759 287.627 768.308 289.704 771.858 291.777C773.523 292.749 775.174 293.75 776.825 294.75C780.989 297.273 785.151 299.795 789.531 301.858C791.358 302.718 794.622 301.6 796.777 300.503C806.063 295.782 815.238 290.834 824.343 285.771C828.822 283.28 833.248 280.693 837.673 278.107C841.545 275.844 845.417 273.581 849.324 271.382C856.865 267.139 864.431 262.938 871.996 258.738C886.139 250.886 900.283 243.033 914.262 234.9C925.587 228.311 936.755 221.456 947.924 214.6C956.088 209.589 964.253 204.578 972.479 199.67C977.495 196.678 982.628 193.884 987.762 191.091C992.042 188.762 996.327 186.431 1000.54 183.986C1002.43 182.889 1004.21 181.551 1005.98 180.217C1008.6 178.245 1011.21 176.282 1014.16 175.118C1023.72 171.335 1032.43 166.09 1041.13 160.845C1044.98 158.528 1048.83 156.212 1052.74 154.022C1055.15 152.676 1057.99 151.626 1060.71 151.41C1066.37 150.958 1068.81 154.63 1067.98 160.647C1067.79 162.014 1068.12 163.44 1068.45 164.878C1068.68 165.848 1068.9 166.823 1068.97 167.79C1069.05 168.931 1068.95 170.083 1068.85 171.236C1068.78 172.057 1068.71 172.878 1068.7 173.697C1068.7 174.483 1068.78 175.27 1068.86 176.057C1068.93 176.738 1069 177.422 1069.01 178.104C1069.9 223.299 1069.07 268.075 1068.25 312.757C1067.52 352.826 1066.78 392.819 1067.28 432.967C1067.31 435.379 1067.71 437.806 1068.11 440.225C1068.63 443.338 1069.14 446.439 1068.86 449.481C1067.22 467.213 1067.21 484.964 1067.2 502.716C1067.2 508.98 1067.19 515.244 1067.12 521.508C1067.09 524.065 1066.69 526.635 1066.29 529.199C1065.77 532.467 1065.26 535.727 1065.53 538.935C1067.87 567.431 1067.55 595.953 1067.24 624.473C1067.08 639.174 1066.92 653.879 1067.12 668.576C1067.36 686.125 1067.31 703.678 1067.26 721.231C1067.23 733.695 1067.19 746.159 1067.26 758.622C1067.31 767.189 1063.43 772.62 1056.43 777.25C1048.87 782.246 1040.96 786.622 1033.05 791.001C1024.6 795.677 1016.15 800.358 1008.11 805.795C999.624 811.538 990.54 816.394 981.453 821.252C976.582 823.855 971.703 826.463 966.922 829.205C959.151 833.661 951.431 838.204 943.71 842.748L943.688 842.76C936.79 846.82 929.891 850.88 922.956 854.877C917.134 858.233 911.27 861.517 905.405 864.8L905.393 864.807C898.701 868.553 892.006 872.301 885.378 876.155C877.231 880.892 869.132 885.697 861.027 890.506L861.015 890.514L860.996 890.525L860.984 890.532C851.334 896.258 841.685 901.983 831.965 907.586C826.773 910.579 821.471 913.382 816.17 916.184C811.011 918.911 805.849 921.639 800.792 924.541C792.479 929.311 784.256 934.236 776.033 939.162L776.02 939.169C770.645 942.389 765.271 945.608 759.871 948.783C752.965 952.845 746.016 956.833 739.066 960.821L739.049 960.832C735.955 962.607 732.861 964.383 729.77 966.165C728.507 966.894 727.244 967.623 725.981 968.353C724.184 969.392 722.388 970.432 720.591 971.471L720.582 971.477L720.572 971.482C713.609 975.512 706.646 979.542 699.652 983.516C694.752 986.299 689.829 989.042 684.906 991.786L684.897 991.791L684.888 991.796L684.874 991.803C679.456 994.823 674.038 997.842 668.65 1000.91C656.375 1007.92 644.132 1014.98 631.952 1022.14C627.363 1024.84 622.817 1027.61 618.271 1030.39L618.261 1030.39C613.615 1033.23 608.97 1036.06 604.278 1038.82C589.898 1047.26 575.471 1055.63 560.982 1063.89C554.627 1067.51 548.156 1070.96 541.582 1074.16C535.742 1077.01 530.579 1073.74 530.33 1067.35C530.29 1066.32 530.301 1065.28 530.312 1064.24C530.317 1063.76 530.322 1063.28 530.322 1062.8C530.322 1044.49 530.32 1026.17 530.318 1007.85C530.31 930.964 530.303 854.08 530.433 777.197C530.444 770.7 529.38 767.195 522.449 764C513.312 759.788 504.659 754.536 496.002 749.282C491.582 746.599 487.157 743.914 482.669 741.367C476.177 737.684 469.632 734.093 463.088 730.502C456.037 726.634 448.981 722.763 441.997 718.779C436.338 715.551 430.778 712.149 425.218 708.747L425.206 708.739C421.582 706.522 417.957 704.304 414.305 702.134C413.191 701.472 412.014 700.915 410.759 700.322C409.586 699.766 408.345 699.179 407.022 698.443M266.216 529.02C266.209 526.289 266.202 523.557 266.196 520.826M266.216 529.02V529.03C266.281 555.065 266.346 581.101 266.191 607.133C266.145 614.867 269.871 619.213 275.078 622.324C286.1 628.909 297.339 635.132 308.578 641.356C313.632 644.154 318.686 646.953 323.721 649.784C326.518 651.357 329.316 652.928 332.114 654.498L332.126 654.504C343.357 660.807 354.588 667.109 365.718 673.585C379.301 681.489 392.713 689.692 406.639 698.208M407.022 698.443L406.639 698.208M407.022 698.443C406.894 698.364 406.767 698.286 406.639 698.208M724.456 969.235C723.969 969.517 723.481 969.799 722.995 970.08L722.829 970.176C723.371 969.863 723.913 969.549 724.456 969.235Z" stroke="#1E1818" stroke-width="1.88136"/>
<path fill-rule="evenodd" clip-rule="evenodd" d="M407.022 698.443L406.639 698.208C392.714 689.692 379.301 681.489 365.718 673.585C354.588 667.109 343.357 660.807 332.126 654.504L332.114 654.498C329.316 652.928 326.518 651.357 323.721 649.784C318.687 646.953 313.632 644.154 308.578 641.356C297.339 635.132 286.1 628.909 275.078 622.324C269.871 619.213 266.145 614.867 266.191 607.133C266.346 581.101 266.281 555.065 266.216 529.03V529.02C266.107 485.319 265.998 441.62 266.926 397.942C267.143 387.74 267.247 377.535 267.352 367.329C267.528 350.189 267.704 333.044 268.41 315.92C268.685 309.263 266.177 305.802 260.684 302.75C253.382 298.693 246.215 294.396 239.047 290.098C234.317 287.263 229.587 284.427 224.818 281.66C220.587 279.205 216.303 276.838 212.02 274.471C206.917 271.652 201.814 268.833 196.8 265.864C191.147 262.517 185.563 259.054 179.979 255.591C174.231 252.026 168.478 248.458 162.655 245.02C157.235 241.82 151.718 238.784 146.202 235.748C142.079 233.479 137.955 231.209 133.873 228.872C127.474 225.208 121.119 221.468 114.763 217.729C110.882 215.445 106.994 213.158 103.103 210.891C97.1541 207.426 91.197 203.976 85.2398 200.525C79.9448 197.459 74.6498 194.392 69.3607 191.315C65.6748 189.17 62.0201 186.967 58.3644 184.763C50.1419 179.805 41.9165 174.846 33.3537 170.57C30.8835 169.336 28.4795 167.931 26.07 166.523C19.7227 162.812 13.3367 159.079 5.60099 158.404C3.87659 158.254 1.49138 156.148 0.995082 154.476C0.6506 153.316 2.01819 151.525 3.1471 150.046C3.31386 149.828 3.4771 149.614 3.62711 149.412C4.15641 148.7 5.12803 148.274 6.03784 147.875C6.19451 147.806 6.35064 147.737 6.50106 147.669C20.8111 141.153 33.8523 132.542 46.8931 123.931C52.3144 120.352 57.7357 116.772 63.248 113.343C68.3581 110.164 73.4477 106.952 78.5373 103.739C88.1034 97.701 97.6694 91.663 107.37 85.8496C122.434 76.8223 138.184 69.0906 153.926 61.3631C165.697 55.5845 177.464 49.8082 188.936 43.4943C191.471 42.0988 194.018 40.7153 196.569 39.3296C210.7 31.6529 224.934 23.9201 237.753 13.8684C243.358 9.47341 250.092 6.44515 256.741 3.45511C258.105 2.84179 259.465 2.2299 260.812 1.60834C262.983 0.60559 266.526 0.765433 268.694 1.86323C279.499 7.33345 290.126 13.1677 300.677 19.119C309.303 23.9843 317.822 29.0407 326.34 34.0965C327.795 34.9604 329.252 35.8248 330.708 36.6877C336.977 40.4038 343.231 44.1483 349.484 47.8928C361.449 55.0577 373.414 62.2225 385.495 69.1875C392.88 73.4459 400.379 77.5095 407.877 81.5731C415.25 85.5692 422.626 89.5661 429.892 93.7475C439.703 99.3925 449.407 105.221 459.112 111.05C465.915 115.136 472.718 119.222 479.557 123.245C485.244 126.589 490.995 129.824 496.746 133.059C500.838 135.36 504.932 137.663 509.002 140.005C516.47 144.302 523.922 148.627 531.374 152.952C538.346 156.998 545.318 161.045 552.304 165.068C566.501 173.246 580.726 181.374 594.957 189.493C598.893 191.738 602.841 193.963 606.79 196.187C611.202 198.673 615.619 201.161 620.014 203.677C623.319 205.568 626.601 207.5 629.882 209.433C632.45 210.945 635.018 212.457 637.597 213.95C640.981 215.908 644.374 217.85 647.766 219.793L647.776 219.798L647.792 219.808C652.973 222.774 658.154 225.74 663.303 228.762C669.024 232.12 674.726 235.51 680.429 238.899L680.44 238.906L680.449 238.912C688.121 243.472 695.795 248.034 703.511 252.516C708.874 255.631 714.292 258.649 719.71 261.667C724.398 264.278 729.092 266.893 733.744 269.567C742.928 274.846 752.069 280.198 761.211 285.55C764.759 287.627 768.308 289.704 771.859 291.777C773.523 292.749 775.174 293.75 776.825 294.75C780.989 297.273 785.151 299.795 789.531 301.858C791.358 302.718 794.622 301.6 796.777 300.503C806.063 295.782 815.238 290.834 824.343 285.771C828.822 283.28 833.248 280.693 837.673 278.107C841.545 275.844 845.417 273.581 849.324 271.382C856.865 267.139 864.431 262.938 871.996 258.738C886.139 250.886 900.283 243.033 914.262 234.9C925.587 228.311 936.755 221.456 947.924 214.6C956.089 209.589 964.253 204.578 972.479 199.67C977.495 196.678 982.628 193.884 987.763 191.091C992.042 188.762 996.327 186.431 1000.54 183.986C1002.43 182.889 1004.21 181.551 1005.98 180.217C1008.6 178.245 1011.21 176.282 1014.16 175.118C1023.72 171.335 1032.43 166.09 1041.13 160.845C1044.98 158.528 1048.83 156.212 1052.74 154.022C1055.15 152.676 1057.99 151.626 1060.71 151.41C1066.37 150.958 1068.81 154.63 1067.98 160.647C1067.79 162.014 1068.12 163.44 1068.45 164.878C1068.68 165.848 1068.9 166.823 1068.97 167.79C1069.05 168.931 1068.95 170.083 1068.85 171.236C1068.78 172.057 1068.71 172.878 1068.7 173.697C1068.7 174.483 1068.78 175.27 1068.86 176.057C1068.93 176.738 1069 177.422 1069.01 178.104C1069.9 223.299 1069.07 268.075 1068.25 312.757C1067.52 352.826 1066.78 392.819 1067.28 432.967C1067.31 435.379 1067.71 437.806 1068.11 440.225C1068.63 443.338 1069.14 446.439 1068.86 449.481C1067.22 467.213 1067.21 484.964 1067.2 502.716C1067.2 508.98 1067.19 515.244 1067.12 521.508C1067.09 524.065 1066.69 526.635 1066.29 529.199C1065.77 532.467 1065.26 535.727 1065.53 538.935C1067.87 567.431 1067.55 595.953 1067.24 624.473C1067.08 639.174 1066.92 653.879 1067.12 668.576C1067.36 686.125 1067.31 703.678 1067.26 721.231C1067.23 733.695 1067.19 746.159 1067.26 758.622C1067.31 767.189 1063.43 772.62 1056.43 777.25C1048.87 782.246 1040.96 786.622 1033.05 791.001C1024.6 795.677 1016.15 800.358 1008.11 805.795C999.624 811.538 990.54 816.394 981.453 821.252C976.582 823.855 971.703 826.463 966.922 829.205C959.151 833.661 951.431 838.204 943.71 842.748L943.689 842.76C936.79 846.82 929.891 850.88 922.957 854.877C917.134 858.233 911.27 861.517 905.405 864.8L905.393 864.807C898.702 868.553 892.006 872.301 885.378 876.155C877.231 880.892 869.132 885.697 861.027 890.506L861.015 890.514L860.996 890.525L860.984 890.532C851.334 896.258 841.685 901.983 831.965 907.586C826.773 910.579 821.471 913.382 816.17 916.184C811.011 918.911 805.849 921.639 800.792 924.541C792.479 929.311 784.256 934.236 776.033 939.162L776.02 939.169C770.645 942.389 765.271 945.608 759.871 948.783C752.965 952.845 746.016 956.833 739.067 960.821L739.049 960.832C735.955 962.607 732.861 964.383 729.77 966.165C728.507 966.894 727.244 967.623 725.981 968.353C724.184 969.392 722.388 970.432 720.591 971.471L720.582 971.477L720.572 971.482C713.609 975.512 706.646 979.542 699.652 983.516C694.752 986.299 689.829 989.042 684.906 991.786L684.897 991.791L684.888 991.796L684.874 991.803C679.456 994.823 674.038 997.842 668.65 1000.91C656.375 1007.92 644.132 1014.98 631.952 1022.14C627.363 1024.84 622.817 1027.61 618.271 1030.39L618.261 1030.39C613.615 1033.23 608.97 1036.06 604.278 1038.82C589.898 1047.26 575.471 1055.63 560.982 1063.89C554.627 1067.51 548.156 1070.96 541.582 1074.16C535.742 1077.01 530.579 1073.74 530.331 1067.35C530.29 1066.32 530.301 1065.28 530.312 1064.24C530.317 1063.76 530.322 1063.28 530.322 1062.8C530.322 1044.49 530.32 1026.17 530.318 1007.85C530.31 930.964 530.303 854.08 530.433 777.197C530.444 770.7 529.38 767.195 522.449 764C513.312 759.788 504.659 754.536 496.002 749.282C491.582 746.599 487.157 743.914 482.669 741.367C476.177 737.684 469.633 734.093 463.088 730.502C456.037 726.634 448.982 722.763 441.997 718.779C436.338 715.551 430.778 712.149 425.218 708.747L425.206 708.739C421.582 706.522 417.957 704.304 414.305 702.134C413.191 701.472 412.014 700.915 410.759 700.322C409.586 699.766 408.345 699.179 407.022 698.443ZM830.641 295.944C823.255 300.441 815.868 304.938 808.22 308.935C803.3 311.506 801.16 314.327 801.432 319.777C801.91 329.377 801.969 338.976 802.028 348.582C802.096 359.637 802.164 370.703 802.871 381.793C804.027 399.905 803.859 418.059 803.69 436.228C803.507 456.016 803.323 475.822 804.85 495.61C805.545 504.623 804.902 513.734 804.257 522.851C803.867 528.368 803.477 533.887 803.383 539.393C803.17 551.876 803.219 564.363 803.268 576.85L803.268 576.895C803.289 582.278 803.31 587.661 803.31 593.043C803.31 593.604 803.273 594.176 803.236 594.747C803.152 596.029 803.069 597.312 803.405 598.472C803.429 598.554 803.452 598.636 803.475 598.718C803.513 598.854 803.549 598.99 803.585 599.125C804.139 601.198 804.617 602.986 808.354 600.506C816.211 595.293 824.539 590.774 832.855 586.263C834.472 585.386 836.088 584.509 837.701 583.627C840.038 582.349 842.482 581.239 844.923 580.131C848.652 578.438 852.374 576.748 855.698 574.465C867.339 566.471 879.731 559.814 892.121 553.157C900.143 548.847 908.169 544.535 915.984 539.864C919.584 537.712 923.167 535.531 926.75 533.35L926.763 533.342C933.822 529.045 940.882 524.747 948.07 520.676C952.111 518.387 956.276 516.315 960.441 514.243C965.092 511.93 969.743 509.617 974.218 507.002C982.652 502.074 990.982 496.968 999.311 491.861C1006.45 487.486 1013.59 483.108 1020.79 478.845C1030.49 473.103 1040.36 467.614 1050.41 462.499C1057.97 458.646 1057.08 407.188 1056.51 374.505C1056.32 363.802 1056.17 355.113 1056.36 350.768C1056.54 346.8 1056.38 342.848 1056.23 338.892C1056.07 334.873 1055.92 330.849 1056.1 326.802C1056.55 317.219 1056.46 307.61 1056.36 298.002C1056.32 293.964 1056.28 289.926 1056.28 285.89C1056.28 281.828 1056.32 277.763 1056.36 273.699C1056.45 264.421 1056.54 255.143 1056.16 245.884C1055.92 240.075 1056.2 234.285 1056.47 228.493C1056.83 221.163 1057.18 213.83 1056.48 206.447C1055.74 198.585 1055.95 190.628 1056.17 182.68C1056.24 179.998 1056.31 177.316 1056.35 174.64C1056.37 173.159 1056.87 171.674 1057.37 170.206C1057.52 169.769 1057.67 169.335 1057.8 168.902C1058.12 167.868 1058.53 166.862 1058.94 165.855C1059.13 165.407 1059.31 164.955 1059.49 164.505C1059.21 164.587 1058.93 164.666 1058.65 164.743C1058.46 164.795 1058.27 164.847 1058.08 164.898C1057.04 165.184 1055.99 165.469 1054.99 165.875L1054.68 165.999C1052.71 166.802 1050.7 167.615 1048.9 168.727C1045.62 170.751 1042.4 172.904 1039.18 175.056C1032.43 179.564 1025.69 184.07 1018.41 187.38C1010.67 190.893 1003.72 195.516 996.77 200.133C992.657 202.867 988.546 205.599 984.28 208.097C981.927 209.475 979.602 210.888 977.277 212.301C971.406 215.87 965.541 219.435 959.259 222.408L958.173 222.921C948.338 227.571 938.241 232.345 929.888 239.075C923.266 244.409 915.874 248.179 908.501 251.94C904.526 253.967 900.557 255.991 896.717 258.257C891.623 261.261 886.382 264.017 881.136 266.776C872.4 271.369 863.649 275.971 855.541 281.741C852.925 283.602 850.024 285.063 846.902 286.634C844.614 287.786 842.208 288.997 839.709 290.469C836.674 292.271 833.658 294.108 830.641 295.944ZM278.806 579.008C278.337 583.09 277.868 587.173 279.045 591.314C279.369 592.455 278.988 593.789 278.603 595.133C278.405 595.827 278.206 596.523 278.103 597.198C277.995 597.9 277.971 598.616 277.947 599.331C277.936 599.655 277.925 599.979 277.907 600.301C278.234 600.24 278.578 600.207 278.922 600.174C279.667 600.103 280.412 600.032 280.985 599.68C282.887 598.514 284.751 597.278 286.614 596.044C289.741 593.972 292.867 591.901 296.165 590.155C300.538 587.84 305.002 585.693 309.464 583.546C314.621 581.066 319.779 578.585 324.794 575.846C332.192 571.807 339.431 567.479 346.671 563.151C350.119 561.09 353.568 559.028 357.033 556.998C360.276 555.098 363.529 553.214 366.781 551.329L366.791 551.323C371.854 548.39 376.917 545.456 381.945 542.464C384.61 540.878 387.213 539.146 389.815 537.414C395.064 533.921 400.311 530.43 406.043 528.155C414.046 524.978 421.235 520.476 428.42 515.977C433.895 512.548 439.369 509.12 445.198 506.282C452.62 502.669 459.675 498.304 466.732 493.938C470.044 491.888 473.357 489.838 476.708 487.866C483.24 484.022 489.446 480.134 495.611 476.273C504.633 470.621 513.568 465.024 523.296 459.706C527.85 457.217 528.598 454.529 528.578 450.039C528.498 432.532 528.692 414.972 528.885 397.487C529.223 366.932 529.558 336.606 528.428 307.205C528.123 299.274 528.649 291.329 529.175 283.386C529.979 271.238 530.783 259.09 528.617 246.991C527.829 242.584 527.825 237.782 528.689 233.404C529.236 230.637 528.96 227.987 528.686 225.345C528.513 223.676 528.339 222.008 528.374 220.318C528.607 209.01 528.572 199.574 528.533 189.322C528.518 185.287 528.502 181.122 528.502 176.669C528.502 176.073 528.544 175.562 528.583 175.086C528.664 174.11 528.733 173.278 528.402 172.153C528.373 172.054 528.344 171.955 528.316 171.856C527.749 169.891 527.178 167.913 523.828 170.305C517.914 174.528 511.806 178.015 505.6 181.558C503.312 182.864 501.01 184.179 498.7 185.54C493.874 188.384 488.936 191.035 483.997 193.687C479.497 196.103 474.996 198.52 470.581 201.082C461.962 206.083 453.38 210.721 444.805 215.357C435.601 220.332 426.404 225.303 417.178 230.713C414.559 232.249 411.888 233.695 409.216 235.141C406.431 236.649 403.645 238.157 400.919 239.766C396.935 242.118 392.985 244.53 389.036 246.941C383.792 250.143 378.548 253.345 373.224 256.408C370.113 258.197 366.892 259.796 363.671 261.394C360.591 262.923 357.51 264.451 354.526 266.148C345.917 271.04 337.331 275.975 328.746 280.909C314.553 289.067 300.353 297.229 286.054 305.196C282.472 307.191 280.883 308.831 280.888 313.064C280.892 316.089 280.897 319.103 280.902 322.108C280.958 357.709 281.012 391.994 279.375 427.835C277.248 474.372 276.502 524.196 279.263 570.949C279.423 573.645 279.115 576.326 278.806 579.008ZM690.914 545.628C693.22 546.603 695.525 547.577 697.686 548.806C711.639 556.743 725.524 564.809 739.406 572.873L739.422 572.882L740.271 573.375C743.63 575.326 746.971 577.309 750.313 579.291C755.971 582.647 761.633 586.006 767.375 589.212C773.252 592.492 779.356 595.388 785.468 598.219C789.383 600.033 790.398 599.172 790.569 594.569C790.576 594.388 790.575 594.206 790.574 594.024L790.573 593.956C790.572 593.857 790.571 593.759 790.571 593.66C790.571 588.677 790.623 583.692 790.675 578.706C790.794 567.317 790.912 555.925 790.411 544.563C789.16 516.211 789.863 487.926 790.567 459.595C791.292 430.397 792.019 401.15 790.609 371.732C790.322 365.729 790.103 359.722 789.885 353.715C789.551 344.513 789.216 335.305 788.632 326.119C788.248 320.077 786.274 314.085 781.098 310.235C776.317 306.678 771.201 303.522 766.019 300.564C761.064 297.737 756.049 295.016 751.033 292.295C746.636 289.91 742.24 287.525 737.884 285.068C727.135 279.004 716.424 272.874 705.713 266.744L705.65 266.708C700.946 264.016 696.234 261.319 691.526 258.632C688.82 257.088 686.108 255.554 683.396 254.02C677.507 250.69 671.615 247.358 665.79 243.919C661.303 241.27 656.857 238.551 652.411 235.833C646.944 232.491 641.476 229.147 635.934 225.933C632.508 223.947 628.986 222.126 625.464 220.305C621.733 218.375 618 216.445 614.384 214.32C610.916 212.281 607.494 210.172 604.072 208.063C595.246 202.622 586.422 197.184 576.831 192.973C569.137 189.595 561.888 185.144 554.68 180.72C553.7 180.118 552.721 179.517 551.742 178.919C551.025 178.481 550.333 177.969 549.645 177.46C547.268 175.7 544.938 173.974 541.772 175.479C538.862 176.862 539.108 179.526 539.346 182.101C539.419 182.898 539.492 183.686 539.47 184.425C539.35 188.487 539.375 192.552 539.4 196.618C539.411 198.312 539.422 200.007 539.422 201.701V289.906C539.422 305.568 539.448 321.212 539.475 336.851V336.867C539.537 373.429 539.599 409.96 539.321 446.622C539.276 452.491 540.926 457.986 545.752 460.16C551.88 462.921 557.381 466.598 562.875 470.27C566.32 472.572 569.762 474.873 573.355 476.945C576.907 478.993 580.462 481.037 584.017 483.08C591.729 487.513 599.441 491.946 607.123 496.43C622.109 505.178 637.063 513.979 652.018 522.78L652.034 522.789L652.049 522.798L657.608 526.07C667.363 531.809 677.094 537.588 687.745 544.259C688.792 544.732 689.853 545.18 690.914 545.628ZM499.674 146.959L499.663 146.952C498.152 146.075 496.641 145.199 495.133 144.318C492.371 142.704 489.613 141.086 486.854 139.467C480.105 135.507 473.354 131.545 466.561 127.662C461.156 124.572 455.717 121.535 450.281 118.499C445.375 115.76 440.469 113.02 435.586 110.24C427.398 105.58 419.229 100.886 411.061 96.1911C405.03 92.7253 398.995 89.2572 392.957 85.8051C388.925 83.5003 384.88 81.2185 380.835 78.9367C373.572 74.839 366.308 70.7414 359.122 66.5111C353.797 63.3763 348.535 60.1349 343.273 56.8935C337.673 53.4444 332.074 49.9949 326.399 46.6744C322.231 44.2356 317.959 41.9751 313.687 39.7144C309.993 37.7597 306.298 35.8049 302.671 33.7345C291.865 27.5674 281.077 21.3497 270.533 14.752C266.327 12.12 263.063 13.2087 259.482 15.4171C256.911 17.0032 254.348 18.6054 251.785 20.2076C244.967 24.4698 238.148 28.7327 231.159 32.6933C227.343 34.8557 223.357 36.7124 219.368 38.5699C216.228 40.0325 213.087 41.4956 210.027 43.1086C205.739 45.3693 201.519 47.7624 197.301 50.155C193.423 52.3541 189.546 54.5531 185.614 56.65C182.92 58.0871 180.152 59.3907 177.385 60.6941C174.054 62.2628 170.725 63.8312 167.524 65.6313C163.936 67.6498 160.512 69.9604 157.088 72.2715C155.31 73.4719 153.531 74.6724 151.729 75.8321C144.924 80.2121 137.574 83.4757 130.224 86.7394C126.798 88.2607 123.371 89.7822 120 91.4166C108.6 96.9442 97.5162 103.253 86.7792 109.993C71.8583 119.36 57.1171 129.012 42.3761 138.665C36.86 142.276 31.3439 145.888 25.8184 149.485C23.7468 150.834 23.7652 153.942 25.8474 154.911C26.9508 155.425 28.0881 155.874 29.2245 156.324C30.9634 157.011 32.7008 157.698 34.311 158.612C40.5 162.125 46.7493 165.549 52.9989 168.974C68.3202 177.369 83.6471 185.768 98.0923 195.47C113.158 205.588 129.075 214.039 144.987 222.487C153.498 227.006 162.008 231.524 170.385 236.296C173.237 237.92 176.102 239.522 178.967 241.124C184.972 244.481 190.978 247.839 196.858 251.404C201.482 254.207 206.029 257.145 210.575 260.081C217.015 264.242 223.455 268.402 230.112 272.18C235.13 275.028 240.299 277.6 245.469 280.173C253.922 284.379 262.38 288.588 270.199 294.011C272.966 295.93 276.692 296.005 280.02 293.402C282.89 291.158 286.207 289.422 289.484 287.773C293.858 285.573 298.259 283.427 302.661 281.281C308.856 278.26 315.051 275.239 321.168 272.068C331.917 266.495 342.655 260.858 353.07 254.694C371.851 243.58 390.536 232.287 408.987 220.634C429.559 207.641 450.421 195.175 472.074 184.078C473.288 183.456 475.686 182.461 478.751 181.189C493.227 175.184 522.6 162.997 512.673 154.645C508.385 152.013 504.026 149.484 499.674 146.959ZM539.321 478.845L304.346 615.494L552.304 758.622L551.742 1047.62L1050.41 764L1048.9 496.43L796.777 622.324L697.686 573.375L539.321 478.845Z" fill="#1E1818"/>
<path d="M196.092 39.5884C196.251 39.5021 196.41 39.4159 196.569 39.3296M196.569 39.3296C194.018 40.7153 191.471 42.0988 188.936 43.4943C177.464 49.8082 165.697 55.5845 153.926 61.3631C138.184 69.0906 122.434 76.8223 107.37 85.8496C97.6694 91.663 88.1034 97.701 78.5373 103.739C73.4477 106.952 68.3581 110.164 63.248 113.343C57.7357 116.772 52.3144 120.352 46.893 123.931C33.8523 132.542 20.8111 141.153 6.50106 147.669C6.35064 147.737 6.19451 147.806 6.03784 147.875C5.12803 148.274 4.15641 148.7 3.62711 149.412C3.4771 149.614 3.31386 149.828 3.1471 150.046C2.01819 151.525 0.6506 153.316 0.995082 154.476C1.49138 156.148 3.87659 158.254 5.60099 158.404C13.3367 159.079 19.7227 162.812 26.07 166.523C28.4795 167.931 30.8835 169.336 33.3537 170.57C41.9165 174.846 50.1419 179.805 58.3644 184.763C62.0201 186.967 65.6748 189.17 69.3607 191.315C74.6498 194.392 79.9448 197.459 85.2398 200.525C91.197 203.976 97.1541 207.426 103.103 210.891C106.994 213.158 110.882 215.445 114.763 217.729C121.119 221.468 127.474 225.208 133.873 228.872C137.955 231.209 142.079 233.479 146.202 235.748C151.718 238.784 157.235 241.82 162.655 245.02C168.478 248.458 174.231 252.026 179.979 255.591C185.563 259.054 191.147 262.517 196.8 265.864C201.814 268.833 206.917 271.652 212.02 274.471C216.303 276.838 220.587 279.205 224.818 281.66C229.587 284.427 234.317 287.263 239.047 290.098C246.215 294.396 253.382 298.693 260.684 302.75C266.177 305.802 268.685 309.263 268.41 315.92C267.704 333.044 267.528 350.189 267.352 367.329C267.247 377.535 267.143 387.74 266.926 397.942C265.998 441.62 266.107 485.319 266.216 529.02M196.569 39.3296C210.7 31.6529 224.934 23.9201 237.753 13.8684C243.358 9.47341 250.092 6.44515 256.741 3.45511C258.105 2.84179 259.465 2.2299 260.812 1.60834C262.983 0.60559 266.526 0.765433 268.694 1.86323C279.499 7.33345 290.126 13.1677 300.677 19.119C309.303 23.9843 317.822 29.0407 326.34 34.0965C327.795 34.9604 329.252 35.8248 330.708 36.6877C336.977 40.4038 343.231 44.1483 349.484 47.8928C361.449 55.0577 373.414 62.2225 385.495 69.1875C392.88 73.4459 400.379 77.5095 407.877 81.5731C415.25 85.5692 422.626 89.5661 429.892 93.7475C439.703 99.3925 449.407 105.221 459.112 111.05C465.915 115.136 472.718 119.222 479.557 123.245C485.244 126.589 490.995 129.824 496.746 133.059C500.838 135.36 504.932 137.663 509.002 140.005C516.47 144.302 523.922 148.627 531.374 152.952C538.346 156.998 545.318 161.045 552.304 165.068C566.501 173.246 580.726 181.374 594.957 189.493C598.893 191.738 602.841 193.963 606.79 196.187C611.202 198.673 615.619 201.161 620.014 203.677C623.319 205.568 626.601 207.5 629.882 209.433C632.45 210.945 635.018 212.457 637.597 213.95C640.981 215.908 644.374 217.85 647.766 219.793L647.776 219.798L647.792 219.808C652.973 222.774 658.154 225.74 663.303 228.762C669.024 232.12 674.726 235.51 680.429 238.899L680.44 238.906L680.449 238.912C688.121 243.472 695.795 248.034 703.511 252.516C708.874 255.631 714.292 258.649 719.71 261.667C724.398 264.278 729.092 266.893 733.744 269.567C742.928 274.846 752.069 280.198 761.211 285.55C764.759 287.627 768.308 289.704 771.859 291.777C773.523 292.749 775.174 293.75 776.825 294.75C780.989 297.273 785.151 299.795 789.532 301.858C791.358 302.718 794.622 301.6 796.777 300.503C806.063 295.782 815.238 290.834 824.343 285.771C828.822 283.28 833.248 280.693 837.673 278.107C841.545 275.844 845.417 273.581 849.324 271.382C856.865 267.139 864.431 262.938 871.996 258.738C886.139 250.886 900.283 243.033 914.262 234.9C925.587 228.311 936.755 221.456 947.924 214.6C956.089 209.589 964.253 204.578 972.479 199.67C977.495 196.678 982.628 193.884 987.763 191.091C992.042 188.762 996.327 186.431 1000.54 183.986C1002.43 182.889 1004.21 181.551 1005.98 180.217C1008.6 178.245 1011.21 176.282 1014.16 175.118C1023.72 171.335 1032.43 166.09 1041.13 160.845C1044.98 158.528 1048.83 156.212 1052.74 154.022C1055.15 152.676 1057.99 151.626 1060.71 151.41C1066.37 150.958 1068.81 154.63 1067.98 160.647C1067.79 162.014 1068.12 163.44 1068.45 164.878C1068.68 165.848 1068.9 166.823 1068.97 167.79C1069.05 168.931 1068.95 170.083 1068.85 171.236C1068.78 172.057 1068.71 172.878 1068.71 173.697C1068.7 174.483 1068.78 175.27 1068.86 176.057C1068.93 176.738 1069 177.422 1069.01 178.104C1069.9 223.299 1069.07 268.075 1068.25 312.757C1067.52 352.826 1066.78 392.819 1067.28 432.967C1067.31 435.379 1067.71 437.806 1068.11 440.225C1068.63 443.338 1069.14 446.439 1068.86 449.481C1067.22 467.213 1067.21 484.964 1067.2 502.716C1067.2 508.98 1067.19 515.244 1067.12 521.508C1067.09 524.065 1066.69 526.635 1066.29 529.199C1065.77 532.467 1065.26 535.727 1065.53 538.935C1067.87 567.431 1067.55 595.953 1067.24 624.473C1067.08 639.174 1066.92 653.879 1067.12 668.576C1067.36 686.125 1067.31 703.678 1067.26 721.231C1067.23 733.695 1067.19 746.159 1067.26 758.622C1067.31 767.189 1063.43 772.62 1056.43 777.25C1048.87 782.246 1040.96 786.622 1033.05 791.001C1024.6 795.677 1016.15 800.358 1008.11 805.795C999.624 811.538 990.54 816.394 981.453 821.252C976.582 823.855 971.703 826.463 966.922 829.205C959.151 833.661 951.431 838.204 943.71 842.748L943.689 842.761C936.79 846.82 929.891 850.88 922.957 854.877C917.134 858.233 911.27 861.517 905.405 864.8L905.393 864.807C898.702 868.553 892.006 872.301 885.378 876.155C877.231 880.892 869.132 885.697 861.027 890.506L861.015 890.514L860.996 890.525L860.984 890.532C851.334 896.258 841.685 901.983 831.965 907.586C826.773 910.579 821.472 913.382 816.17 916.184C811.011 918.911 805.849 921.639 800.792 924.541C792.479 929.311 784.256 934.236 776.033 939.162L776.02 939.17C770.645 942.389 765.271 945.608 759.871 948.783C752.965 952.845 746.016 956.833 739.067 960.821L739.049 960.832C735.955 962.607 732.861 964.383 729.77 966.165C728.507 966.894 727.244 967.623 725.981 968.353C724.184 969.392 722.388 970.432 720.591 971.471L720.582 971.477L720.572 971.482C713.609 975.512 706.646 979.542 699.652 983.516C694.752 986.299 689.829 989.042 684.906 991.786L684.897 991.791L684.888 991.796L684.874 991.803C679.456 994.823 674.038 997.842 668.65 1000.91C656.375 1007.92 644.132 1014.98 631.952 1022.14C627.363 1024.84 622.817 1027.61 618.271 1030.39L618.261 1030.39C613.616 1033.23 608.97 1036.06 604.278 1038.82C589.898 1047.26 575.471 1055.63 560.982 1063.89C554.627 1067.51 548.156 1070.96 541.582 1074.16C535.742 1077.01 530.579 1073.74 530.331 1067.35C530.29 1066.32 530.301 1065.28 530.312 1064.24C530.317 1063.76 530.322 1063.28 530.322 1062.8C530.322 1044.49 530.32 1026.17 530.318 1007.85C530.31 930.964 530.303 854.08 530.433 777.197C530.444 770.7 529.38 767.195 522.449 764C513.312 759.788 504.659 754.536 496.002 749.282C491.582 746.599 487.157 743.914 482.669 741.367C476.177 737.684 469.633 734.093 463.088 730.502C456.037 726.634 448.982 722.763 441.997 718.779C436.338 715.551 430.778 712.149 425.218 708.747L425.206 708.739C421.582 706.522 417.957 704.304 414.305 702.134C413.191 701.472 412.014 700.915 410.759 700.322C409.586 699.766 408.345 699.179 407.022 698.443M266.216 529.02C266.209 526.289 266.202 523.557 266.196 520.826M266.216 529.02V529.03C266.281 555.065 266.346 581.101 266.191 607.133C266.145 614.867 269.871 619.213 275.078 622.324C286.1 628.909 297.339 635.132 308.578 641.356C313.632 644.154 318.687 646.953 323.721 649.784C326.518 651.357 329.316 652.928 332.114 654.498L332.126 654.504C343.357 660.807 354.588 667.109 365.718 673.585C379.301 681.489 392.714 689.692 406.639 698.208M803.533 598.932C803.5 598.809 803.466 598.685 803.431 598.561C803.423 598.531 803.414 598.502 803.405 598.472M803.405 598.472C803.069 597.312 803.152 596.029 803.236 594.747C803.273 594.176 803.31 593.604 803.31 593.043C803.31 587.661 803.289 582.278 803.268 576.895L803.268 576.85C803.219 564.363 803.17 551.876 803.383 539.393M803.405 598.472C803.429 598.554 803.452 598.636 803.475 598.718C803.513 598.854 803.549 598.99 803.585 599.125C804.139 601.198 804.617 602.986 808.354 600.506C816.211 595.293 824.539 590.774 832.855 586.263C834.472 585.386 836.088 584.509 837.701 583.627C840.038 582.349 842.482 581.239 844.923 580.131C848.652 578.438 852.374 576.748 855.698 574.465C867.339 566.471 879.731 559.814 892.121 553.157C900.143 548.847 908.169 544.535 915.984 539.864C919.584 537.712 923.167 535.531 926.75 533.35L926.763 533.342C933.822 529.045 940.882 524.747 948.07 520.676C952.111 518.387 956.276 516.315 960.441 514.243C965.092 511.93 969.743 509.617 974.218 507.002C982.652 502.074 990.982 496.968 999.311 491.861C1006.45 487.486 1013.59 483.108 1020.79 478.845C1030.49 473.103 1040.36 467.614 1050.41 462.499C1057.97 458.646 1057.08 407.188 1056.51 374.505C1056.32 363.802 1056.17 355.113 1056.36 350.768C1056.54 346.8 1056.38 342.848 1056.23 338.892C1056.07 334.873 1055.92 330.849 1056.1 326.802C1056.55 317.219 1056.46 307.61 1056.36 298.002C1056.32 293.964 1056.28 289.926 1056.28 285.89C1056.28 281.828 1056.32 277.763 1056.36 273.699C1056.45 264.421 1056.54 255.143 1056.16 245.884C1055.92 240.075 1056.2 234.285 1056.47 228.493C1056.83 221.163 1057.18 213.83 1056.48 206.447C1055.74 198.585 1055.95 190.628 1056.17 182.68C1056.24 179.998 1056.31 177.316 1056.35 174.64C1056.37 173.159 1056.87 171.674 1057.37 170.206C1057.52 169.769 1057.67 169.335 1057.8 168.902C1058.12 167.868 1058.53 166.862 1058.94 165.855C1059.13 165.407 1059.31 164.955 1059.49 164.505C1059.21 164.587 1058.93 164.666 1058.65 164.743C1058.46 164.795 1058.27 164.847 1058.08 164.898C1057.04 165.184 1055.99 165.469 1054.99 165.875M803.383 539.393C803.471 534.231 803.82 529.056 804.184 523.884C804.209 523.54 804.233 523.195 804.257 522.851M803.383 539.393C803.477 533.887 803.867 528.368 804.257 522.851M804.257 522.851C804.298 522.281 804.338 521.708 804.378 521.138C804.977 512.592 805.502 504.06 804.85 495.61M804.257 522.851C804.902 513.734 805.545 504.623 804.85 495.61M804.85 495.61C803.323 475.822 803.507 456.016 803.69 436.228C803.859 418.059 804.027 399.905 802.871 381.793C802.164 370.703 802.096 359.637 802.028 348.582M802.028 348.582C802.024 347.982 802.021 347.38 802.017 346.78C801.96 337.776 801.881 328.777 801.432 319.777M802.028 348.582C801.969 338.976 801.91 329.377 801.432 319.777M801.432 319.777C801.16 314.327 803.3 311.506 808.22 308.935C815.868 304.938 823.255 300.441 830.641 295.944C833.658 294.108 836.674 292.271 839.709 290.469C842.208 288.997 844.614 287.786 846.902 286.634C850.024 285.063 852.925 283.602 855.541 281.741C863.649 275.971 872.4 271.369 881.136 266.776C886.382 264.017 891.623 261.261 896.717 258.257C900.557 255.991 904.526 253.967 908.501 251.94C915.874 248.179 923.266 244.409 929.888 239.075C938.241 232.345 948.338 227.571 958.173 222.921M286.614 596.044C286.381 596.198 286.148 596.352 285.915 596.507C286.147 596.353 286.382 596.198 286.614 596.044ZM286.614 596.044C284.751 597.278 282.887 598.514 280.985 599.68C280.412 600.032 279.667 600.103 278.922 600.174C278.578 600.207 278.234 600.24 277.907 600.301C277.925 599.979 277.936 599.655 277.947 599.331C277.971 598.616 277.995 597.9 278.102 597.198C278.206 596.523 278.405 595.827 278.603 595.133C278.988 593.789 279.369 592.455 279.045 591.314C277.868 587.173 278.337 583.09 278.806 579.008C279.115 576.326 279.423 573.645 279.263 570.949C276.502 524.196 277.248 474.372 279.375 427.835C281.012 391.994 280.958 357.709 280.902 322.108C280.897 319.103 280.892 316.089 280.888 313.064C280.883 308.831 282.472 307.191 286.054 305.196C300.353 297.229 314.553 289.067 328.746 280.909C337.331 275.975 345.917 271.04 354.526 266.148C357.51 264.451 360.591 262.923 363.671 261.394C366.892 259.796 370.113 258.197 373.224 256.408C378.548 253.345 383.792 250.143 389.036 246.941C392.985 244.53 396.935 242.118 400.919 239.766C403.645 238.157 406.431 236.649 409.217 235.141C411.888 233.695 414.559 232.249 417.178 230.713C426.404 225.303 435.601 220.332 444.805 215.357C453.38 210.721 461.962 206.083 470.58 201.082C474.996 198.52 479.497 196.103 483.997 193.687C488.936 191.035 493.874 188.384 498.7 185.54C501.01 184.179 503.312 182.864 505.6 181.558C511.806 178.015 517.914 174.528 523.828 170.305C527.178 167.913 527.749 169.891 528.316 171.856C528.344 171.955 528.373 172.054 528.402 172.153C528.733 173.278 528.664 174.11 528.583 175.086C528.544 175.562 528.502 176.073 528.502 176.669C528.502 181.122 528.518 185.287 528.533 189.322C528.572 199.574 528.607 209.01 528.374 220.318C528.339 222.008 528.513 223.676 528.686 225.345C528.96 227.987 529.236 230.637 528.689 233.404C527.825 237.782 527.829 242.584 528.617 246.991C530.783 259.09 529.979 271.238 529.175 283.386M286.614 596.044C289.741 593.972 292.867 591.901 296.165 590.155C300.538 587.84 305.002 585.693 309.464 583.546C314.621 581.066 319.779 578.585 324.794 575.846C332.192 571.807 339.431 567.479 346.671 563.151C350.119 561.09 353.568 559.028 357.033 556.998C360.276 555.098 363.529 553.214 366.781 551.329L366.791 551.323C371.854 548.39 376.917 545.456 381.945 542.464C384.61 540.878 387.213 539.146 389.815 537.414C395.064 533.921 400.311 530.43 406.043 528.155C414.046 524.978 421.235 520.476 428.42 515.977C433.895 512.548 439.369 509.12 445.198 506.282C452.62 502.669 459.675 498.304 466.732 493.938C470.044 491.888 473.357 489.838 476.708 487.866C483.24 484.022 489.446 480.134 495.611 476.273C504.633 470.621 513.568 465.024 523.296 459.706C527.85 457.217 528.598 454.529 528.578 450.039C528.498 432.532 528.692 414.972 528.885 397.487C529.223 366.932 529.558 336.606 528.428 307.205C528.123 299.274 528.649 291.329 529.175 283.386M529.175 283.386C529.142 283.882 529.109 284.379 529.077 284.875M652.018 522.78C650.149 521.68 648.279 520.58 646.41 519.48C648.274 520.577 650.139 521.674 652.003 522.771L652.018 522.78ZM652.018 522.78C637.063 513.979 622.109 505.178 607.123 496.43C599.441 491.946 591.729 487.513 584.017 483.08C580.462 481.037 576.907 478.993 573.355 476.945C569.762 474.873 566.32 472.572 562.875 470.27C557.381 466.598 551.88 462.921 545.752 460.16C540.926 457.986 539.276 452.491 539.321 446.622C539.599 409.96 539.537 373.429 539.475 336.867V336.851C539.448 321.212 539.422 305.568 539.422 289.906M652.018 522.78L652.034 522.789L652.049 522.798L657.608 526.07C667.363 531.809 677.094 537.588 687.745 544.259C688.792 544.732 689.853 545.18 690.914 545.628C693.22 546.603 695.525 547.577 697.686 548.806C711.639 556.743 725.524 564.809 739.406 572.873M739.406 572.873C737.67 571.865 735.935 570.857 734.2 569.849C735.933 570.855 737.673 571.866 739.406 572.873ZM739.406 572.873L739.422 572.882M245.469 280.173C245.146 280.012 244.823 279.851 244.5 279.69M245.469 280.173C240.299 277.6 235.13 275.028 230.112 272.18C223.455 268.402 217.015 264.242 210.575 260.081C206.029 257.145 201.482 254.207 196.858 251.404C190.978 247.839 184.972 244.481 178.967 241.124C176.102 239.522 173.237 237.92 170.385 236.296C162.008 231.524 153.498 227.006 144.987 222.487C129.075 214.039 113.158 205.588 98.0923 195.47C83.6471 185.768 68.3202 177.369 52.9989 168.974C46.7493 165.549 40.5 162.125 34.311 158.612C32.7008 157.698 30.9634 157.011 29.2245 156.324C28.0881 155.874 26.9508 155.425 25.8474 154.911C23.7652 153.942 23.7468 150.834 25.8184 149.485C31.3439 145.888 36.86 142.276 42.3761 138.665C57.1171 129.012 71.8583 119.36 86.7792 109.993C97.5162 103.253 108.6 96.9442 120 91.4166C123.371 89.7822 126.798 88.2607 130.224 86.7394C137.574 83.4757 144.924 80.2121 151.729 75.8321C153.531 74.6724 155.31 73.4719 157.088 72.2715C160.512 69.9604 163.936 67.6498 167.524 65.6313C170.725 63.8312 174.054 62.2628 177.385 60.6941C180.152 59.3907 182.92 58.0871 185.614 56.65C189.546 54.5531 193.423 52.3541 197.301 50.155C201.519 47.7624 205.739 45.3693 210.027 43.1086C213.087 41.4956 216.228 40.0325 219.369 38.5699C223.357 36.7124 227.343 34.8557 231.159 32.6933C238.148 28.7327 244.967 24.4698 251.785 20.2076C254.348 18.6054 256.911 17.0032 259.482 15.4171C263.063 13.2087 266.327 12.12 270.533 14.752C281.077 21.3497 291.865 27.5674 302.671 33.7345C306.298 35.8049 309.993 37.7597 313.687 39.7144C317.959 41.9751 322.231 44.2356 326.399 46.6745C332.074 49.9949 337.673 53.4444 343.273 56.8935C348.535 60.1349 353.797 63.3763 359.122 66.5111C366.308 70.7414 373.572 74.839 380.835 78.9367C384.88 81.2185 388.925 83.5003 392.957 85.8051C398.995 89.2572 405.03 92.7253 411.061 96.1911C419.229 100.886 427.398 105.58 435.586 110.24C440.469 113.02 445.375 115.76 450.281 118.499M245.469 280.173C253.922 284.379 262.38 288.588 270.199 294.011C272.966 295.93 276.692 296.005 280.02 293.402C282.89 291.158 286.207 289.422 289.484 287.773C293.858 285.573 298.259 283.427 302.661 281.281C308.856 278.26 315.051 275.239 321.168 272.068C331.917 266.495 342.655 260.858 353.07 254.694C371.851 243.58 390.536 232.287 408.987 220.634C429.559 207.641 450.42 195.175 472.074 184.078C473.288 183.456 475.686 182.461 478.751 181.189C493.227 175.184 522.6 162.997 512.673 154.645C508.385 152.013 504.026 149.484 499.674 146.959L499.663 146.952C498.152 146.075 496.641 145.199 495.133 144.318C492.371 142.704 489.613 141.086 486.854 139.467C480.105 135.507 473.354 131.545 466.561 127.662C461.156 124.572 455.717 121.535 450.281 118.499M539.386 182.548C539.373 182.399 539.359 182.25 539.346 182.101M539.346 182.101C539.108 179.526 538.862 176.862 541.772 175.479C544.938 173.974 547.268 175.7 549.645 177.46C550.333 177.969 551.025 178.481 551.742 178.919C552.721 179.517 553.7 180.118 554.68 180.72C561.888 185.144 569.137 189.595 576.831 192.973C586.422 197.184 595.246 202.622 604.072 208.063C607.494 210.172 610.916 212.281 614.384 214.32C618 216.445 621.733 218.375 625.464 220.305C628.986 222.126 632.508 223.947 635.934 225.933C641.476 229.147 646.944 232.491 652.411 235.833C656.857 238.551 661.303 241.27 665.79 243.919C671.615 247.358 677.507 250.69 683.396 254.02C686.108 255.554 688.82 257.088 691.526 258.632C696.234 261.319 700.946 264.016 705.65 266.708L705.713 266.744C716.424 272.874 727.135 279.004 737.884 285.068C742.24 287.525 746.636 289.91 751.033 292.295C756.049 295.016 761.064 297.737 766.019 300.564C771.201 303.522 776.317 306.678 781.098 310.235C786.274 314.085 788.248 320.077 788.632 326.119C789.216 335.305 789.551 344.513 789.885 353.715C790.103 359.722 790.322 365.729 790.609 371.732C792.019 401.15 791.292 430.397 790.567 459.595C789.863 487.926 789.16 516.211 790.411 544.563C790.912 555.925 790.794 567.317 790.675 578.706C790.623 583.692 790.571 588.677 790.571 593.66C790.571 593.759 790.572 593.857 790.573 593.956L790.574 594.024C790.575 594.206 790.576 594.388 790.569 594.569C790.398 599.172 789.383 600.033 785.468 598.219C779.356 595.388 773.252 592.492 767.375 589.212C761.633 586.006 755.971 582.647 750.313 579.291C746.971 577.309 743.63 575.326 740.271 573.375M539.346 182.101C539.419 182.898 539.492 183.686 539.47 184.425C539.35 188.487 539.375 192.552 539.4 196.618C539.411 198.312 539.422 200.007 539.422 201.701M449.361 117.986C449.668 118.157 449.975 118.328 450.281 118.499M407.022 698.443L406.639 698.208M407.022 698.443C406.894 698.364 406.767 698.286 406.639 698.208M1054.99 165.875L1054.68 165.999M1054.99 165.875C1054.89 165.916 1054.79 165.958 1054.68 165.999M1054.68 165.999C1052.71 166.802 1050.7 167.615 1048.9 168.727C1045.62 170.751 1042.4 172.904 1039.18 175.056C1032.43 179.564 1025.69 184.07 1018.41 187.38C1010.67 190.893 1003.72 195.516 996.77 200.133C992.657 202.867 988.546 205.599 984.28 208.097C981.927 209.475 979.602 210.888 977.277 212.301C971.406 215.87 965.541 219.435 959.259 222.408M959.259 222.408L958.173 222.921M959.259 222.408C958.897 222.579 958.535 222.75 958.173 222.921M739.422 572.882L740.271 573.375M739.422 572.882C739.705 573.046 739.988 573.211 740.271 573.375M539.422 201.701V289.906M539.422 201.701C539.422 231.103 539.422 260.505 539.422 289.906M724.456 969.235C723.969 969.517 723.482 969.799 722.995 970.08L722.829 970.176C723.371 969.863 723.913 969.549 724.456 969.235ZM539.321 478.845L304.346 615.494L552.304 758.622L551.742 1047.62L1050.41 764L1048.9 496.43L796.777 622.324L697.686 573.375L539.321 478.845Z" stroke="#1E1818" stroke-width="1.88136"/>
<path d="M407.084 698.443C393.018 689.841 379.484 681.562 365.774 673.585C351.865 665.493 337.797 657.672 323.77 649.784C307.537 640.656 291.101 631.87 275.119 622.324C269.912 619.213 266.186 614.867 266.232 607.133C266.645 537.401 265.486 467.645 266.967 397.942C267.547 370.605 267.324 343.241 268.451 315.92C268.726 309.263 266.217 305.802 260.724 302.75C248.602 296.016 236.851 288.621 224.853 281.66C215.578 276.279 206.055 271.325 196.83 265.864C185.355 259.071 174.163 251.799 162.68 245.02C153.208 239.428 143.441 234.338 133.893 228.872C123.583 222.969 113.385 216.87 103.118 210.891C91.8805 204.346 80.6124 197.854 69.3711 191.315C57.3923 184.347 45.7312 176.747 33.3586 170.57C24.3798 166.087 16.2757 159.335 5.6017 158.404C3.87704 158.254 1.49147 156.148 0.99509 154.476C0.599477 153.144 2.46156 150.98 3.62751 149.412C4.24832 148.577 5.47749 148.135 6.50191 147.669C26.7641 138.444 44.4826 125.02 63.2575 113.343C77.9743 104.189 92.5222 94.756 107.386 85.8496C133.719 70.0716 162.149 58.2515 188.964 43.4943C205.548 34.3676 222.654 25.735 237.789 13.8684C244.545 8.57183 252.941 5.26022 260.851 1.60834C263.023 0.60559 266.566 0.765433 268.735 1.86323C279.541 7.33345 290.17 13.1677 300.723 19.119C310.825 24.8158 320.78 30.7747 330.758 36.6877C349.027 47.5142 367.156 58.5824 385.553 69.1875C400.205 77.6338 415.298 85.3138 429.958 93.7475C446.648 103.35 463.031 113.483 479.63 123.245C489.365 128.97 499.289 134.373 509.079 140.005C523.537 148.323 537.934 156.744 552.388 165.068C566.587 173.246 580.814 181.374 595.048 189.493C603.385 194.248 611.777 198.91 620.108 203.677C626 207.048 631.818 210.55 637.694 213.95C646.255 218.903 654.874 223.756 663.404 228.762C676.831 236.641 690.156 244.698 703.618 252.516C713.624 258.327 723.824 263.801 733.856 269.567C746.606 276.895 759.275 284.364 771.976 291.777C777.839 295.2 783.534 298.977 789.652 301.858C791.478 302.718 794.743 301.6 796.898 300.503C806.185 295.782 815.362 290.834 824.468 285.771C832.867 281.101 841.078 276.095 849.454 271.382C871.094 259.206 892.941 247.384 914.401 234.9C934.007 223.495 953.145 211.291 972.627 199.67C981.826 194.182 991.423 189.364 1000.69 183.986C1005.38 181.266 1009.38 177.069 1014.31 175.118C1028.1 169.665 1040.11 161.171 1052.9 154.022C1055.31 152.676 1058.15 151.626 1060.87 151.41C1066.53 150.958 1068.97 154.63 1068.14 160.647C1067.83 162.936 1068.96 165.39 1069.13 167.79C1069.27 169.742 1068.88 171.726 1068.87 173.697C1068.86 175.165 1069.14 176.633 1069.17 178.104C1070.86 263.828 1066.38 348.049 1067.45 432.967C1067.51 438.483 1069.52 444.074 1069.02 449.481C1066.8 473.47 1067.57 497.493 1067.28 521.508C1067.21 527.327 1065.22 533.21 1065.69 538.935C1069.24 582.121 1066.69 625.366 1067.28 668.576C1067.69 698.586 1067.26 728.607 1067.43 758.622C1067.47 767.189 1063.59 772.62 1056.59 777.25C1040.96 787.581 1023.83 795.266 1008.26 805.795C995.224 814.618 980.776 821.346 967.069 829.205C952.345 837.647 937.802 846.402 923.097 854.877C910.624 862.066 897.957 868.92 885.512 876.155C867.651 886.539 849.991 897.269 832.092 907.586C821.845 913.492 811.172 918.656 800.914 924.541C787.162 932.431 773.655 940.746 759.987 948.783C749.998 954.657 739.92 960.377 729.881 966.165C719.843 971.953 709.834 977.792 699.758 983.516C689.453 989.369 679.047 995.044 668.752 1000.91C656.475 1007.92 644.23 1014.98 632.048 1022.14C622.764 1027.6 613.658 1033.36 604.37 1038.82C589.988 1047.26 575.558 1055.63 561.068 1063.89C554.712 1067.51 548.239 1070.96 541.664 1074.16C535.823 1077.01 530.66 1073.74 530.411 1067.35C530.352 1065.84 530.403 1064.32 530.403 1062.8C530.403 967.602 530.352 872.399 530.513 777.197C530.524 770.7 529.461 767.195 522.529 764C508.723 757.637 496.024 748.902 482.743 741.367C469.253 733.715 455.536 726.462 442.064 718.779C432.71 713.444 423.629 707.635 414.368 702.134C412.211 700.853 409.821 699.966 407.084 698.443ZM839.837 290.469C829.37 296.685 819.116 303.306 808.343 308.935C803.423 311.506 801.282 314.327 801.554 319.777C802.583 340.425 801.671 361.066 802.994 381.793C805.408 419.632 802.043 457.655 804.972 495.61C806.089 510.078 803.755 524.786 803.505 539.393C803.2 557.272 803.433 575.16 803.433 593.043C803.433 594.862 803.041 596.794 803.528 598.472C804.197 600.779 804.349 603.245 808.477 600.506C817.863 594.279 827.922 589.044 837.828 583.627C843.737 580.396 850.327 578.242 855.828 574.465C875.011 561.294 896.234 551.75 916.124 539.864C926.823 533.47 937.372 526.816 948.214 520.676C956.769 515.83 965.882 511.958 974.366 507.002C990.031 497.851 1005.33 488.084 1020.95 478.845C1030.65 473.103 1040.52 467.614 1050.57 462.499C1060.61 457.384 1055.74 368.38 1056.52 350.768C1056.88 342.766 1055.89 334.832 1056.27 326.802C1056.9 313.192 1056.44 299.53 1056.44 285.89C1056.44 272.553 1056.87 259.198 1056.32 245.884C1055.77 232.723 1057.89 219.664 1056.64 206.447C1055.65 195.932 1056.37 185.247 1056.51 174.64C1056.53 172.719 1057.38 170.79 1057.96 168.902C1058.43 167.406 1059.08 165.968 1059.65 164.505C1058.14 164.953 1056.6 165.288 1055.15 165.875C1053.07 166.719 1050.96 167.558 1049.06 168.727C1038.9 174.988 1029.33 182.488 1018.56 187.38C1006.25 192.973 995.905 201.378 984.429 208.097C976.133 212.955 968.175 218.258 959.405 222.408C949.229 227.222 938.692 232.097 930.029 239.075C919.836 247.286 907.817 251.79 896.853 258.257C883.273 266.266 868.651 272.506 855.672 281.741C851.138 284.966 845.746 286.988 839.837 290.469ZM279.306 570.949C279.707 577.748 277.137 584.451 279.087 591.314C279.579 593.044 278.449 595.216 278.145 597.198C277.988 598.218 278.008 599.265 277.949 600.301C278.985 600.109 280.19 600.194 281.028 599.68C286.122 596.555 290.945 592.942 296.21 590.155C305.638 585.165 315.485 580.956 324.844 575.846C335.766 569.883 346.345 563.291 357.088 556.998C365.384 552.138 373.741 547.38 382.003 542.464C390.045 537.679 397.529 531.558 406.104 528.155C420.211 522.557 431.787 512.843 445.265 506.282C456.174 500.973 466.29 494.039 476.781 487.866C492.874 478.396 506.997 468.658 523.376 459.706C527.93 457.217 528.678 454.529 528.658 450.039C528.44 401.937 530.285 353.431 528.509 307.205C527.738 287.145 532.28 267.004 528.698 246.991C527.909 242.584 527.905 237.782 528.77 233.404C529.662 228.889 528.365 224.684 528.455 220.318C528.779 204.558 528.582 192.436 528.582 176.669C528.582 174.85 528.974 173.828 528.482 172.153C527.88 170.101 527.427 167.792 523.908 170.305C515.812 176.085 507.353 180.486 498.776 185.54C489.551 190.975 479.915 195.708 470.652 201.082C452.781 211.45 435.066 220.263 417.242 230.713C411.891 233.85 406.321 236.613 400.98 239.766C391.704 245.242 382.616 251.038 373.28 256.408C367.193 259.909 360.686 262.678 354.58 266.148C331.732 279.13 309.052 292.408 286.097 305.196C282.515 307.191 280.926 308.831 280.931 313.064C280.98 351.933 281.193 388.969 279.417 427.835C277.29 474.372 276.544 524.197 279.306 570.949ZM687.85 544.259C691.172 545.76 694.637 547.011 697.792 548.806C712.039 556.909 726.21 565.143 740.383 573.375C749.433 578.631 758.355 584.112 767.492 589.211C773.37 592.492 779.475 595.388 785.588 598.219C789.503 600.033 790.519 599.172 790.69 594.569C790.701 594.267 790.691 593.963 790.691 593.66C790.691 577.292 791.252 560.9 790.531 544.563C787.991 486.989 793.507 429.693 790.729 371.732C790.001 356.53 789.717 341.303 788.752 326.119C788.368 320.077 786.394 314.085 781.216 310.235C776.435 306.678 771.318 303.522 766.135 300.564C756.836 295.258 747.322 290.328 737.996 285.068C722.501 276.328 707.083 267.449 691.632 258.632C683.048 253.734 674.401 248.943 665.891 243.919C655.885 238.012 646.081 231.761 636.03 225.933C628.974 221.842 621.508 218.452 614.477 214.32C602.063 207.024 590.23 198.816 576.919 192.973C568.177 189.135 560.01 183.914 551.825 178.919C548.63 176.969 545.937 173.539 541.854 175.479C538.042 177.29 539.645 181.299 539.552 184.425C539.382 190.179 539.504 195.942 539.504 201.701C539.504 231.103 539.504 260.505 539.504 289.906C539.504 342.189 539.8 394.273 539.403 446.622C539.358 452.491 541.008 457.986 545.835 460.16C555.807 464.653 564.121 471.57 573.442 476.945C584.701 483.437 595.991 489.878 607.215 496.43C624.071 506.268 640.887 516.173 657.708 526.07C667.464 531.809 677.197 537.588 687.85 544.259ZM512.751 154.645C506.968 151.096 501.067 147.74 495.208 144.318C485.688 138.756 476.203 133.133 466.632 127.662C456.346 121.783 445.948 116.1 435.652 110.24C421.415 102.138 407.238 93.9339 393.017 85.8051C381.743 79.3614 370.366 73.097 359.177 66.5111C348.184 60.0406 337.458 53.1155 326.448 46.6744C318.675 42.1269 310.541 38.1993 302.717 33.7345C291.909 27.5674 281.12 21.3497 270.574 14.752C266.367 12.12 263.103 13.2087 259.522 15.4171C250.107 21.2227 240.812 27.2438 231.194 32.6933C224.373 36.5584 217.005 39.4471 210.059 43.1086C201.828 47.4473 193.854 52.2715 185.642 56.65C179.703 59.8169 173.41 62.3355 167.55 65.6313C162.096 68.6981 157.025 72.4393 151.752 75.8321C141.773 82.2539 130.623 86.2758 120.018 91.4166C108.616 96.9442 97.5309 103.253 86.7923 109.993C66.2848 122.864 46.1168 136.276 25.8222 149.485C23.7503 150.834 23.7687 153.942 25.8512 154.911C28.6435 156.211 31.653 157.101 34.3161 158.612C55.682 170.737 77.7655 181.81 98.1071 195.47C121.234 211 146.369 222.602 170.411 236.296C179.241 241.325 188.202 246.138 196.888 251.404C208.066 258.18 218.788 265.735 230.147 272.18C243.371 279.684 257.636 285.27 270.24 294.011C273.007 295.93 276.734 296.005 280.062 293.402C282.933 291.158 286.251 289.422 289.528 287.773C300.06 282.476 310.752 277.492 321.216 272.068C331.967 266.495 342.707 260.858 353.124 254.694C371.908 243.58 390.596 232.287 409.049 220.634C429.624 207.641 450.489 195.175 472.145 184.078C479.095 180.518 524.782 164.765 512.751 154.645ZM747.006 834.434C747.006 832.009 746.372 829.365 747.122 827.2C749.625 819.979 750.748 812.625 750.652 805.028C750.526 794.945 751.43 784.783 748.802 774.876C746.133 764.818 744.641 754.306 737.912 745.746C733.323 739.909 728.16 733.912 721.191 731.967C712.365 729.504 703.023 728.543 693.647 731.537C680.615 735.699 667.708 740.17 657.445 749.463C642.322 763.157 628.658 778.16 618.072 795.831C605.713 816.462 596.095 838.232 594.396 862.312C593.086 880.873 592.443 899.832 597.918 918.013C600.581 926.86 605.344 934.923 612.941 940.88C622.452 948.336 632.297 951.138 644.896 948.52C660.721 945.232 675.195 940.094 686.843 928.948C699.087 917.232 711.215 905.408 721.156 891.428C733.322 874.32 742.237 856.019 747.006 834.434ZM968.161 582.463C967.251 584.21 965.631 585.921 965.543 587.708C964.854 601.701 964.583 615.735 964.109 629.713C963.309 653.34 961.464 677.178 965.379 700.803C965.552 701.852 964.965 703.027 964.733 704.143C964.089 703.641 963.25 703.266 962.831 702.62C952.479 686.644 939.317 672.909 927.42 658.166C922.662 652.269 917.956 646.33 913.265 640.379C908.946 634.902 904.758 629.32 900.358 623.909C897.96 620.961 895.621 619.208 891.434 622.324C887.218 625.462 882.102 627.475 877.221 629.62C871.51 632.13 868.94 635.782 868.789 642.453C868.153 670.7 869.601 698.914 867.572 727.228C865.585 754.978 867.119 782.98 867.159 810.872C867.167 815.67 868.871 816.609 872.775 814.253C878.839 810.594 884.689 806.471 891.072 803.49C895.314 801.508 896.398 799.063 896.347 794.74C896.143 777.462 896.263 760.18 896.263 742.899C896.263 725.922 896.228 708.944 896.311 691.967C896.32 690.031 896.993 688.097 897.358 686.162C898.59 687.456 899.802 688.768 901.059 690.038C903.619 692.624 906.202 695.187 908.776 697.759C912.207 701.189 915.898 704.4 919.021 708.091C927.53 718.148 935.8 728.408 944.165 738.588C949.741 745.375 955.343 752.141 960.884 758.956C963.897 762.662 967.936 763.818 972.655 761.645C977.758 759.295 982.521 756.153 987.724 754.091C992.914 752.035 994.763 748.828 994.647 743.336C994.322 727.807 993.661 712.298 993.06 696.785C991.978 668.874 992.306 640.884 994.453 612.959C995.102 604.52 994.535 595.989 994.567 587.5C994.575 585.419 993.955 582.723 994.999 581.37C998.31 577.081 994.204 574.736 992.519 572.661C990.718 570.443 987.574 571.074 984.625 573.059C979.744 576.342 974.286 578.767 968.161 582.463ZM525.852 655.235C520.95 654.628 516.054 653.565 511.144 653.497C493.009 653.247 480.085 643.429 468.794 630.732C467.284 629.033 466.957 625.961 466.762 623.472C465.669 609.566 470.561 598.761 481.79 589.767C496.1 578.307 512.574 572.357 529.977 570.064C550.448 567.367 570.302 571.581 588.296 582.473C594.165 586.025 599.902 590.481 601.079 597.264C602.104 603.172 600.724 609.581 599.881 615.697C599.346 619.578 599.817 621.781 604.198 622.606C607.446 623.217 610.442 625.057 613.633 626.095C619.518 628.01 625.437 629.825 631.39 631.514C636.036 632.833 640.185 631.466 641.399 628.223C642.973 624.022 644.765 619.818 645.613 615.45C646.874 608.953 650.203 602.98 647.15 595.549C642.745 584.828 637.749 575.504 628.226 567.946C605.772 550.127 580.408 541.947 552.184 540.512C537.055 539.743 522.483 542.702 508.136 546.338C498.431 548.798 488.52 550.992 479.377 555.877C469.137 561.348 458.026 565.814 449.596 573.627C437.336 584.99 423.936 595.695 422.536 615.15C421.879 624.27 423.614 632.09 427.98 638.817C434.309 648.571 442.803 656.323 452.961 663.018C473.438 676.513 496.132 680.301 519.527 682.454C532.817 683.677 545.753 679.69 558.925 678.83C562.422 678.602 563.555 676.274 561.772 673.019C558.515 667.074 555.158 661.161 551.396 655.533C550.516 654.216 547.823 653.445 546.018 653.533C539.89 653.832 533.786 654.628 525.852 655.235Z" fill="#1E1818"/>
<path d="M994.554 282.282C994.554 283.798 994.554 284.403 994.554 285.009C994.554 295.07 994.589 295.126 986.284 300.46C977.68 305.986 968.938 311.299 960.376 316.889C956.278 319.565 952.305 322.489 948.606 325.685C947.55 326.598 947.286 328.854 947.282 330.495C947.213 368.66 947.179 406.825 947.308 444.99C947.32 448.678 949.75 452.757 948.783 455.969C946.621 463.143 949.804 470.503 947.15 477.385C946.249 479.723 944.9 482.364 942.957 483.74C936.469 488.336 929.673 492.511 922.863 496.63C921.497 497.456 918.579 498.116 918.065 497.483C916.727 495.835 915.594 493.388 915.702 491.329C918.008 447.358 914.465 399.976 914.465 355.165C914.465 353.348 914.525 351.528 914.452 349.714C914.296 345.843 912.348 344.802 908.994 346.904C902.249 351.131 895.51 355.373 888.87 359.761C884.558 362.61 880.414 365.712 876.219 368.733C874.453 370.004 872.69 370.457 872.659 367.598C872.522 355.181 872.48 342.759 872.757 330.346C872.791 328.855 874.692 326.952 876.207 326.015C893.079 315.595 910.08 305.382 926.977 295.001C942.449 285.495 957.836 275.855 973.259 266.269C978.32 263.123 983.27 259.769 988.512 256.961C989.706 256.32 992.679 255.549 992.827 259.403C993.11 266.738 993.947 274.051 994.554 282.282Z" fill="#1E1818"/>
<path d="M440.758 467.394C430.267 473.634 420.167 479.312 410.211 485.231C396.328 493.485 382.595 501.992 368.695 510.217C365.831 511.912 362.572 513.007 359.4 514.1C352.421 516.505 352.032 516.204 352.03 508.784C352.017 449.983 352.06 391.182 351.973 332.381C351.962 325.544 354.704 321.284 360.78 317.857C371.173 311.996 380.905 304.98 391.114 298.775C402.467 291.874 414.095 285.427 425.504 278.616C435.247 272.8 444.84 266.73 454.532 260.827C455.48 260.249 457.094 259.413 457.653 259.794C459.629 261.135 462.71 262.869 462.814 264.607C463.339 273.365 463.353 282.189 462.839 290.949C462.716 293.059 461.53 295.492 458.456 297.271C443.464 305.945 428.984 315.501 414.263 324.649C407.531 328.833 400.709 332.879 393.836 336.827C390.231 338.897 388.167 341.319 388.317 345.924C388.663 356.521 388.413 367.137 388.453 377.746C388.456 378.572 388.832 379.396 389.035 380.222C389.678 379.78 390.305 379.311 390.968 378.9C408.573 367.966 426.147 356.982 443.862 346.23C445.137 345.456 447.977 342.174 448.833 348.197C450.184 357.696 449.966 367.12 450.418 376.584C450.635 381.144 448.757 383.071 444.924 385.22C427.661 394.901 410.676 405.077 393.604 415.097C390.077 417.167 388.282 419.813 388.257 424.404C388.206 434.158 387.187 443.906 386.621 453.659C386.413 457.236 387.239 457.835 390.673 455.758C403.486 448.008 416.622 440.794 429.477 433.111C438.021 428.005 446.181 422.258 454.729 417.158C459.722 414.179 462.991 416.282 463.039 422.045C463.104 429.925 462.608 437.839 463.196 445.676C463.668 451.973 460.916 455.837 456.004 458.724C451.143 461.581 446.149 464.21 440.758 467.394Z" fill="#1E1818"/>
<path d="M656.451 360.056C668.267 372.473 680.197 383.952 690.849 396.514C705.088 413.305 716.277 432.532 720.667 453.989C723.914 469.861 724.682 487.317 709.068 499.549C706.85 501.286 704.858 502.082 702.066 502.564C688.271 504.947 675.785 500.801 664.038 494.666C657.702 491.357 652.326 486.081 646.818 481.343C633.142 469.577 623.341 454.778 614.028 439.515C608.257 430.055 605.212 419.504 600.503 409.643C599.066 406.633 598.093 404.366 603.326 403.99C608.04 403.651 612.589 401.455 617.308 400.631C620.868 400.01 623.388 400.661 625.466 405.099C630.002 414.782 635.2 424.394 641.645 432.885C649.519 443.258 657.462 454.155 671.67 457.263C677.706 458.583 680.524 457.976 683.313 452.903C687.659 444.998 684.256 438.756 679.667 432.25C668.218 416.019 653.154 403.183 639.828 388.719C627.54 375.38 616.981 360.584 608.816 344.333C606.077 338.882 604.398 332.688 603.371 326.641C602.095 319.128 601.635 311.423 601.471 303.787C601.186 290.528 608.882 279.01 621.373 274.296C626.874 272.22 632.783 272.085 638.466 274.734C651.65 280.88 663.737 288.658 675.7 296.983C689.462 306.561 696.657 320.595 705.073 333.952C709.27 340.614 712.395 347.96 716.701 354.541C718.957 357.988 717.585 358.183 714.838 359.078C707.573 361.445 700.188 362.934 692.558 362.195C691.203 362.063 689.724 360.355 688.81 359.027C684.286 352.446 680.37 345.401 675.416 339.174C668.249 330.165 658.292 324.537 648.271 319.237C645.805 317.932 640.879 321.074 639.615 324.253C636.745 331.476 638.783 338.304 642.658 344.169C646.375 349.795 651.494 354.495 656.451 360.056Z" fill="#1E1818"/>
<path d="M385.242 121.731C389.769 130.997 390.474 140.503 387.731 149.266C386.723 152.489 385.866 155.762 384.765 158.952C382.633 165.135 381.599 165.49 374.296 164.057C364.458 162.125 354.582 160.392 344.722 158.57C343.598 158.362 342.443 158.24 341.36 157.897C334.868 155.837 335.351 155.909 336.605 149.211C337.373 145.11 337.002 140.552 336.096 136.428C333.806 126.005 326.382 118.78 317.532 114.516C304.448 108.212 290.267 103.172 275.542 104.335C264.912 105.175 254.326 108.038 243.799 110.748C226.981 115.077 213.564 123.989 201.184 135.46C196.041 140.227 194.964 146.868 191.897 152.578C191.518 153.284 191.489 154.592 191.899 155.244C197.205 163.681 199.208 174.005 210.204 178.894C222.339 184.288 234.45 187.833 247.586 189.996C257.855 191.688 266.93 190.594 276.333 187.663C277.329 187.353 278.256 186.817 279.215 186.385C278.303 185.602 277.475 184.687 276.467 184.058C270.208 180.158 263.938 176.272 257.613 172.48C251.794 168.992 246.095 165.195 239.942 162.422C237.469 161.307 236.839 161.198 239.072 159.65C243.281 156.733 247.597 153.955 251.996 151.333C254.884 149.612 258.786 148.963 260.858 146.619C266.808 139.888 272.747 143.065 278.419 146.094C287.392 150.885 296.04 156.285 304.826 161.428C315.076 167.428 325.346 173.396 335.566 179.446C338.991 181.474 342.044 184.512 345.713 185.649C349.997 186.976 348.941 188.593 346.668 190.167C342.25 193.226 337.479 195.771 332.908 198.614C322.313 205.203 311.07 210.334 298.885 213.083C291.889 214.662 284.626 215.116 277.69 216.888C264.954 220.14 252.085 218.388 239.298 218.485C220.711 218.626 202.592 215.024 186.465 205.678C171.212 196.839 156.504 186.999 148.998 169.583C143.466 156.749 146.564 145.308 153.369 134.526C156.957 128.842 162.125 124.13 166.732 119.118C181.323 103.244 199.888 94.0022 220.092 87.655C230.306 84.4461 239.601 80.2524 250.937 78.6816C262.273 77.1109 274.413 76.7891 284.178 77.1109C297.184 77.5394 324.571 82.0304 342.441 88.0972C355.686 92.594 366.823 100.677 376.953 110.037C380.229 113.064 382.212 117.49 385.242 121.731Z" fill="#1E1818"/>
<path d="M717.883 793.5C718.49 802.026 719.583 809.641 719.593 817.258C719.609 829.691 716.612 841.519 710.695 852.564C706.323 860.727 702.914 869.527 697.696 877.091C687.146 892.386 671.995 901.68 654.104 906.191C646.077 908.214 635.406 902.956 630.979 894.786C623.31 880.636 620.46 865.591 625.079 849.747C627.357 841.934 629.799 834.164 632.356 826.436C637.872 809.763 647.752 796.42 662.126 786.094C669.106 781.08 675.458 775.771 684.1 773.196C691.388 771.024 697.44 771.187 703.909 774.883C710.249 778.504 715.353 782.762 716.134 790.614C716.205 791.324 717.276 791.934 717.883 793.5Z" fill="#1E1818"/>
</svg>
