<svg width="351" height="363" viewBox="0 0 351 363" fill="none" xmlns="http://www.w3.org/2000/svg">
<path d="M0.907805 157.356C1.3206 153.291 1.06435 149.231 1.54447 145.223C2.24274 139.395 2.76645 133.578 2.96735 127.707C3.12285 123.16 4.47923 118.596 4.21086 114.104C3.33756 99.4904 3.70447 84.8775 3.63133 70.2647C3.55735 55.4785 3.77124 40.6887 3.50166 25.907C3.4368 22.3503 3.15906 18.6926 2.29731 15.1117C1.75397 12.854 2.10295 10.3793 3.11543 8.065C5.52316 2.5616 15.4692 4.53303 20.1931 4.44545C36.8261 4.13674 53.8956 5.43561 70.4024 5.17399C75.6164 5.09129 80.8331 5.18487 86.0472 5.10922C87.2561 5.09167 88.4535 4.63469 89.6658 4.43981C91.3404 4.17068 93.0175 3.85003 94.7054 3.74991C105.203 3.12678 118.347 1.83964 128.539 3.14254C136.994 4.22345 145.465 4.01523 153.857 3.59225C184.785 2.03325 222.287 -1.29543 253.952 1.83813C257.196 2.15908 260.419 2.09764 263.641 2.24512C265.425 2.32679 267.232 1.67137 269.034 1.64005C270.596 1.61293 272.315 1.01994 273.717 2.30218C274.822 1.36948 280.113 1.59268 281.721 1.6397C284.472 1.72007 287.255 2.4818 289.955 2.22519C298.507 1.41238 307.066 1.65534 315.625 1.57614C317.691 1.55704 319.522 0.339703 321.897 1.3441C323.538 2.0379 325.949 1.36368 327.881 0.821906C331.156 -0.0961955 346.177 -0.979993 347.586 2.52391C348.205 4.06497 350.097 5.22321 348.764 7.66351C347.754 9.51295 347.966 12.1005 347.891 14.3681C347.769 18.0311 347.659 21.7148 347.908 25.3649C350.01 56.1511 349.39 87.0262 350.871 117.872C351.395 128.792 350.166 138.647 350.03 148.938C349.921 157.099 350.075 165.263 349.961 173.424C349.891 178.414 349.976 183.477 349.161 188.37C348.207 194.102 348.662 199.79 348.653 205.485C348.607 232.112 343.978 261.891 347.962 288.105C349.083 295.477 348.309 302.831 348.535 310.185C348.707 315.74 348.583 321.304 348.566 326.864C348.547 332.859 349.071 338.8 349.937 344.737C350.469 348.382 350.566 352.102 350.655 355.793C350.693 357.339 350.361 358.945 349.908 360.436C349.476 361.855 345.688 363.602 344.143 362.796C342.51 361.945 340.971 362.217 339.407 362.215C313.923 362.174 288.434 362.504 262.958 362.037C252.036 361.837 241.066 362.127 230.193 361.311C199.775 359.027 168.531 363.573 138.213 359.91C131.991 359.158 125.785 360 119.654 359.259C112.865 358.439 106.04 359.272 99.3269 358.525C89.0963 357.386 78.886 358.171 68.6721 357.972C58.2455 357.769 47.8115 357.89 37.3814 357.957C35.1056 357.971 32.7949 357.487 30.5229 358.549C29.8197 358.878 28.6076 357.904 27.6621 357.974C24.4416 358.215 21.1445 357.201 17.9799 358.599C17.3853 358.862 16.5714 358.596 15.8636 358.644C13.3488 358.818 10.8619 358.573 8.29489 359.178C6.56991 359.585 4.45939 358.41 2.54028 357.875C0.374333 357.273 0.871663 353.601 0.851631 351.357C0.832487 349.216 0.00290239 346.925 1.38897 344.868C1.50193 344.701 1.46407 344.426 1.47975 344.2C1.71898 340.749 2.14454 337.299 2.16017 333.847C2.23306 317.76 2.08689 301.67 2.26605 285.585C2.31137 281.517 2.09015 277.46 2.17306 273.396C2.25988 269.139 1.87578 264.851 2.25585 260.626C5.35571 226.173 -2.58725 191.77 0.907805 157.356ZM259.308 217.381C261.204 215.962 263.274 214.722 264.961 213.088C269.066 209.113 273.259 205.237 276.831 200.709C280.311 196.298 283.354 191.654 285.96 186.714C287.954 182.935 289.432 178.844 291.743 175.282C296.037 168.668 299.098 161.503 301.511 154.115C303.152 149.09 304.681 143.994 305.365 138.61C306.002 133.589 306.694 128.621 306.592 123.56C306.583 123.131 306.38 122.706 306.267 122.28C305.931 122.604 305.537 122.885 305.271 123.258C304.037 124.989 302.804 126.723 301.633 128.496C296.587 136.134 290.441 142.576 282.562 147.466C278.46 150.012 274.073 151.481 269.509 151.949C263.835 152.532 257.973 152.503 252.643 149.911C246.238 146.796 239.567 144.155 234.47 138.764C231.479 135.602 230.461 132.066 230.477 127.95C230.481 126.862 230.89 126.216 231.831 125.813C234.046 124.866 236.224 123.819 238.484 122.997C241.961 121.731 244.84 117.33 244.004 114.152C242.052 106.733 232.478 100.459 226.286 100.937C223.193 101.177 220.45 103.317 219.838 106.397C219.576 107.714 219.475 109.073 219.098 110.354C218.339 112.938 216.935 115.31 214.163 115.796C210.107 116.508 206.171 115.696 202.994 112.861C200.627 110.749 198.512 108.358 196.215 106.164C193.148 103.236 191.101 99.5904 188.946 96.0291C185.002 89.5122 184.432 82.2775 185.083 74.9648C185.33 72.191 186.437 69.3929 187.622 66.8216C191.204 59.0473 196.607 52.5242 202.413 46.3188C203.544 45.109 204.781 43.9965 205.913 42.7873C206.364 42.3064 206.663 41.6846 207.031 41.127C206.416 40.9623 205.784 40.6169 205.188 40.6708C203.971 40.7811 202.771 41.0959 201.568 41.3449C198.622 41.9547 195.598 42.328 192.749 43.2411C186.269 45.3177 180.074 48.0034 173.93 51.0443C163.951 55.9826 155.507 62.7781 147.372 70.0837C142.796 74.1929 138.85 78.9207 134.926 83.688C130.387 89.2024 125.892 94.6792 122.143 100.789C117.931 107.652 114.114 114.667 111.361 122.25C109.058 128.594 107.095 135.076 106.161 141.714C105.322 147.683 105.56 153.804 105.325 159.857C105.311 160.212 105.202 160.633 105.352 160.907C105.569 161.304 105.981 161.597 106.31 161.934C106.477 161.583 106.605 161.206 106.819 160.886C111.319 154.132 115.583 147.192 122.102 142.06C126.76 138.393 131.752 135.209 137.54 133.878C142.468 132.745 147.373 131.973 152.686 133.415C157.684 134.77 162.133 136.967 166.705 139.125C170.997 141.151 174.693 143.966 177.776 147.482C179.114 149.008 180.72 150.625 180.72 152.983C180.721 155.624 180.782 158.082 178.651 160.329C175.606 163.539 173.066 167.222 170.26 170.662C165.926 175.978 161.569 181.276 157.181 186.548C155.481 188.591 153.648 190.523 151.915 192.54C147.794 197.337 143.671 202.133 139.601 206.972C137.773 209.145 136.218 211.563 134.275 213.62C131.078 217.005 128.088 220.53 122.764 221.075C119.533 221.406 116.796 223.455 115.956 227.174C115.426 229.521 115.046 232.138 113.724 234.023C110.78 238.222 107.317 242.063 104.002 245.996C102.937 247.259 101.548 248.254 100.522 249.542C97.2742 253.618 94.2487 257.874 90.914 261.876C86.3371 267.367 81.5247 272.662 76.8787 278.097C75.2641 279.986 74.0157 282.206 72.2971 283.983C69.3794 286.999 66.9743 290.764 62.447 291.743C60.2628 292.215 58.7008 293.658 57.5656 295.31C55.405 298.453 54.5965 301.443 57.8309 304.514C59.8056 306.388 61.5531 308.527 63.6593 310.232C66.266 312.341 68.9936 314.391 71.9322 315.981C75.8334 318.093 79.5648 316.377 81.1338 313.046C82.3511 310.46 83.9791 308.025 84.0216 304.998C84.0285 304.511 84.4414 303.974 84.7846 303.557C88.2033 299.403 91.6152 295.243 95.093 291.138C98.1488 287.531 101.327 284.028 104.376 280.415C107.694 276.484 110.887 272.449 114.205 268.518C117.254 264.905 120.516 261.467 123.469 257.78C127.487 252.761 131.343 247.631 137.863 245.579C138.063 245.516 138.179 245.149 138.373 245.107C140.336 244.691 141.04 243.072 141.545 241.5C142.022 240.019 142.094 238.403 142.302 236.841C142.512 235.264 142.582 233.663 142.87 232.102C143.55 228.424 146.543 226.218 148.687 223.528C152.7 218.494 157.053 213.732 161.197 208.801C164.356 205.043 167.354 201.151 170.532 197.411C172.865 194.666 175.426 192.115 177.79 189.395C180.039 186.807 182.188 184.131 184.337 181.458C187.044 178.092 189.591 174.59 192.42 171.329C195.723 167.52 199.047 167.311 203.571 170.265C204.124 170.626 204.686 171.036 205.304 171.223C209.284 172.425 212.269 175.027 214.893 178.072C216.053 179.417 217.022 180.951 217.918 182.491C219.798 185.726 222.022 188.859 223.289 192.33C225.391 198.091 226.57 204.154 225.472 210.334C224.956 213.239 224.358 216.129 223.04 218.903C220.695 223.836 217.931 228.504 214.601 232.775C212.374 235.632 209.498 237.983 206.918 240.566C205.764 241.721 204.579 242.851 203.51 244.08C203.283 244.341 203.499 244.986 203.511 245.455C203.846 245.333 204.173 245.174 204.518 245.095C208.743 244.131 213.002 243.301 217.189 242.196C223.041 240.651 228.601 238.228 233.943 235.47C237.982 233.384 241.649 230.573 245.437 228.019C250.137 224.85 254.932 221.798 259.308 217.381Z" fill="#1E1818"/>
</svg>
